<svg width="1em" height="1em" viewBox="0 0 20 20" fill="none" xmlns="http://www.w3.org/2000/svg"><path d="M20 0H0v20h20V0Z" fill="url(#a)"/><path fill-rule="evenodd" clip-rule="evenodd" d="M5.555 3.348a8 8 0 1 1 8.89 13.304 8 8 0 0 1-8.89-13.304Zm.365 12.77A7.35 7.35 0 0 0 10 17.36 7.37 7.37 0 0 0 17.36 10a7.35 7.35 0 1 0-11.44 6.117Zm8.24-3.878h.61a.33.33 0 0 1 .23.13.33.33 0 0 1 .1.23v1.6a.32.32 0 0 1-.32.32h-1.6a.32.32 0 0 1-.32-.32v-1.6a.32.32 0 0 1 .32-.32h.34v-1h-1.6v1h.32a.32.32 0 0 1 .32.32v1.6a.32.32 0 0 1-.32.32h-1.6a.32.32 0 0 1-.32-.32v-1.6a.32.32 0 0 1 .32-.32h.64V11a.32.32 0 0 1 .32-.32h.64v-1H7.76v1h.64a.32.32 0 0 1 .32.32v1.2h.64a.32.32 0 0 1 .32.32v1.6a.32.32 0 0 1-.32.32h-1.6a.32.32 0 0 1-.32-.32v-1.6a.32.32 0 0 1 .32-.32h.32v-1h-1.6v1h.32a.32.32 0 0 1 .32.32v1.6a.32.32 0 0 1-.32.32H5.23a.32.32 0 0 1-.32-.32v-1.6a.32.32 0 0 1 .32-.32h.57v-1.28a.32.32 0 0 1 .32-.32h1V9.32A.32.32 0 0 1 7.44 9h2.24v-.92H7.44a.32.32 0 0 1-.32-.32V4.88a.32.32 0 0 1 .32-.32h5.12a.32.32 0 0 1 .32.32v2.8a.32.32 0 0 1-.32.32h-2.24v1h2.24a.32.32 0 0 1 .28.36v1.32h1a.32.32 0 0 1 .32.32v1.24Zm-8.61 1.6h.93v-1h-.93v1Zm3.49 0v-1h-1v1h1ZM7.76 5.2v2.24h4.48V5.2H7.76ZM11 13.84h.92l.08-1h-1v1Zm2.45 0h1v-1h-1v1Z" fill="#fff"/><defs><linearGradient id="a" x1="19.76" y1=".24" x2=".5" y2="19.5" gradientUnits="userSpaceOnUse"><stop stop-color="#A166FF"/><stop offset=".37" stop-color="#8551E2"/><stop offset="1" stop-color="#4D27A8"/></linearGradient></defs></svg>