<svg width="1em" height="1em" viewBox="0 0 20 20" fill="#1C8DFF" xmlns="http://www.w3.org/2000/svg"><path fill-rule="evenodd" clip-rule="evenodd" d="M19.818 5.391a.44.44 0 0 1-.298.125.44.44 0 0 1-.4-.42v-1.37a.44.44 0 0 0-.43-.45h-6.87a.39.39 0 0 1-.3-.13l-1.41-1.47-1.45 1.47a.39.39 0 0 1-.3.13H1.54a.44.44 0 0 0-.43.45v1.37a.44.44 0 0 1-.48.45.44.44 0 0 1-.43-.45v-1.37a1.32 1.32 0 0 1 1.29-1.34h6.69L9.77.736a.41.41 0 0 1 .61 0l1.59 1.65h6.69a1.32 1.32 0 0 1 1.29 1.34v1.37a.44.44 0 0 1-.132.295ZM8.79 6.856a.44.44 0 0 0-.43.44v5.36a.43.43 0 0 0 .86 0v-1.34h1.28a2.23 2.23 0 1 0 0-4.46H8.79Zm3 2.23v.01-.01Zm0 .006a1.31 1.31 0 0 1-1.29 1.334H9.22v-2.68h1.28a1.31 1.31 0 0 1 1.29 1.346Zm6.01-1.346a.45.45 0 0 0 0-.89h-3.43a.45.45 0 0 0 0 .89h1.29v4.47h-1.29a.45.45 0 0 0 0 .89h3.43a.45.45 0 0 0 0-.89h-1.29v-4.47h1.29ZM.2 16.236a1.32 1.32 0 0 0 1.29 1.34h6.69l1.59 1.65a.429.429 0 0 0 .474.098.389.389 0 0 0 .136-.098l1.59-1.65h6.69a1.32 1.32 0 0 0 1.29-1.34v-1.34a.43.43 0 0 0-.86 0v1.34a.44.44 0 0 1-.43.44h-6.87a.43.43 0 0 0-.3.13l-1.38 1.47-1.45-1.47a.43.43 0 0 0-.3-.13H1.49a.44.44 0 0 1-.38-.44v-1.34a.44.44 0 0 0-.43-.45.44.44 0 0 0-.43.45l-.05 1.34Zm5.748-3.177a.44.44 0 0 1-.168.037.44.44 0 0 1-.43-.44v-1.34H2.78v1.34a.43.43 0 0 1-.86 0v-4.46a1.32 1.32 0 0 1 1.29-1.34h1.71a1.32 1.32 0 0 1 1.29 1.34v4.45a.44.44 0 0 1-.262.413ZM2.78 8.196v2.22l2.57.01v-2.23a.44.44 0 0 0-.43-.45H3.21a.44.44 0 0 0-.43.45Z"/></svg>