<svg width="1em" height="1em" viewBox="0 0 20 20" fill="#0078D7" xmlns="http://www.w3.org/2000/svg"><path fill-rule="evenodd" clip-rule="evenodd" d="M7.806 6.426s0 .06.06.06c0 0-.06 0-.06-.06Zm-.3-.6c0 .06 0 .06 0 0 0 .06 0 .06 0 0Zm0 .06c.12-.06.3-.18.54-.36h.06c.24.18.601.12.781-.12.12-.18.18-.42.06-.6.36-.24.661-.542 1.022-.842l.72.54.12.12a.74.74 0 0 0 .06.781c-.06.06-.12.06-.18.12-.24.18-.48.36-.72.481-.24-.18-.541-.12-.721.12-.06.06-.06.12-.12.24-.661.18-1.141.12-1.322.06-.12-.18-.24-.36-.3-.54Zm-.06-.12c0 .06 0 .06.06.12 0-.06 0-.12-.06-.12Zm.48-2.463c.06 0 .72-.06 1.682.48-.3.3-.6.601-.901.841a.573.573 0 0 0-.72.18c-.121.18-.181.36-.06.54-.241.181-.361.3-.481.36-.18-.84-.06-1.681.48-2.4Zm.42-.42-.42.42c.12-.18.24-.3.42-.42Zm2.526-.48c-.24.3-.481.54-.721.84-.72-.36-1.382-.42-1.802-.36.48-.42 1.081-.6 1.681-.6.3 0 .541.06.842.12Zm.36.12c-.36-.12-.36-.12-.36-.18l.36.18Zm.72.54c.06.24.06.661-.18 1.141a.515.515 0 0 0-.42 0l-.12-.12a7.18 7.18 0 0 0-.72-.66c.3-.3.54-.601.72-.901.18.06.3.18.42.3.12.06.24.18.3.24Zm.3 3.423c0-.3-.06-.6-.18-.9l.06-.06c.24-.3.24-.721 0-.962.18-.42.18-.84.12-1.08.6.84.66 2.042 0 3.002Zm0 0c-.06.06-.06 0 0 0Zm-.54.541c.06 0 .06 0 0 0 .06 0 .06 0 0 0Zm0 0c-.48.42-1.081.601-1.682.601a2.77 2.77 0 0 1-1.622-.54c-.06-.06-.18-.12-.24-.18.24 0 .601 0 1.022-.12.06.06.06.12.12.12.24.18.54.12.78-.12.06-.12.12-.241.12-.36.274-.139.535-.3.781-.481.06-.06.18-.12.24-.18.12.06.24.06.36.06.12.48.18.9.12 1.201l.001-.001ZM10.03 20c-.48 0-.961-.18-1.321-.54L.54 11.35A1.858 1.858 0 0 1 0 10.03c0-.54.18-.96.54-1.321L8.71.54C9.069.18 9.549 0 10.03 0c.48 0 .961.18 1.321.54l8.109 8.11c.36.36.54.84.54 1.32 0 .48-.18.962-.54 1.322L11.352 19.4c-.361.361-.842.601-1.322.601Zm-5.706-6.607h3.724l-1.321-1.32L9.252 9.55v6.066H7.39l2.642 2.642 2.643-2.642h-1.862V9.61l2.525 2.525-1.321 1.321h3.719V9.73l-1.322 1.321-3.183-3.183c.481-.18.84-.54 1.201-.961 1.022-1.382.781-3.304-.6-4.325a3.066 3.066 0 0 0-1.862-.66c-.901 0-1.862.42-2.463 1.2-1.02 1.382-.78 3.304.6 4.325.18.18.421.3.602.36L5.525 10.99l-1.32-1.32v3.723h.119Z"/></svg>