<svg width="1em" height="1em" viewBox="0 0 20 20" fill="none" xmlns="http://www.w3.org/2000/svg"><path d="M6.945 1.363h5.425L6.739 18.048a.865.865 0 0 1-.82.588H1.698a.863.863 0 0 1-.819-1.14L6.126 1.953a.865.865 0 0 1 .82-.589Z" fill="url(#a)"/><path d="M14.828 12.554H6.226a.4.4 0 0 0-.272.69l5.528 5.159c.16.15.373.234.593.234h4.87l-2.117-6.083Z" fill="#0078D4"/><path d="M6.945 1.363a.858.858 0 0 0-.821.6L.886 17.483a.862.862 0 0 0 .814 1.153h4.33a.925.925 0 0 0 .711-.604l1.045-3.078 3.73 3.48c.157.13.353.2.556.202h4.853l-2.128-6.082-6.205.002L12.39 1.363H6.945Z" fill="url(#b)"/><path d="M13.874 1.95a.863.863 0 0 0-.818-.587H7.01a.864.864 0 0 1 .818.588l5.247 15.546a.863.863 0 0 1-.818 1.14h6.045a.863.863 0 0 0 .819-1.14L13.874 1.95Z" fill="url(#c)"/><defs><linearGradient id="a" x1="8.923" y1="2.643" x2="3.289" y2="19.286" gradientUnits="userSpaceOnUse"><stop stop-color="#114A8B"/><stop offset="1" stop-color="#0669BC"/></linearGradient><linearGradient id="b" x1="10.682" y1="10.399" x2="9.379" y2="10.84" gradientUnits="userSpaceOnUse"><stop stop-opacity=".3"/><stop offset=".071" stop-opacity=".2"/><stop offset=".321" stop-opacity=".1"/><stop offset=".623" stop-opacity=".05"/><stop offset="1" stop-opacity="0"/></linearGradient><linearGradient id="c" x1="9.966" y1="2.158" x2="16.15" y2="18.633" gradientUnits="userSpaceOnUse"><stop stop-color="#3CCBF4"/><stop offset="1" stop-color="#2892DF"/></linearGradient></defs></svg>