<svg width="1em" height="1em" viewBox="0 0 20 20" fill="none" xmlns="http://www.w3.org/2000/svg"><path d="M20 0H0v20h20V0Z" fill="url(#a)"/><path fill-rule="evenodd" clip-rule="evenodd" d="M15.61 13.649v-2.002c.3-.05.582-.184.814-.385a1.678 1.678 0 0 0 .53-1.66 1.68 1.68 0 0 0-.438-.792 1.66 1.66 0 0 0-1.681-.416 1.663 1.663 0 0 0-.753.496c-.2.232-.334.515-.386.818H11.71a1.702 1.702 0 0 0-.468-.902 1.68 1.68 0 0 0-.895-.471V6.899a1.941 1.941 0 0 0 1.236-.712 1.97 1.97 0 0 0-.192-2.662 1.937 1.937 0 0 0-2.649 0 1.97 1.97 0 0 0-.192 2.662c.308.386.75.64 1.236.712v1.436a1.68 1.68 0 0 0-.896.47 1.713 1.713 0 0 0-.467.903H6.572a1.82 1.82 0 0 0-.417-.883 1.798 1.798 0 0 0-1.782-.569 1.817 1.817 0 0 0-1.289 2.31c.1.316.284.599.532.817.248.219.551.364.876.42v1.866c-.412.07-.782.293-1.038.625a1.686 1.686 0 0 0 .187 2.263 1.657 1.657 0 0 0 2.253 0 1.682 1.682 0 0 0 .188-2.263 1.662 1.662 0 0 0-1.039-.625v-1.886c.376-.06.724-.238.993-.509s.446-.621.505-1h1.882c.06.342.224.656.467.902.244.245.557.41.896.47v1.72c-.45.07-.857.31-1.14.67a1.833 1.833 0 0 0 .192 2.47 1.802 1.802 0 0 0 2.457 0 1.833 1.833 0 0 0 .191-2.469c-.282-.36-.689-.6-1.139-.671v-1.72a1.68 1.68 0 0 0 .896-.47 1.71 1.71 0 0 0 .467-.902h1.986c.058.343.22.66.464.905.244.246.558.41.899.468v2.002c-.412.07-.783.292-1.039.624a1.686 1.686 0 0 0 .188 2.263 1.657 1.657 0 0 0 2.253 0 1.682 1.682 0 0 0 .187-2.263 1.661 1.661 0 0 0-1.038-.624Zm-9.704 1.655a1.128 1.128 0 0 1-.682 1.034 1.105 1.105 0 0 1-1.21-.234 1.123 1.123 0 0 1-.254-1.214 1.12 1.12 0 0 1 1.013-.707 1.094 1.094 0 0 1 .803.318 1.111 1.111 0 0 1 .33.803Zm-1.133-4.056a1.242 1.242 0 0 1-1.138-.79 1.267 1.267 0 0 1 .283-1.364 1.245 1.245 0 0 1 1.358-.263c.227.096.42.257.557.463a1.264 1.264 0 0 1-.576 1.865 1.239 1.239 0 0 1-.484.09Zm3.89-6.288a1.402 1.402 0 0 1 .853-1.288 1.373 1.373 0 0 1 1.508.303 1.397 1.397 0 0 1 .3 1.519 1.376 1.376 0 0 1-1.278.86 1.364 1.364 0 0 1-.968-.412 1.384 1.384 0 0 1-.395-.982h-.02Zm2.63 10.198a1.265 1.265 0 0 1-.77 1.162 1.239 1.239 0 0 1-1.36-.273 1.26 1.26 0 0 1-.27-1.37 1.241 1.241 0 0 1 1.153-.776 1.251 1.251 0 0 1 1.169.772c.064.153.098.318.1.485h-.021Zm-1.247-4.046a1.107 1.107 0 0 1-1.013-.706 1.13 1.13 0 0 1 .254-1.215 1.11 1.11 0 0 1 1.892.8c0 .297-.117.582-.326.793-.208.21-.491.328-.787.328h-.02Zm4.16-1.121a1.127 1.127 0 0 1 .687-1.036 1.105 1.105 0 0 1 1.212.243 1.123 1.123 0 0 1 .242 1.222 1.12 1.12 0 0 1-1.028.692 1.109 1.109 0 0 1-.774-.335 1.126 1.126 0 0 1-.319-.786h-.02Zm1.113 6.424a1.107 1.107 0 0 1-1.037-.687 1.13 1.13 0 0 1 .24-1.227 1.11 1.11 0 0 1 1.899.803c0 .291-.113.57-.316.779a1.099 1.099 0 0 1-.766.332h-.02ZM4.773 9.435a.558.558 0 0 0-.551.555.568.568 0 0 0 .556.49.56.56 0 0 0 .556-.49.568.568 0 0 0-.561-.555Zm4.781 5.938a.559.559 0 0 1-.039-.215.56.56 0 0 1 .34-.514.548.548 0 0 1 .211-.042.56.56 0 0 1 .486.56.569.569 0 0 1-.486.561.547.547 0 0 1-.512-.35Z" fill="#fff"/><defs><linearGradient id="a" x1="19.76" y1=".24" x2=".5" y2="19.5" gradientUnits="userSpaceOnUse"><stop stop-color="#F90"/><stop offset=".43" stop-color="#E97C0B"/><stop offset="1" stop-color="#C8511B"/></linearGradient></defs></svg>