<svg width="1em" height="1em" viewBox="0 0 20 20" fill="none" xmlns="http://www.w3.org/2000/svg"><path fill-rule="evenodd" clip-rule="evenodd" d="M2.9 6.04 10 4.02l.03 1.32L5.09 6.5v7.01l4.94 1.24-.03 1.24-7.05-2-.14-.16-.06-.23V6.42l.06-.25.09-.13Z" fill="#60BA64"/><path fill-rule="evenodd" clip-rule="evenodd" d="M10.12 16.17v3.64l-.17.19-8.2-4.14V4.15L9.95 0l.17.25v3.981l.11-.531 6.88 2.47.13.22v7.22l-.13.22-6.99 2.34Zm0-1.478 4.71-1.182V6.5l-4.71-1.106v9.298Zm-7.31-.862 4.74 1.43V4.75L2.81 6.18v7.65Z" fill="#479151"/><path d="M9.95 0v20l8.17-4.14V4.15L9.95 0Zm7.17 13.83-4.74 1.43V4.75l4.74 1.43v7.65Z" fill="#60BA64"/></svg>