<svg width="1em" height="1em" viewBox="0 0 20 20" fill="none" xmlns="http://www.w3.org/2000/svg"><path d="M20 0H0v20h20V0Z" fill="url(#a)"/><path d="M8.4 12.8H5.467a1.63 1.63 0 0 1-.838-.25 2.715 2.715 0 0 1-1.296-2.371 2.424 2.424 0 0 1 1.734-2.446v-.208a3.653 3.653 0 0 1 2.085-3.221 3.499 3.499 0 0 1 3.944.781c.334.34.605.738.8 1.174.278-.225.624-.347.981-.347.726 0 1.542.55 1.691 1.755.685.162 2.093.722 2.093 2.536A2.4 2.4 0 0 1 15.4 12.44l-.267-.467a1.888 1.888 0 0 0 .987-1.77c0-1.568-1.299-1.958-1.867-2.054a.267.267 0 0 1-.173-.112.267.267 0 0 1-.045-.192c-.078-.968-.643-1.4-1.174-1.4a1.066 1.066 0 0 0-.861.451.267.267 0 0 1-.253.107.266.266 0 0 1-.211-.176 3.628 3.628 0 0 0-.837-1.366A2.976 2.976 0 0 0 7.363 4.8 3.136 3.136 0 0 0 5.6 7.52c0 .123.007.246.021.368a.267.267 0 0 1-.216.296 1.93 1.93 0 0 0-1.541 1.995 2.168 2.168 0 0 0 1.048 1.92c.166.106.358.164.555.168H8.4v.533Z" fill="#fff"/><path d="m16.37 14.4-1.893-1.901a2.83 2.83 0 1 0-1.296 1.368l1.867 1.866c.178.174.418.27.667.267a.93.93 0 0 0 .664-.267.94.94 0 0 0-.008-1.333Zm-4.477-.755a2.29 2.29 0 1 1 0-4.58 2.29 2.29 0 0 1 0 4.58ZM16 15.347a.419.419 0 0 1-.576 0l-1.776-1.776c.217-.17.407-.372.565-.598L16 14.771a.41.41 0 0 1 0 .576Z" fill="#fff"/><path d="m12.627 10.115-.318.429a.897.897 0 0 0-1.424.853.88.88 0 0 0 .355.603l-.307.416a1.432 1.432 0 0 1 1.704-2.301h-.01Z" fill="#fff"/><defs><linearGradient id="a" x1="-4.141" y1="24.141" x2="24.141" y2="-4.141" gradientUnits="userSpaceOnUse"><stop stop-color="#B0084D"/><stop offset="1" stop-color="#FF4F8B"/></linearGradient></defs></svg>