<svg width="1em" height="1em" viewBox="0 0 20 20" fill="none" xmlns="http://www.w3.org/2000/svg"><path d="M20 0H0v20h20V0Z" fill="url(#a)"/><path fill-rule="evenodd" clip-rule="evenodd" d="M16.978 9.527a6.934 6.934 0 0 0-2.207-4.655A7.02 7.02 0 0 0 9.948 3a7.019 7.019 0 0 0-4.797 1.937A6.932 6.932 0 0 0 3.008 9.62c-.01.139-.01.278 0 .417a6.94 6.94 0 0 0 2.045 4.915A7.028 7.028 0 0 0 9.993 17a7.467 7.467 0 0 0 2.258-.376h.105a7.45 7.45 0 0 0 1.44-.73c.056-.038.115-.073.173-.108.104-.063.209-.125.31-.205a6.958 6.958 0 0 0 2.121-2.688 6.912 6.912 0 0 0 .578-3.366Zm-2.784 5.323-.21-.47-.504.25c.095.188.179.387.263.585-.226.167-.46.32-.704.46h-.063l-.263.104c.142-.341.264-.69.368-1.044l-.536-.156a8.12 8.12 0 0 1-.588 1.471 6.34 6.34 0 0 1-1.974.313 6.544 6.544 0 0 1-2.952-.71 8.242 8.242 0 0 1-.63-3.047c.01-.405.066-.808.168-1.2l.063-.303-.557-.021-.063.292a6.224 6.224 0 0 0-.168 1.315c.012.873.157 1.739.43 2.568a6.38 6.38 0 0 1-2.002-2.279 6.335 6.335 0 0 1-.718-2.94v-.177a9.035 9.035 0 0 1 1.576-.199V9.11a9.077 9.077 0 0 0-1.502.178 6.368 6.368 0 0 1 1.427-3.315 6.43 6.43 0 0 1 3.005-2.02c.412.208.805.45 1.177.721l.346-.449a10.494 10.494 0 0 0-.714-.47 5.78 5.78 0 0 1 1.124-.114 6.42 6.42 0 0 1 2.479.511 4.871 4.871 0 0 0-.557.157l.179.511c.363-.13.735-.234 1.113-.313a6.38 6.38 0 0 1 2.194 2.071 6.33 6.33 0 0 1 .556 5.818 6.358 6.358 0 0 1-1.763 2.444v.01Zm-5.25-8.81.399.428a7.317 7.317 0 0 0-1.397 1.66l-.473-.303a7.93 7.93 0 0 1 1.47-1.785Zm3.991 5.355h.557a9.354 9.354 0 0 0-1.565-4.634l-.462.302a8.918 8.918 0 0 1 1.47 4.332Zm-4.36-1.774-.168.532a8.411 8.411 0 0 1 3.151 1.941l.378-.396A8.957 8.957 0 0 0 8.575 9.62Zm2.974-3.165a1.243 1.243 0 0 1-.873.357l.02-.01a1.245 1.245 0 0 1-1.133-.755 1.224 1.224 0 0 1 .252-1.333 1.242 1.242 0 0 1 2.1.877 1.228 1.228 0 0 1-.366.864Zm-.494-1.428a.686.686 0 0 0-.862.084.676.676 0 0 0 .222 1.106.687.687 0 0 0 .744-.147.677.677 0 0 0-.104-1.043ZM6.842 8.232A1.245 1.245 0 0 0 5.704 9a1.224 1.224 0 0 0 .276 1.339 1.242 1.242 0 0 0 2.112-.875 1.225 1.225 0 0 0-.772-1.14 1.246 1.246 0 0 0-.478-.092Zm0 1.91a.685.685 0 0 1-.683-.678c0-.18.072-.352.2-.48a.685.685 0 0 1 1.166.48.685.685 0 0 1-.683.678Zm5.915 1.653c.249-.04.505-.006.734.1l-.042-.04a1.225 1.225 0 0 1 .313 2.089 1.256 1.256 0 0 1-1.94-.482 1.214 1.214 0 0 1 .934-1.667Zm.118 1.904c.133.026.27.013.395-.04a.67.67 0 0 0 .427-.753.668.668 0 0 0-.679-.54.675.675 0 0 0-.645.405.664.664 0 0 0 .152.743.67.67 0 0 0 .35.185Z" fill="#fff"/><defs><linearGradient id="a" x1="19.76" y1=".24" x2=".5" y2="19.5" gradientUnits="userSpaceOnUse"><stop stop-color="#A166FF"/><stop offset=".37" stop-color="#8551E2"/><stop offset="1" stop-color="#4D27A8"/></linearGradient></defs></svg>