<svg width="1em" height="1em" viewBox="0 0 20 20" fill="none" xmlns="http://www.w3.org/2000/svg"><path d="M20 0H0v20h20V0Z" fill="url(#a)"/><path fill-rule="evenodd" clip-rule="evenodd" d="M6.978 12.088h2.03v-.49h-2.03v.49Zm8.074-2.683c-.056-.746-.428-1.294-1.02-1.485-.47-.153-.99-.043-1.39.27a5.066 5.066 0 0 0-.916-1.21c-1.016-.967-2.308-1.267-3.547-.82-1.142.413-2.47 1.805-2.47 2.982v.015c-.746.185-1.267 1.15-1.267 1.675h.507c0-.38.49-1.216 1.014-1.216a.25.25 0 0 0 .253-.246v-.228c0-.943 1.177-2.174 2.14-2.522 1.43-.516 2.502.223 3.013.71.33.313.768.878.954 1.376.032.085.11.146.201.16a.262.262 0 0 0 .24-.095c.278-.356.721-.51 1.107-.386.433.14.681.584.681 1.22 0 .12.09.221.212.241.627.1 1.812.647 1.812 1.996 0 1.678-1.699 1.71-1.77 1.71H9.009v.49h5.797c.788 0 2.277-.462 2.277-2.2 0-1.54-1.23-2.237-2.03-2.437Zm-7.059 3.66h3.554v-.49H7.993v.49Zm-1.523.978h1.523v-.49H6.47v.49Zm-.507-.978h1.015v-.49H5.963v.49Zm-2.539-.977h2.539v-.49H3.424v.49Zm-.507.977h2.538v-.49H2.917v.49Zm1.015.978h1.523v-.49H3.932v.49Z" fill="#fff"/><defs><linearGradient id="a" x1="0" y1="19.588" x2="20" y2=".412" gradientUnits="userSpaceOnUse"><stop stop-color="#B0084D"/><stop offset="1" stop-color="#FF4F8B"/></linearGradient></defs></svg>