<svg width="1em" height="1em" viewBox="0 0 20 20" fill="none" xmlns="http://www.w3.org/2000/svg"><path d="M20 0H0v20h20V0Z" fill="url(#a)"/><path fill-rule="evenodd" clip-rule="evenodd" d="M10.063 3.001h-.126A6.9 6.9 0 0 0 5.09 4.96 6.92 6.92 0 0 0 3 9.759a.263.263 0 0 0 .158.252l2.487 1.629.304-.473-2.33-1.513a1.818 1.818 0 0 1 1.9-1.22 2.097 2.097 0 0 1 1.406.558l.026.025c.308.309.468.469.499.868v.063l.273 1.188.598-.095-.283-1.188A1.766 1.766 0 0 1 10 8.424a1.982 1.982 0 0 1 1.396.568l.094.084a1.125 1.125 0 0 1 .473.777l-.284 1.188.546.147.294-1.198v-.063a1.756 1.756 0 0 1 1.962-1.492 1.95 1.95 0 0 1 1.396.557c.223.184.405.413.535.672l-2.099 1.45.326.463 2.235-1.587A.273.273 0 0 0 17 9.77a6.83 6.83 0 0 0-2.058-4.835 6.81 6.81 0 0 0-4.879-1.934ZM7.345 8.634a2.55 2.55 0 0 0-1.826-.746 2.778 2.778 0 0 0-1.816.547 6.308 6.308 0 0 1 1.88-3.22A6.293 6.293 0 0 1 8.951 3.62c-.724.862-1.302 2.628-1.396 5.255a1.523 1.523 0 0 0-.21-.242Zm4.44 0A2.58 2.58 0 0 0 10 7.888a2.705 2.705 0 0 0-1.92.683c.168-2.963 1.05-4.97 1.889-5.023H10c.85 0 1.753 2.102 1.9 5.254l-.063-.063-.053-.105Zm4.48 0a2.705 2.705 0 0 0-3.778.084 8.869 8.869 0 0 0-1.437-5.034c1.29.18 2.492.761 3.434 1.663a6.214 6.214 0 0 1 1.813 3.36l-.032-.073Zm-7.482 6.61.41-.409-.809-.778.903-.672-.336-.452-1.165.883a.241.241 0 0 0-.105.2.264.264 0 0 0 .084.22l1.018 1.009Zm2.225-.283.902-.673-.797-.82.388-.399 1.05 1.051c.055.06.085.14.083.22a.284.284 0 0 1-.115.2l-1.175.873-.336-.452Zm-.389-2.424-1.482 3.366.51.225 1.481-3.366-.509-.225Zm-3.977-.865h7a.283.283 0 0 1 .273.283v4.761a.284.284 0 0 1-.273.284h-7a.283.283 0 0 1-.283-.284v-4.76a.284.284 0 0 1 .283-.284Zm.283 4.76h6.434V12.23H6.925v4.204Z" fill="#fff"/><defs><linearGradient id="a" x1="19.76" y1=".24" x2=".5" y2="19.5" gradientUnits="userSpaceOnUse"><stop stop-color="#527FFF"/><stop offset=".36" stop-color="#4662E4"/><stop offset="1" stop-color="#2E27AD"/></linearGradient></defs></svg>