<svg data-name="Layer 1" xmlns="http://www.w3.org/2000/svg" viewBox="0 0 22 22" width="1em" height="1em"><defs><linearGradient id="a" x1="1" y1="11" x2="21" y2="11" gradientUnits="userSpaceOnUse"><stop offset="0" stop-color="#f77616"/><stop offset="1" stop-color="#f7a616"/></linearGradient></defs><path d="M11 1a.85.85 0 0 1 .35.08l7.36 3.63a.84.84 0 0 1 .45.58L21 13.41a.91.91 0 0 1-.17.75l-5.09 6.52a.82.82 0 0 1-.64.32H6.91a.84.84 0 0 1-.64-.32l-5.08-6.52a.89.89 0 0 1-.19-.74l1.84-8.13a.85.85 0 0 1 .45-.59l7.36-3.62A1 1 0 0 1 11 1" style="fill:url(#a)"/><path d="M15.27 11.3a10.78 10.78 0 0 0 1-1.81c.58-1.46.53-2.63-.14-3.3s-1.84-.72-3.3-.14A10.78 10.78 0 0 0 11 7a10.78 10.78 0 0 0-1.81-1c-1.46-.58-2.63-.53-3.3.14S5.17 8 5.75 9.49a10.78 10.78 0 0 0 1 1.81 10.78 10.78 0 0 0-1 1.81c-.58 1.46-.53 2.63.14 3.3a2 2 0 0 0 1.49.59 5.13 5.13 0 0 0 1.81-.4 10.78 10.78 0 0 0 1.81-1 10.78 10.78 0 0 0 1.81 1 5.13 5.13 0 0 0 1.81.4 2 2 0 0 0 1.49-.54c.67-.67.72-1.84.14-3.3a10.78 10.78 0 0 0-.98-1.86Zm-2.18-4.55a4.3 4.3 0 0 1 1.53-.35 1.36 1.36 0 0 1 1 .32c.59.6.32 2.14-.78 3.91A16 16 0 0 0 13.35 9a14.13 14.13 0 0 0-1.69-1.5 9.42 9.42 0 0 1 1.43-.75Zm1.27 4.55a14.47 14.47 0 0 1-1.54 1.82A15.13 15.13 0 0 1 11 14.67a15.13 15.13 0 0 1-1.82-1.55 14.47 14.47 0 0 1-1.54-1.82 14.47 14.47 0 0 1 1.54-1.82A14.27 14.27 0 0 1 11 7.93a14.27 14.27 0 0 1 1.82 1.55 14.47 14.47 0 0 1 1.54 1.82ZM6.42 6.72a1.36 1.36 0 0 1 1-.32 4.3 4.3 0 0 1 1.53.35 9.42 9.42 0 0 1 1.43.75A14.13 14.13 0 0 0 8.65 9a16 16 0 0 0-1.45 1.63c-1.1-1.77-1.37-3.31-.78-3.91Zm2.49 9.13c-1.14.45-2 .46-2.49 0-.59-.6-.32-2.14.78-3.91a16 16 0 0 0 1.45 1.68 15.11 15.11 0 0 0 1.69 1.45 9.42 9.42 0 0 1-1.43.78Zm6.67 0c-.44.43-1.35.42-2.49 0a9.42 9.42 0 0 1-1.43-.75 15.11 15.11 0 0 0 1.69-1.45A16 16 0 0 0 14.8 12c1.1 1.74 1.37 3.28.78 3.88Z" style="fill:#fff"/></svg>