<svg width="1em" height="1em" viewBox="0 0 20 20" fill="none" xmlns="http://www.w3.org/2000/svg"><path d="M20 0H0v20h20V0Z" fill="url(#a)"/><path fill-rule="evenodd" clip-rule="evenodd" d="M9.678 6.41a.277.277 0 0 1-.098.101l-2.822 1.57V11.7l3.217 1.774 2.782-1.56a.27.27 0 0 1 .273 0l2.63 1.443a.28.28 0 0 1 .11.098.265.265 0 0 1 .042.136.256.256 0 0 1-.041.138.27.27 0 0 1-.11.096l-5.595 3.12a.352.352 0 0 1-.142.05.388.388 0 0 1-.141 0L3.642 13.58a.289.289 0 0 1-.105-.104.275.275 0 0 1-.037-.14V6.433a.294.294 0 0 1 .142-.244l5.655-3.15a.27.27 0 0 1 .283 0 .258.258 0 0 1 .106.108.246.246 0 0 1 .026.146v2.984a.265.265 0 0 1-.034.134Zm.246 7.57-3.581-1.95a.258.258 0 0 1-.142-.195v-3.9a.246.246 0 0 1 .036-.137.26.26 0 0 1 .106-.097l2.822-1.57V3.75l-5.16 2.86v6.552l6.07 3.355 5.17-2.926-2.154-1.199-2.873 1.59a.312.312 0 0 1-.294 0Zm6.141-1.023-2.711-1.472a.259.259 0 0 1-.112-.105.246.246 0 0 1-.03-.148v-3.15l-2.823-1.55a.268.268 0 0 1-.104-.098.256.256 0 0 1-.037-.136V3.304a.26.26 0 0 1 .037-.136.268.268 0 0 1 .104-.098.25.25 0 0 1 .264 0l5.705 3.14a.287.287 0 0 1 .102.1c.025.04.039.087.04.134v6.23a.287.287 0 0 1-.142.234.31.31 0 0 1-.151.05.24.24 0 0 1-.142 0Zm-5.27-9.195v2.37l2.822 1.58c.043.022.08.056.104.098a.256.256 0 0 1 .037.135v3.13l2.165 1.2V6.619l-5.129-2.857Z" fill="#fff"/><defs><linearGradient id="a" x1="19.76" y1=".24" x2=".5" y2="19.5" gradientUnits="userSpaceOnUse"><stop stop-color="#F90"/><stop offset=".43" stop-color="#E97C0B"/><stop offset="1" stop-color="#C8511B"/></linearGradient></defs></svg>