<svg width="1em" height="1em" viewBox="0 0 20 20" fill="none" xmlns="http://www.w3.org/2000/svg"><path d="M20 0H0v20h20V0Z" fill="url(#a)"/><path fill-rule="evenodd" clip-rule="evenodd" d="M16.828 4.691a.266.266 0 0 1-.106.022.587.587 0 0 0-.383.206.647.647 0 0 0-.152.423.658.658 0 0 0 .151.427.598.598 0 0 0 .384.212c.074 0 .144.03.197.086a.3.3 0 0 1 .081.206V11.3a.3.3 0 0 1-.081.207.271.271 0 0 1-.197.085h-2.47v-.585h1.39v-.281h-1.38v-.585h1.647a.27.27 0 0 1 .196.085.3.3 0 0 1 .082.207v.575h.267V6.522a1.178 1.178 0 0 1-.588-.449 1.279 1.279 0 0 1-.225-.727c0-.261.079-.516.225-.727.146-.211.352-.368.588-.448v-.098H3.546v.098c.24.074.45.228.6.44a1.267 1.267 0 0 1 .002 1.465c-.15.213-.361.369-.602.446v4.485H4.1v-.575a.3.3 0 0 1 .078-.203.272.272 0 0 1 .19-.09h1.38v.586H4.647v.281H5.76v.585H3.29a.271.271 0 0 1-.197-.085.3.3 0 0 1-.082-.207V6.273a.3.3 0 0 1 .082-.206.271.271 0 0 1 .196-.086c.15-.016.29-.09.39-.209a.669.669 0 0 0-.006-.862.607.607 0 0 0-.394-.207.27.27 0 0 1-.193-.082.3.3 0 0 1-.085-.2v-.629a.3.3 0 0 1 .081-.206.271.271 0 0 1 .197-.086h13.444c.074 0 .144.03.197.086a.3.3 0 0 1 .081.207v.628a.305.305 0 0 1-.081.207.278.278 0 0 1-.09.063ZM6.294 8.44c0-.964 1.874-1.473 3.716-1.473 1.833 0 3.696.509 3.706 1.473v6.587c0 .964-1.853 1.473-3.706 1.473s-3.716-.51-3.716-1.473V8.44Zm3.716 7.486c2.028 0 3.14-.585 3.14-.9l.01-1.354a6.446 6.446 0 0 1-3.15.661 6.517 6.517 0 0 1-3.17-.693v1.387c0 .314 1.142.899 3.17.899ZM10 13.759c2.028 0 3.15-.596 3.15-.899l.01-1.365a6.339 6.339 0 0 1-3.15.672 6.393 6.393 0 0 1-3.17-.726v1.419c0 .325 1.132.9 3.16.9Zm0-2.177c2.028 0 3.15-.585 3.15-.889l.01-1.451a6.339 6.339 0 0 1-3.15.671 6.388 6.388 0 0 1-3.17-.671v1.451c0 .315 1.132.889 3.16.889ZM6.84 8.44c0 .303 1.111.9 3.17.9 2.06 0 3.16-.597 3.16-.9 0-.303-1.1-.9-3.16-.9-2.059 0-3.17.597-3.17.9Zm3.026-2.047V4.94a.3.3 0 0 0-.085-.2.27.27 0 0 0-.193-.082H7.663c-.07 0-.139.03-.189.083a.29.29 0 0 0-.078.199v1.733h.556v-1.44H9.31v1.159h.556Zm2.739-1.452v1.733h-.536v-1.44h-1.38v1.159h-.555V4.94a.3.3 0 0 1 .085-.2.27.27 0 0 1 .193-.082h1.925a.26.26 0 0 1 .19.083.29.29 0 0 1 .078.199Zm1.647 3.976v.585h.823a.271.271 0 0 0 .197-.086.3.3 0 0 0 .081-.207V4.876a.3.3 0 0 0-.081-.207.271.271 0 0 0-.197-.086H13.16a.271.271 0 0 0-.196.086.3.3 0 0 0-.082.207v2.069h.546V5.212h1.38v3.705h-.556Zm-7.68-3.684h-1.38v3.76h.557v.574h-.824a.271.271 0 0 1-.196-.086.3.3 0 0 1-.082-.207V4.941a.3.3 0 0 1 .085-.2.27.27 0 0 1 .193-.082H6.84a.27.27 0 0 1 .193.082.3.3 0 0 1 .085.2v2.026h-.546V5.233Z" fill="#fff"/><defs><linearGradient id="a" x1="19.76" y1=".24" x2=".5" y2="19.5" gradientUnits="userSpaceOnUse"><stop stop-color="#527FFF"/><stop offset=".36" stop-color="#4662E4"/><stop offset="1" stop-color="#2E27AD"/></linearGradient></defs></svg>