<svg width="1em" height="1em" viewBox="0 0 20 20" fill="none" xmlns="http://www.w3.org/2000/svg"><path d="M20 0H0v20h20V0Z" fill="#D86613"/><path d="M13.21 10.267a1.659 1.659 0 1 0 0-.534h-1.989a3.762 3.762 0 0 0-.373-1.413l2.4-2.03a1.659 1.659 0 1 0-.63-1.298c-.002.322.09.638.267.907l-2.32 1.954a3.867 3.867 0 1 0 0 4.294l2.32 1.954a1.62 1.62 0 0 0-.266.907 1.657 1.657 0 1 0 .629-1.299l-2.4-2.03c.216-.441.342-.921.373-1.412h1.99Zm1.633-1.392a1.125 1.125 0 1 1 .005 2.25 1.125 1.125 0 0 1-.005-2.25Zm-.555-5.008a1.125 1.125 0 1 1 0 2.25 1.125 1.125 0 0 1 0-2.25Zm0 10.018a1.125 1.125 0 1 1 0 2.25 1.125 1.125 0 0 1 0-2.25Zm-6.923-.552a3.333 3.333 0 1 1 0-6.666 3.333 3.333 0 0 1 0 6.666Z" fill="#fff"/></svg>