<svg width="1em" height="1em" viewBox="0 0 20 20" fill="none" xmlns="http://www.w3.org/2000/svg"><path d="M20 0H0v20h20V0Z" fill="url(#a)"/><path d="M7.864 9.712v.566H6.737v1.111h-.574v-1.111H5.036v-.566h1.127V8.6h.574v1.112h1.127Zm8.247 3.595a1.07 1.07 0 0 1-1.413 0 .97.97 0 0 1-.205-1.06.978.978 0 0 1 .365-.433.998.998 0 0 1 1.457.434.963.963 0 0 1-.204 1.06Zm-2.125-1.258-.808-.262.627-1.174.51.954a1.372 1.372 0 0 0-.35.535l.02-.053Zm-1.372-.43-2.837-.88a3.413 3.413 0 0 0 0-1.468l2.816-.86.85 1.605-.829 1.604Zm-1.296 2.412a1.571 1.571 0 0 0-1.467.168l-1.169-1.604.18-.158c.323-.32.576-.702.745-1.121l2.72.838-1.01 1.877Zm.096 2.097a1.072 1.072 0 0 1-1.414 0 .97.97 0 0 1-.204-1.06.979.979 0 0 1 .364-.434.999.999 0 0 1 1.458.434.964.964 0 0 1-.204 1.06ZM4.43 11.934a2.808 2.808 0 0 1-.78-1.444 2.784 2.784 0 0 1 .164-1.628 2.829 2.829 0 0 1 1.053-1.264 2.887 2.887 0 0 1 3.175 0c.47.31.836.75 1.053 1.264.217.515.274 1.081.164 1.628a2.852 2.852 0 0 1-2.805 2.277 2.883 2.883 0 0 1-2.024-.833Zm5.42-6.122c.255.157.55.24.85.241.209 0 .415-.043.606-.126l1.063 1.96-2.71.84a3.34 3.34 0 0 0-.765-1.143l-.181-.168L9.85 5.812Zm.138-1.96a.99.99 0 0 1 .702-.289 1 1 0 0 1 .701.288.988.988 0 0 1 .38.716.973.973 0 0 1-.291.756 1 1 0 0 1-.766.287 1.01 1.01 0 0 1-.726-.375.964.964 0 0 1-.296-.692.953.953 0 0 1 .296-.692Zm4.124 4.057.191.23.096.074-.627 1.163-.595-1.132.935-.335Zm.595-1.552a1.071 1.071 0 0 1 1.425 0 1.04 1.04 0 0 1 0 1.384 1.008 1.008 0 0 1-1.354-.05.98.98 0 0 1-.06-1.334h-.01Zm.702 4.697a1.482 1.482 0 0 0-.67.146l-.638-1.195.798-1.478a1.582 1.582 0 0 0 1.32-.113 1.53 1.53 0 0 0 .724-1.742 1.535 1.535 0 0 0-.86-.994 1.581 1.581 0 0 0-.664-.139c-.4.012-.78.173-1.062.451a1.526 1.526 0 0 0-.415 1.426l-1.01.314-1.116-2.096a1.52 1.52 0 0 0 .364-1.626 1.543 1.543 0 0 0-.524-.697 1.575 1.575 0 0 0-2.308.483 1.524 1.524 0 0 0 .109 1.661L8.225 7.112a3.468 3.468 0 0 0-3.47-.066A3.411 3.411 0 0 0 3.47 8.288a3.35 3.35 0 0 0 0 3.424c.308.519.751.948 1.284 1.242a3.47 3.47 0 0 0 3.47-.066l1.201 1.657a1.528 1.528 0 0 0 .517 2.27 1.58 1.58 0 0 0 1.683-.127c.238-.177.42-.42.524-.696a1.52 1.52 0 0 0-.364-1.626l1.062-2.096.978.304a1.53 1.53 0 0 0 .252.86c.169.256.41.457.695.577a1.583 1.583 0 0 0 1.709-.316 1.522 1.522 0 0 0 .355-1.678 1.546 1.546 0 0 0-.57-.697 1.578 1.578 0 0 0-.868-.266h.01Z" fill="#fff"/><defs><linearGradient id="a" x1="19.76" y1=".24" x2=".5" y2="19.5" gradientUnits="userSpaceOnUse"><stop stop-color="#A166FF"/><stop offset=".37" stop-color="#8551E2"/><stop offset="1" stop-color="#4D27A8"/></linearGradient></defs></svg>