<svg width="1em" height="1em" viewBox="0 0 20 20" fill="none" xmlns="http://www.w3.org/2000/svg"><path d="M20 0H0v20h20V0Z" fill="url(#a)"/><path fill-rule="evenodd" clip-rule="evenodd" d="M3.5 15h13V5.5h-13V15ZM17 5.25v10a.25.25 0 0 1-.25.25H3.25a.25.25 0 0 1-.25-.25v-10A.25.25 0 0 1 3.25 5h13.5a.25.25 0 0 1 .25.25ZM11 12h4v-.5h-4v.5Zm3-1.5h1.5V10H14v.5Zm-3 0h2V10h-2v.5Zm-3.5 1.25a.25.25 0 1 0-.5 0 .25.25 0 0 0 .5 0Zm.5 0c0 .325-.21.6-.5.704V13H7v-.546A.749.749 0 0 1 7.25 11a.75.75 0 0 1 .75.75Zm-3 1.748 4.498.002.001-1H8.5V12h.999v-.5H8.5V11h1v-.998L5.002 10 5 13.498ZM5.5 9.5l3.499.002V7.787c0-.409-.333-.707-.532-.848a2.181 2.181 0 0 0-1.217-.39c-.883 0-1.749.613-1.75 1.237V9.5Zm-1 4.248.002-3.998c0-.066.026-.13.072-.177a.252.252 0 0 1 .178-.073H5V7.787c.001-.994 1.188-1.736 2.25-1.736.527 0 1.075.175 1.507.481.479.341.742.787.742 1.257v1.713h.251a.25.25 0 0 1 .25.25l-.002 3.998c0 .066-.026.13-.072.177a.252.252 0 0 1-.178.073l-4.998-.002a.25.25 0 0 1-.25-.25ZM14.5 9h1v-.5h-1V9ZM11 9h3v-.5h-3V9Z" fill="#fff"/><defs><linearGradient id="a" x1="0" y1="20" x2="20" y2="0" gradientUnits="userSpaceOnUse"><stop stop-color="#BD0816"/><stop offset="1" stop-color="#FF5252"/></linearGradient></defs></svg>