<svg width="1em" height="1em" viewBox="0 0 20 20" fill="none" xmlns="http://www.w3.org/2000/svg"><path fill-rule="evenodd" clip-rule="evenodd" d="M17.196 9.658c0 3.947-3.13 7.149-6.991 7.149-3.862 0-6.99-3.202-6.99-7.149 0-3.946 3.128-7.148 6.99-7.148s6.99 3.202 6.99 7.148Z" fill="#D33833"/><path fill-rule="evenodd" clip-rule="evenodd" d="M3.502 11.428s-.508-7.453 6.365-7.667l-.48-.8-3.726 1.251-1.066 1.223-.93 1.782-.53 2.075.158 1.387" fill="#EF3D3A"/><path fill-rule="evenodd" clip-rule="evenodd" d="M5.109 14.89A7.423 7.423 0 0 1 3 9.686c0-2.03.806-3.873 2.109-5.209a7.117 7.117 0 0 1 5.096-2.16c1.99 0 3.794.83 5.097 2.16a7.427 7.427 0 0 1 2.108 5.21 7.423 7.423 0 0 1-2.108 5.203 7.094 7.094 0 0 1-10.193 0Zm.31-10.108a7.011 7.011 0 0 0-1.985 4.904c0 1.917.761 3.648 1.985 4.905a6.66 6.66 0 0 0 4.786 2.03 6.66 6.66 0 0 0 4.787-2.03 7.011 7.011 0 0 0 1.984-4.905 7.011 7.011 0 0 0-1.984-4.904c-1.23-1.252-2.915-2.03-4.787-2.03a6.67 6.67 0 0 0-4.786 2.03Z" fill="#231F20"/><path fill-rule="evenodd" clip-rule="evenodd" d="M10.228 7.42c.033-.045.225-.118.496.011 0 0-.322.051-.293.587l-.136-.029c.006.006-.135-.479-.067-.569Z" fill="#F7E4CD"/><path fill-rule="evenodd" clip-rule="evenodd" d="M12.562 11.998a.15.15 0 0 1-.147.147.15.15 0 0 1-.146-.147.15.15 0 0 1 .146-.147c.085 0 .147.068.147.147Zm.146.682a.15.15 0 0 1-.146.147.15.15 0 0 1-.147-.147.15.15 0 0 1 .147-.147c.084 0 .146.063.146.147Z" fill="#1D1919"/><path fill-rule="evenodd" clip-rule="evenodd" d="m13.148 9.698-1.066.157-1.437.164-.93.022-.908-.028-.694-.214-.614-.665-.48-1.359-.106-.293-.638-.214-.372-.615-.265-.88.294-.772.693-.242.558.265.265.586.322-.05.107-.136-.107-.614-.029-.773.158-1.065-.005-.61.484-.777L9.23.97l1.488-.637 1.652.243 1.438 1.037.665 1.066.428.772.107 1.917-.32 1.652-.587 1.465-.553.784" fill="#F0D6B7"/><path fill-rule="evenodd" clip-rule="evenodd" d="m12.246 14.304-3.806.157v.637l.322 2.239-.158.186-2.661-.908-.186-.321-.265-3.01-.626-1.805-.135-.428 2.13-1.466.666-.265.586.721.508.451.586.186.265.08.321 1.386.243.293.614-.214-.428.829 2.311 1.094-.287.158Z" fill="#335061"/><path fill-rule="evenodd" clip-rule="evenodd" d="m5.932 5.013.693-.243.558.265.265.586.322-.05.078-.322-.157-.614.157-1.466-.135-.8.48-.559L9.23.987l-.293-.4-1.466.722-.615.479-.344.744-.53.722-.158.85.108.909Z" fill="#6D6B6D"/><path fill-rule="evenodd" clip-rule="evenodd" d="M7.025 2.51s.4-.987 1.996-1.466c1.596-.48.08-.344.08-.344l-1.732.665-.665.665-.293.53.614-.05Zm-.8 2.316s-.558-1.866 1.573-2.13l-.08-.322-1.465.344-.429 1.387.108.907.293-.186Z" fill="#DCD9D8"/><path fill-rule="evenodd" clip-rule="evenodd" d="m7.076 7.301.35-.338s.158.017.186.203c.028.186.107 1.866 1.251 2.768.107.085-.85-.135-.85-.135l-.852-1.33m4.815-1.675s.061-.806.281-.744c.22.062.22.282.22.282s-.53.338-.502.462Zm2.209-2.954s-.44.09-.479.479c-.04.39.48.079.558.05m-3.298-.501s-.586.08-.586.451c0 .372.665.344.851.186M7.347 5.599s-1.01-.615-1.116-.028c-.108.586-.344 1.009.157 1.623l-.344-.107-.32-.823-.108-.8.615-.638.693.051.4.322.023.4Zm.479-1.68s.451-2.345 2.74-2.797c1.883-.372 2.875.08 3.247.508 0 0-1.68-1.996-3.275-1.387-1.596.614-2.768 1.73-2.74 2.447.045 1.229.028 1.229.028 1.229ZM14 1.895s-.773-.028-.801.665c0 0 0 .107.05.214 0 0 .615-.693.987-.32" fill="#F7E4CD"/><path fill-rule="evenodd" clip-rule="evenodd" d="M10.622 2.848s-.135-1.06-1.037-.446c-.586.4-.53.959-.429 1.066.108.107.08.321.158.175.08-.147.057-.626.35-.761.287-.136.772-.282.958-.034Z" fill="#F7E4CD"/><path fill-rule="evenodd" clip-rule="evenodd" d="m8.119 10.042-2.503 1.116s1.037 4.127.507 5.406l-.372-.135-.028-1.573-.693-2.976-.294-.824 2.61-1.759.773.745Zm.254 2.283.355.434v1.595h-.423s-.05-1.116-.05-1.251c0-.136.05-.615.05-.615m.079 2.109-1.2.05.343.243.852.135" fill="#49728B"/><path fill-rule="evenodd" clip-rule="evenodd" d="m12.483 14.332.986-.028.243 2.446-1.01.136-.22-2.554Z" fill="#335061"/><path fill-rule="evenodd" clip-rule="evenodd" d="m12.748 14.332 1.488-.079s.615-1.545.615-1.624c0-.079.53-2.238.53-2.238L14.18 9.14l-.243-.215-.637.637v2.475l-.552 2.295Z" fill="#335061"/><path fill-rule="evenodd" clip-rule="evenodd" d="m13.413 14.146-.93.186.135.744c.344.158.93-.265.93-.265m-.107-5.328 1.866 1.387.051-.637-1.41-1.302-.507.552Z" fill="#49728B"/><path fill-rule="evenodd" clip-rule="evenodd" d="m9.309 19.575-.553-2.238-.276-1.652-.045-1.224 2.497-.135h1.55l-.14 2.796.242 2.16-.028.4-2.024.158-1.223-.265Z" fill="#fff"/><path fill-rule="evenodd" clip-rule="evenodd" d="M12.139 14.304s-.135 2.768.265 4.74c0 0-.8.508-1.968.638l2.239-.079.264-.158-.32-4.364-.085-.935" fill="#DCD9D8"/><path fill-rule="evenodd" clip-rule="evenodd" d="m13.751 16.542 1.038-.293 1.967-.107.293-.908-.53-1.573-.614-.079-.851.265-.812.4-.435-.079-.338.136" fill="#fff"/><path fill-rule="evenodd" clip-rule="evenodd" d="M13.734 16.006s.694-.321.8-.293l-.292-1.466.344-.135s.242 1.387.242 1.545c0 0 1.488.079 1.624.079 0 0 .321-.615.242-1.252l.293.851.029.48-.429.637-.48.107-.8-.028-.265-.344-.93.135-.293.107" fill="#DCD9D8"/><path fill-rule="evenodd" clip-rule="evenodd" d="m12.686 14.118-.587-1.489-.614-.88s.135-.371.321-.371h.615l.586.214-.05.986-.271 1.54Z" fill="#fff"/><path fill-rule="evenodd" clip-rule="evenodd" d="M12.804 13.61s-.744-1.437-.744-1.652c0 0 .135-.321.321-.242.186.079.586.293.586.293v-.507l-.907-.186-.615.079 1.038 2.458.214.028" fill="#DCD9D8"/><path fill-rule="evenodd" clip-rule="evenodd" d="m9.546 10.098-.74-.08-.692-.213v.242l.338.372 1.065.48" fill="#fff"/><path fill-rule="evenodd" clip-rule="evenodd" d="M8.356 10.177s.823.344 1.094.265l.028.321-.744-.158-.451-.321.073-.107Z" fill="#DCD9D8"/><path fill-rule="evenodd" clip-rule="evenodd" d="M13.751 11.468a4.925 4.925 0 0 1-1.218-.17c.023-.146-.022-.287.017-.394.102-.073.265-.073.417-.09a.721.721 0 0 0-.462-.05c-.005-.102-.05-.164-.079-.243.254-.09.852-.683 1.19-.49.163.095.231.625.242.89.011.214-.022.428-.107.547Z" fill="#D33833"/><path fill-rule="evenodd" clip-rule="evenodd" d="M13.751 11.468a4.925 4.925 0 0 1-1.218-.17c.023-.146-.022-.287.017-.394.102-.073.265-.073.417-.09a.721.721 0 0 0-.462-.05c-.005-.102-.05-.164-.079-.243.254-.09.852-.683 1.19-.49.163.095.231.625.242.89.011.214-.022.428-.107.547Z" fill="#000"/><path clip-rule="evenodd" d="M13.751 11.468a4.925 4.925 0 0 1-1.218-.17c.023-.146-.022-.287.017-.394.102-.073.265-.073.417-.09a.721.721 0 0 0-.462-.05c-.005-.102-.05-.164-.079-.243.254-.09.852-.683 1.19-.49.163.095.231.625.242.89.011.214-.022.428-.107.547Z" stroke="#D33833" stroke-width=".5"/><path fill-rule="evenodd" clip-rule="evenodd" d="M11.592 10.73c0 .033 0 .067-.006.1-.14.091-.366.091-.524.17.226.011.406.068.564.14-.006.085-.006.176-.011.26-.26.175-.497.44-.801.61-.147.078-.648.28-.8.242-.085-.023-.096-.13-.13-.232-.074-.214-.243-.563-.26-.89-.017-.412-.062-1.105.384-1.02.36.067.778.23 1.054.383.175.101.27.214.53.236Z" fill="#D33833"/><path fill-rule="evenodd" clip-rule="evenodd" d="M11.592 10.73c0 .033 0 .067-.006.1-.14.091-.366.091-.524.17.226.011.406.068.564.14-.006.085-.006.176-.011.26-.26.175-.497.44-.801.61-.147.078-.648.28-.8.242-.085-.023-.096-.13-.13-.232-.074-.214-.243-.563-.26-.89-.017-.412-.062-1.105.384-1.02.36.067.778.23 1.054.383.175.101.27.214.53.236Z" fill="#000"/><path clip-rule="evenodd" d="M11.592 10.73c0 .033 0 .067-.006.1-.14.091-.366.091-.524.17.226.011.406.068.564.14-.006.085-.006.176-.011.26-.26.175-.497.44-.801.61-.147.078-.648.28-.8.242-.085-.023-.096-.13-.13-.232-.074-.214-.243-.563-.26-.89-.017-.412-.062-1.105.384-1.02.36.067.778.23 1.054.383.175.101.27.214.53.236Z" stroke="#D33833" stroke-width=".5"/><path fill-rule="evenodd" clip-rule="evenodd" d="M11.846 11.22c-.04-.226-.085-.288-.068-.485.603-.4.71.688.068.485Z" fill="#D33833"/><path fill-rule="evenodd" clip-rule="evenodd" d="M11.846 11.22c-.04-.226-.085-.288-.068-.485.603-.4.71.688.068.485Z" fill="#000"/><path clip-rule="evenodd" d="M11.846 11.22c-.04-.226-.085-.288-.068-.485.603-.4.71.688.068.485Z" stroke="#D33833" stroke-width=".5"/><path fill-rule="evenodd" clip-rule="evenodd" d="M12.714 11.4s-.186-.265-.051-.344c.135-.079.265 0 .344-.135.079-.135 0-.214.028-.372s.158-.186.293-.214c.136-.029.508-.08.559.05l-.158-.479-.322-.107-1.009.586-.05.294v.586M9.917 12.28l-.101-1.246c-.056-.62.147-.513.688-.513.084 0 .507.095.535.157.147.3-.242.232.17.457.343.186.958-.113.817-.535-.079-.096-.406-.029-.524-.09l-.626-.322c-.265-.135-.874-.338-1.156-.147-.716.485.045 1.703.299 2.21" fill="#EF3D3A"/><path fill-rule="evenodd" clip-rule="evenodd" d="M10.622 2.848c-.727-.17-1.088.304-1.308.795-.197-.045-.118-.316-.067-.451.13-.356.654-.835 1.082-.767.18.022.429.192.293.423Zm3.535.822h.034c.163.34.304.7.513 1.004-.14.327-1.049.61-1.037.034.197-.084.535-.017.71-.13-.102-.276-.242-.512-.22-.907Zm-3.168.012c.158.288.208.586.428.8.102.097.293.215.198.486-.023.062-.186.202-.282.23-.344.102-1.15.023-.88-.41.288.01.671.185.885-.023-.163-.26-.456-.778-.35-1.083Zm3.038 2.898c-.518.332-1.099.699-1.956.614-.18-.157-.253-.513-.073-.744.09.158.034.451.293.496.485.085 1.049-.298 1.398-.428.214-.367-.017-.496-.214-.733-.4-.48-.93-1.077-.913-1.793.163-.118.174.18.197.231.209.485.733 1.11 1.11 1.528.097.102.249.203.266.27.05.192-.13.43-.107.559ZM7.16 6.23c-.163-.095-.202-.501-.394-.513-.276-.017-.226.53-.226.852-.186-.17-.22-.7-.084-.97-.158-.079-.226.085-.316.14.119-.817 1.201-.377 1.02.491Zm7.194.694c-.242.462-.586.97-1.296.986-.017-.146-.028-.377 0-.467.547-.057.885-.333 1.296-.52Zm-3.404.299c.45.236 1.285.265 1.905.248.034.135.034.304.034.468-.795.033-1.731-.164-1.94-.716Zm-.085.439c.315.79 1.392.7 2.3.677-.04.101-.124.225-.237.265-.293.118-1.094.208-1.5-.006-.253-.135-.423-.445-.563-.626-.062-.084-.4-.304 0-.31Z" fill="#231F20"/><path fill-rule="evenodd" clip-rule="evenodd" d="M13.988 12.01c-.366.63-.722 1.279-1.156 1.831.18-.535.26-1.437.288-2.125.383-.18.71.04.868.293Z" fill="#81B0C4"/><path fill-rule="evenodd" clip-rule="evenodd" d="M15.967 14.275c-.412.085-.7.485-1.105.457.225-.31.609-.445 1.105-.457Zm.18.643c-.338.034-.732.09-1.07.062.163-.248.783-.158 1.07-.062Zm.119.558c-.378.006-.846 0-1.207-.028.215-.231.964-.084 1.207.028Z" fill="#231F20"/><path fill-rule="evenodd" clip-rule="evenodd" d="M13.278 16.999c.056.473.242.952.22 1.471-.21.068-.327.13-.61.13-.016-.44-.078-1.117-.061-1.54.135.012.338-.095.45-.061Z" fill="#DCD9D8"/><path fill-rule="evenodd" clip-rule="evenodd" d="M12.669 10.008c-.192.124-.35.276-.536.411-.406.023-.625-.028-.919-.26.006-.016.034-.01.034-.033.434.192.987-.079 1.42-.118Z" fill="#F0D6B7"/><path fill-rule="evenodd" clip-rule="evenodd" d="M10.402 12.956c.119-.513.587-.783 1.01-1.065.434.552.699 1.262.992 1.95-.694-.208-1.398-.54-2.002-.885Z" fill="#81B0C4"/><path fill-rule="evenodd" clip-rule="evenodd" d="M14.54 13.824c.649-.32 1.855-.862 2.256 0 .152.322.326.857.4 1.19.107.462-.119 1.443-.598 1.596-.423.135-.913.13-1.42.028a.823.823 0 0 1-.175-.226c-.361-.011-.705.017-.987.17.028.27-.152.31-.327.366-.124.502.254 1.155.164 1.607-.062.326-.463.377-.756.434-.011.18.011.332.034.485-.068.247-.367.389-.654.422-.942.113-2.368.164-3.27-.163-.254-.62-.45-1.37-.66-2.075-.88.096-1.595-.378-2.266-.693-.231-.107-.552-.17-.643-.355-.084-.18-.05-.525-.073-.846-.05-.829-.101-1.63-.316-2.475-.095-.384-.27-.716-.389-1.083-.112-.338-.304-.76-.355-1.099-.073-.502.4-.53.7-.75.467-.338.834-.524 1.341-.829.152-.09.603-.315.654-.422.102-.209-.175-.502-.248-.666a2.012 2.012 0 0 1-.197-.733 1.42 1.42 0 0 1-.942-.603c-.321-.473-.547-1.347-.265-2.007.023-.05.13-.158.147-.237.034-.157-.062-.366-.068-.535-.028-.863.147-1.607.727-1.866.237-.942 1.083-1.252 1.878-1.72.299-.175.626-.287.964-.411 1.212-.446 3.078-.361 4.087.4.429.321 1.11 1.003 1.353 1.5.649 1.302.598 3.484.147 5.074-.062.214-.147.524-.27.783-.085.18-.35.536-.322.694.034.163.609.597.733.716.22.214.643.496.676.766.04.288-.124.683-.208.959-.27.924-.541 1.776-.852 2.604ZM12.996 1.077C12.166.61 10.769.26 9.889.7c-.71.355-1.668.941-1.996 1.68.305.716-.09 1.37-.118 2.097-.011.389.18.722.197 1.144-.107.175-.422.192-.642.18-.074-.371-.203-.788-.587-.833-.54-.063-.941.388-.964.856-.028.553.423 1.466 1.066 1.404.248-.022.31-.27.58-.27.147.293-.225.383-.264.592-.012.056.028.265.056.366.118.48.378 1.105.631 1.471.327.468.964.536 1.652.581.124-.265.575-.242.868-.175-.355-.14-.682-.479-.952-.778-.31-.343-.626-.71-.643-1.161.592.818 1.077 1.533 2.148 1.894.812.27 1.759-.124 2.385-.563.259-.18.411-.474.597-.733.688-.993 1.01-2.402.942-3.772-.028-.564-.028-1.128-.22-1.505-.197-.395-.868-.756-1.263-.395-.073-.389.327-.626.795-.485-.333-.434-.682-.947-1.161-1.218ZM8.852.863c-.795.226-1.815.806-2.142 1.522.253-.039.428-.163.676-.18.096-.006.22.04.327.011.214-.056.4-.541.564-.721.158-.175.35-.254.48-.412.084-.04.208-.04.213-.163-.034-.04-.073-.068-.118-.057Zm-2.515 2.25c-.35.389-.276 1.11-.236 1.629.637-.4 1.477.034 1.471.71.305-.005.113-.377.057-.62-.18-.783.304-1.63.022-2.345-.547.045-.992.265-1.314.626Zm7.053 6.545c.739-.355.874 1.336.581 1.883.045.164.197.226.26.372-.412.739-.869 1.427-1.292 2.154.31-.197.761-.034 1.128-.18.135-.051.23-.361.332-.61.282-.676.576-1.533.705-2.176.028-.146.113-.468.09-.597-.033-.237-.35-.412-.513-.553-.298-.27-.484-.501-.8-.755-.119.186-.39.31-.49.462Zm-5.367.586c-.073-.05-.564-.687-.631-.66-.885.35-1.714.954-2.453 1.529.705 1.516.993 3.371 1.043 5.158.806.378 1.517.925 2.616.981a44.21 44.21 0 0 1-.316-2.548c-.276-.118-.67.005-.93-.034 0-.31.395-.135.429-.344.022-.158-.22-.169-.141-.417.203.073.31.237.524.299.197-.429 0-1.19.028-1.55.006-.068.034-.373.186-.322.136.045-.005.817.006 1.156.011.315-.04.614.09.812a30.246 30.246 0 0 1 3.287-.27c-.254-.108-.552-.21-.88-.396-.18-.101-.738-.31-.789-.479-.084-.27.214-.411.265-.643-.535.294-.637-.281-.767-.682a5.633 5.633 0 0 1-.208-.851c-.468-.237-.964-.457-1.359-.739Zm5.835.671c-.011-.259-.079-.794-.242-.89-.338-.198-.936.4-1.19.49.028.079.073.141.08.242a.716.716 0 0 1 .461.051c-.152.017-.315.017-.417.09-.034.108.012.248-.017.395.356.102.767.152 1.218.17.085-.114.119-.328.107-.548Zm-2.604-.789c0 .023-.029.017-.034.034.298.231.518.282.919.26.18-.13.344-.288.535-.412-.44.04-.992.31-1.42.118Zm-2.842-.107c-.231.237.648.553.925.57 0-.147.084-.288.067-.395-.332-.057-.766-.017-.992-.175Zm2.65.48a3.881 3.881 0 0 0-1.054-.384c-.446-.085-.4.609-.384 1.02.017.327.186.671.26.891.033.101.045.209.13.231.152.034.659-.163.8-.242.304-.164.541-.429.8-.61.006-.084.006-.174.012-.258a1.358 1.358 0 0 0-.564-.141c.152-.08.383-.08.524-.17 0-.033 0-.067.006-.101-.26-.028-.355-.141-.53-.237Zm.716.236c-.017.197.028.26.068.485.642.203.535-.885-.068-.485Zm.524.693c-.163-.017-.304.192-.518.102-.051.056-.096.113-.147.169.473.575.693 1.387 1.06 2.058.197-.649.175-1.353.22-2.058-.27.011-.423-.254-.615-.27Zm.818.288c-.028.688-.107 1.59-.288 2.125.434-.558.79-1.2 1.156-1.832-.158-.254-.485-.473-.868-.293Zm-.722 2.125c-.293-.688-.558-1.398-.992-1.95-.423.282-.885.552-1.01 1.065.61.344 1.314.677 2.002.885Zm3.868 2.532c.417-.102.676-.61.558-1.134-.08-.349-.215-1.014-.367-1.24-.107-.163-.406-.383-.648-.23-.39.247-1.071.32-1.353.62.14.473.186 1.116.242 1.713.485.028 1.077-.135 1.483.04-.282.09-.643.09-.885.225.203.096.665.079.97.006Zm-2.148-1.962c-.136-.028-.288 0-.412 0 .062.592.203 1.246.254 1.871.197.006.304-.09.468-.118.01-.547-.046-1.302-.31-1.753Zm-1.415.118a23.39 23.39 0 0 0 .09 2.176c.282-.04.468-.067.727-.13-.085-.698-.073-1.493-.248-2.114-.197.006-.372 0-.57.068Zm-4.229.147c.186 1.697.451 3.117.942 4.623 1.088.332 2.396.36 3.36.062-.175-.846-.102-1.878-.203-2.785-.08-.683-.04-1.365-.147-2.058-1.167-.243-2.813-.057-3.952.158Zm4.352 2.39c-.016.423.04 1.094.063 1.54.281 0 .4-.063.608-.13.023-.52-.163-.998-.22-1.472-.112-.04-.315.068-.45.062Z" fill="#231F20"/></svg>