<svg width="1em" height="1em" viewBox="0 0 20 20" fill="none" xmlns="http://www.w3.org/2000/svg"><path fill-rule="evenodd" clip-rule="evenodd" d="M1.533 14.318c.037-.237.153-.453.33-.612a1 1 0 0 1 .973-.052l1.389-1.651a6.146 6.146 0 0 1-.335-2.064 6.434 6.434 0 0 1 .223-1.796L2.744 6.574a.997.997 0 0 1-.661-.07 1.022 1.022 0 0 1-.476-.473 1.049 1.049 0 0 1 .255-1.252.998.998 0 0 1 .76-.112c.258.066.48.232.62.462a.983.983 0 0 1 .13.444l1.927.361A6.064 6.064 0 0 1 8.685 3.87l.66-1.991a.861.861 0 0 1-.275-.3A1.046 1.046 0 0 1 9.102.436c.116-.166.277-.294.463-.367a.997.997 0 0 1 1.097.249 1.048 1.048 0 0 1 .198 1.126 1.03 1.03 0 0 1-.38.455l.649 1.889a6.154 6.154 0 0 1 3.507 2.064l1.714-.33c.02-.176.086-.343.189-.486a.998.998 0 0 1 1.388-.243 1.048 1.048 0 0 1 .288 1.403 1.03 1.03 0 0 1-.375.358.999.999 0 0 1-.882 0l-1.146 1.393a6.38 6.38 0 0 1 .315 1.992c.007.701-.103 1.4-.325 2.064l1.298 1.59a.997.997 0 0 1 .71-.025c.232.08.428.242.551.457a1.048 1.048 0 0 1-.247 1.332.998.998 0 0 1-.751.098 1.016 1.016 0 0 1-.608-.46.856.856 0 0 1-.121-.34l-2.12-.413a6.187 6.187 0 0 1-3.274 1.889l-.659 1.981c.107.089.199.193.274.31a1.046 1.046 0 0 1-.023 1.128 1.015 1.015 0 0 1-.448.37.998.998 0 0 1-1.09-.206 1.05 1.05 0 0 1 .09-1.571l-.689-2.012a6.121 6.121 0 0 1-3.203-1.91l-2.12.424a1.045 1.045 0 0 1-.496.805.997.997 0 0 1-.686-.001 1.018 1.018 0 0 1-.528-.445 1.048 1.048 0 0 1-.129-.686Zm10.962-8.172a4.465 4.465 0 0 0-2.522-.769 4.482 4.482 0 0 0-3.17 1.34A4.644 4.644 0 0 0 5.47 9.94a4.66 4.66 0 0 0 .744 2.57 4.542 4.542 0 0 0 2.024 1.713c.827.355 1.738.45 2.618.276a4.496 4.496 0 0 0 2.326-1.256 4.629 4.629 0 0 0 1.244-2.361 4.68 4.68 0 0 0-.259-2.667 4.586 4.586 0 0 0-1.673-2.068ZM12 6.894 9.486 9.103c-.117.114-.21.251-.274.402a1.181 1.181 0 0 0-.131.434 1.314 1.314 0 0 0 .375.918l2.088 2.292c-.32.163-.661.278-1.014.34a3.64 3.64 0 0 1-2.108-.217H8.34l-.132-.062a3.576 3.576 0 0 1-1.572-1.682l-.121-.31v-.092a2.378 2.378 0 0 1-.112-.444 3.77 3.77 0 0 1 .556-2.78c.267-.403.61-.75 1.009-1.018a3.604 3.604 0 0 1 1.314-.547c.943-.18 1.917.02 2.718.557Z" fill="#414042"/><path d="M12.409 12.5c.436-.45.755-.994.932-1.587a3.79 3.79 0 0 0 .086-1.826 3.762 3.762 0 0 0-.716-1.587L10.35 9.391l-.246.207a.284.284 0 0 0-.101.228.458.458 0 0 0 .09.326c.076.105.162.203.257.294l2.059 2.054Z" fill="#27AAE1"/></svg>