<svg width="1em" height="1em" viewBox="0 0 43 20" fill="none" xmlns="http://www.w3.org/2000/svg"><g clip-path="url(#a)"><path fill-rule="evenodd" clip-rule="evenodd" d="M.362 13.706a1.048 1.048 0 0 0-.2 1.298c.12.206.307.363.528.445a.997.997 0 0 0 .686 0c.14-.083.259-.2.345-.34.086-.14.139-.3.152-.464l2.119-.423a6.121 6.121 0 0 0 3.203 1.909l.69 2.012a1.05 1.05 0 0 0-.09 1.571.998.998 0 0 0 1.09.206c.18-.076.336-.205.447-.37a1.045 1.045 0 0 0 .023-1.128 1.346 1.346 0 0 0-.274-.31l.659-1.981a6.188 6.188 0 0 0 3.275-1.889l2.118.413a.856.856 0 0 0 .122.34c.137.228.355.392.608.46a.998.998 0 0 0 .75-.098 1.048 1.048 0 0 0 .248-1.332 1.018 1.018 0 0 0-.55-.457.997.997 0 0 0-.711.024l-1.298-1.59a6.296 6.296 0 0 0 .325-2.063 6.398 6.398 0 0 0-.315-1.992l1.146-1.393a.999.999 0 0 0 .882 0 1.045 1.045 0 0 0 .086-1.76 1.003 1.003 0 0 0-1.387.242c-.103.143-.168.31-.19.486l-1.713.33A6.161 6.161 0 0 0 9.63 3.788l-.65-1.889c.169-.11.3-.269.38-.455A1.049 1.049 0 0 0 9.163.318.997.997 0 0 0 8.065.069c-.186.073-.347.2-.463.367a1.044 1.044 0 0 0-.032 1.143c.067.12.16.223.274.3L7.185 3.87A6.064 6.064 0 0 0 3.8 5.934l-1.926-.36a.983.983 0 0 0-.75-.907.998.998 0 0 0-.76.112 1.03 1.03 0 0 0-.342.58c-.046.228-.016.464.086.672.102.207.27.374.476.473.206.098.44.123.661.07l1.369 1.569a6.434 6.434 0 0 0-.223 1.796 6.146 6.146 0 0 0 .334 2.064l-1.388 1.651a.998.998 0 0 0-.974.052Zm8.11-8.329a4.465 4.465 0 0 1 2.523.769 4.586 4.586 0 0 1 1.673 2.068 4.68 4.68 0 0 1 .26 2.667 4.629 4.629 0 0 1-1.245 2.361 4.496 4.496 0 0 1-2.325 1.256 4.448 4.448 0 0 1-2.619-.275 4.542 4.542 0 0 1-2.024-1.714 4.663 4.663 0 0 1-.744-2.57 4.644 4.644 0 0 1 1.332-3.221 4.482 4.482 0 0 1 3.17-1.34Zm-.486 3.726 2.515-2.209a3.647 3.647 0 0 0-2.717-.557c-.47.093-.917.279-1.315.547a3.672 3.672 0 0 0-1.01 1.018 3.77 3.77 0 0 0-.555 2.78c.023.151.06.3.112.444v.093l.121.31c.328.721.88 1.313 1.572 1.681l.132.062h.08c.668.28 1.4.356 2.11.217a3.594 3.594 0 0 0 1.013-.34l-2.088-2.292a1.314 1.314 0 0 1-.375-.918c.015-.152.06-.3.132-.434.063-.151.156-.288.273-.402ZM18.25 5.711v8.161h1.54v-2.056h.854l1.38 2.056h1.772l-2.126-3.211 2.004-2.297H21.84l-1.734 1.98h-.318V5.71H18.25Zm10.823 7.54c.271-.286.484-.625.625-.998.14-.374.206-.773.193-1.173a2.97 2.97 0 0 0-.192-1.162 2.879 2.879 0 0 0-.626-.983 2.927 2.927 0 0 0-2.15-.813 3.021 3.021 0 0 0-2.187.813 2.88 2.88 0 0 0-.626.983 2.97 2.97 0 0 0-.192 1.162c-.014.402.053.802.196 1.175.143.374.36.713.635.995.292.28.634.496 1.008.638.373.142.77.205 1.166.187.393.018.786-.045 1.155-.187a2.94 2.94 0 0 0 .995-.638Zm-3.665-2.171c0-.404.155-.792.43-1.077a1.439 1.439 0 0 1 1.036-.446c.389 0 .762.16 1.037.446.274.285.429.673.429 1.077 0 .404-.154.791-.43 1.077a1.439 1.439 0 0 1-1.036.446c-.389 0-.762-.16-1.037-.446a1.554 1.554 0 0 1-.429-1.077Zm9.755 2.664c-.316.135-.655.2-.996.191-.636 0-1.149-.025-1.588-.063v2.653h-1.527V8.452c1-.151 2.007-.24 3.017-.266a2.46 2.46 0 0 1 1.067.186c.338.141.644.356.895.63.252.275.444.603.562.961.119.359.162.74.127 1.117a2.962 2.962 0 0 1-.721 2.069c-.236.257-.52.46-.836.595ZM33.8 9.506c-.408.004-.816.03-1.221.076l-.025 2.932c.446.059.895.089 1.344.089a1.29 1.29 0 0 0 .522-.12c.165-.077.313-.188.435-.325a1.433 1.433 0 0 0 .35-1.027c0-1.08-.464-1.625-1.405-1.625Zm6.267 3.262a6.022 6.022 0 0 1-2.15-.482l-.306 1.269a6.308 6.308 0 0 0 2.444.482c1.478 0 2.443-.622 2.443-1.853 0-.977-.55-1.358-1.845-1.637h-.305l-.538-.115c-.317-.101-.488-.19-.488-.444s.28-.47.757-.47c.66.04 1.313.168 1.942.381l.342-1.269a5.904 5.904 0 0 0-2.223-.419c-1.43 0-2.32.686-2.32 1.84 0 .927.573 1.41 1.82 1.65l.292.064c.182.024.362.063.538.114.354.077.586.203.586.457s-.378.432-.99.432Z" fill="#414042"/><path d="M10.909 12.5c.436-.45.755-.994.932-1.587a3.79 3.79 0 0 0 .086-1.826 3.762 3.762 0 0 0-.716-1.587L8.85 9.391l-.246.207a.283.283 0 0 0-.101.228.458.458 0 0 0 .09.326c.076.105.162.203.257.294l2.059 2.054Z" fill="#27AAE1"/></g><defs><clipPath id="a"><path fill="#fff" d="M0 0h43v20H0z"/></clipPath></defs></svg>