<svg width="1em" height="1em" viewBox="0 0 20 20" fill="none" xmlns="http://www.w3.org/2000/svg"><path d="M20 0H0v20h20V0Z" fill="url(#a)"/><path fill-rule="evenodd" clip-rule="evenodd" d="M5.802 3v.556H3.955l2.099 2.1-.388.398-2.1-2.099v1.837H3v-2.52A.283.283 0 0 1 3.283 3h2.52Zm10.915 0h-2.52v.567h1.848l-2.099 2.099.388.398 2.1-2.098v1.826H17V3.283A.284.284 0 0 0 16.717 3ZM10 6.211c-1.49 0-3.086.378-3.086 1.186a.524.524 0 0 0 0 .126v5.048c0 .84 1.575 1.197 3.075 1.197 1.501 0 3.075-.368 3.075-1.176V7.397c0-.808-1.595-1.186-3.064-1.186Zm0 .567c1.637 0 2.519.44 2.519.63 0 .189-.882.619-2.52.619-1.636 0-2.518-.441-2.518-.62 0-.178.882-.63 2.519-.63Zm2.519 5.814c0 .178-.882.62-2.52.62-1.636 0-2.518-.441-2.518-.62v-.882c.795.34 1.655.5 2.519.473a5.91 5.91 0 0 0 2.519-.462v.871Zm0-1.595c0 .178-.882.63-2.52.63-1.636 0-2.518-.452-2.518-.63v-1.05A5.73 5.73 0 0 0 10 10.43a5.93 5.93 0 0 0 2.519-.44v1.007Zm0-1.784c0 .189-.882.63-2.52.63-1.636 0-2.518-.441-2.518-.63v-1.05A5.73 5.73 0 0 0 10 8.625a5.71 5.71 0 0 0 2.519-.472v1.06Zm-6.853 4.723-2.1 2.099v-1.848H3v2.52a.283.283 0 0 0 .283.282h2.52v-.566H3.954l2.099-2.1-.388-.388Zm8.668 0 2.1 2.099v-1.848H17v2.53a.283.283 0 0 1-.283.283h-2.52v-.567h1.848l-2.099-2.099.388-.399ZM5.896 7.89l-.19-.524c-1.71.598-2.686 1.574-2.686 2.56 0 .987.976 1.963 2.687 2.582l.189-.535c-1.449-.514-2.32-1.29-2.32-2.099 0-.808.871-1.48 2.32-1.984Zm8.06-.073.179-.535C15.951 7.89 17 8.845 17 9.905c0 1.06-1.05 2.026-2.865 2.635l-.178-.525c1.553-.514 2.476-1.312 2.476-2.1 0-.786-.923-1.573-2.476-2.098Z" fill="#fff"/><defs><linearGradient id="a" x1="19.76" y1=".24" x2=".5" y2="19.5" gradientUnits="userSpaceOnUse"><stop stop-color="#527FFF"/><stop offset=".36" stop-color="#4662E4"/><stop offset="1" stop-color="#2E27AD"/></linearGradient></defs></svg>