<svg width="1em" height="1em" viewBox="0 0 17 16" fill="#4A4A4A" xmlns="http://www.w3.org/2000/svg"><path fill-rule="evenodd" clip-rule="evenodd" d="M6.854 0a.875.875 0 1 0 0 1.75h7.768c.07 0 .125.056.125.125v7.768a.875.875 0 0 0 1.75 0V1.875C16.497.839 15.657 0 14.622 0H6.854ZM3.24 3.614c0-.483.392-.875.875-.875h7.768c1.036 0 1.875.84 1.875 1.875v7.768a.875.875 0 1 1-1.75 0V4.614a.125.125 0 0 0-.125-.125H4.114a.875.875 0 0 1-.875-.875ZM.5 6.354c0-.483.392-.875.875-.875h8.768c.483 0 .875.392.875.875v8.768a.875.875 0 0 1-.875.875H1.375a.875.875 0 0 1-.875-.875V6.354Zm1.75.875v7.018h7.018V7.229H2.25Z"/></svg>