<svg width="1em" height="1em" viewBox="0 0 20 20" fill="#FF5252" xmlns="http://www.w3.org/2000/svg"><path fill-rule="evenodd" clip-rule="evenodd" d="M9.675 2.077a.727.727 0 0 1 .65 0l7.273 3.636a.727.727 0 0 1 0 1.301l-7.273 3.636a.727.727 0 0 1-.65 0L2.402 7.014a.727.727 0 0 1 0-1.3l7.273-3.637ZM4.354 6.364 10 9.187l5.646-2.823L10 3.54 4.354 6.364Zm-2.277 3.31a.727.727 0 0 1 .976-.324L10 12.823l6.947-3.473a.727.727 0 0 1 .65 1.3l-7.272 3.637a.727.727 0 0 1-.65 0l-7.273-3.636a.727.727 0 0 1-.325-.976Zm.976 3.312a.727.727 0 0 0-.65 1.3l7.272 3.637a.727.727 0 0 0 .65 0l7.273-3.636a.727.727 0 1 0-.65-1.301L10 16.46l-6.947-3.474Z"/></svg>