<svg width="1em" height="1em" viewBox="0 0 20 20" fill="#0078D7" xmlns="http://www.w3.org/2000/svg"><g clip-path="url(#a)"><path fill-rule="evenodd" clip-rule="evenodd" d="M12.64 11.27 9.91 9.71v-.07a.08.08 0 0 1 0-.07L12.58 8h.08l2.7 1.54a.13.13 0 0 1 0 .07.07.07 0 0 1 0 .07l-2.68 1.54-.04.05ZM12.21 15l-2.68-1.53a.08.08 0 0 1 0-.07v-3.09a.05.05 0 0 1 0-.06.06.06 0 0 1 .08 0l2.68 1.53s.05 0 .05.07v3.09a.08.08 0 0 1-.05.07h-.08V15Zm.8 0a.1.1 0 0 1 0-.07v-3.06a.1.1 0 0 1 0-.07l2.69-1.54h.08a.12.12 0 0 1 0 .08v3.06a.1.1 0 0 1 0 .07L13.05 15h-.04Zm-1.12-9h4.64V4.14h-13v8.76h1.18V6.85A.86.86 0 0 1 5.53 6h3l1.65-1h.08l1.65 1h-.02Zm2.74 11.09c-.51 1.75-.22 2 2.72 2V20h-10v-.92c2.94 0 3.61-.25 3.11-2H5.53a.86.86 0 0 1-.82-.86v-2.14H3.23a.85.85 0 0 1-.83-.85v-2.14H.83a.85.85 0 0 1-.83-.86V.86A.86.86 0 0 1 .83 0h13.54a.93.93 0 0 1 .92.86V3h1.48a1 1 0 0 1 .92.86V6h1.39a1 1 0 0 1 .92.86v9.37a1 1 0 0 1-.92.86h-4.45ZM19 15.91V7.14H6v8.75l13 .02ZM9.47 3h4.66V1.15h-13v8.78H2.4V3.85A.86.86 0 0 1 3.23 3h2.89l1.64-.94h.08L9.47 3Z"/></g><defs><clipPath id="a"><path d="M0 0h20v20H0z"/></clipPath></defs></svg>