<svg width="1em" height="1em" viewBox="0 0 20 20" fill="none" xmlns="http://www.w3.org/2000/svg"><path fill-rule="evenodd" clip-rule="evenodd" d="M6.6 6.098C6.6 4.387 8.122 3 10 3s3.4 1.387 3.4 3.098c0 .285-.254.516-.567.516-.313 0-.566-.231-.566-.516 0-1.141-1.015-2.065-2.267-2.065s-2.267.924-2.267 2.065c0 .68.362 1.285.922 1.662a.49.49 0 0 1 .178.633l-3.42 6.698c-.131.259-.468.371-.752.25-.284-.12-.407-.426-.275-.685l3.238-6.343C6.993 7.75 6.6 6.966 6.6 6.098Zm-3.29 6.606c.22.203.219.53-.004.73a1.971 1.971 0 0 0-.673 1.469c0 1.14 1.015 2.065 2.267 2.065s2.267-.925 2.267-2.066c0-.285.253-.516.566-.516H15.1c.313 0 .567.231.567.517 0 .285-.254.516-.567.516H8.253C7.983 16.884 6.585 18 4.9 18c-1.878 0-3.4-1.387-3.4-3.098 0-.861.387-1.641 1.01-2.202a.607.607 0 0 1 .8.004Zm7.143-6.916a.604.604 0 0 0-.793-.103.487.487 0 0 0-.113.722l5.1 6.195c.107.13.275.207.453.207 1.252 0 2.267.924 2.267 2.065 0 1.14-1.015 2.065-2.267 2.065a2.38 2.38 0 0 1-1.548-.556.606.606 0 0 0-.8.024.485.485 0 0 0 .026.73 3.576 3.576 0 0 0 2.322.834c1.878 0 3.4-1.387 3.4-3.097 0-1.621-1.367-2.951-3.107-3.086l-4.94-6Z" fill="#02558F"/><path fill-rule="evenodd" clip-rule="evenodd" d="M10 7.4c.72 0 1.305-.56 1.305-1.25S10.72 4.9 10 4.9s-1.304.56-1.304 1.25S9.28 7.4 10 7.4Zm5.104 8.6c.72 0 1.305-.56 1.305-1.25s-.584-1.25-1.305-1.25c-.72 0-1.304.56-1.304 1.25S14.384 16 15.104 16ZM6.21 14.75c0 .69-.584 1.25-1.305 1.25-.72 0-1.304-.56-1.304-1.25s.584-1.25 1.304-1.25c.72 0 1.305.56 1.305 1.25Z" fill="#28C78A"/></svg>