<svg width="1em" height="1em" viewBox="0 0 20 20" fill="#939393" xmlns="http://www.w3.org/2000/svg"><path d="M10 2c-4.373 0-8 3.627-8 8s3.627 8 8 8 8-3.627 8-8-3.627-8-8-8Zm3.947 10.88c.32.32.32.747 0 1.067a.815.815 0 0 1-.534.213.815.815 0 0 1-.533-.213L10 11.067l-2.88 2.88a.815.815 0 0 1-.533.213.815.815 0 0 1-.534-.213c-.32-.32-.32-.747 0-1.067L8.933 10l-2.88-2.88c-.32-.32-.32-.747 0-1.067.32-.32.747-.32 1.067 0L10 8.933l2.88-2.88c.32-.32.747-.32 1.067 0 .32.32.32.747 0 1.067L11.067 10l2.88 2.88Z"/></svg>