<svg width="1em" height="1em" viewBox="0 0 20 20" fill="#1A8AFF" xmlns="http://www.w3.org/2000/svg"><path fill-rule="evenodd" clip-rule="evenodd" d="M8.168 11.223a4.437 4.437 0 0 1 .883-1.69c-.177-.444-.088-.977.265-1.421l2.738-2.756c.707-.71 1.855-.8 2.561-.088.707.71.618 1.866-.088 2.577l-.088.089c.618.178 1.148.533 1.59.889a3.67 3.67 0 0 0-.177-4.8c-1.413-1.422-3.621-1.333-5.123.09L8.08 6.866c-1.236 1.245-1.236 3.022 0 4.178 0 .044.023.067.045.089.022.022.044.044.044.089ZM7.903 14.6c-.353.356-.795.534-1.325.622-.442 0-.883-.177-1.236-.533-.707-.711-.619-1.867.088-2.578l.971-.977a.863.863 0 0 0 0-1.245.85.85 0 0 0-1.236 0l-1.06.978c-1.413 1.422-1.501 3.733-.088 5.155.618.623 1.501.978 2.473.978h.088c.972 0 1.855-.444 2.561-1.067-.353-.444-.706-.977-.883-1.6l-.353.267Zm2.875-5.176A4 4 0 0 1 13 8.75a3.982 3.982 0 0 1 4 4 4 4 0 1 1-6.222-3.326Zm1.51 5.433 3.44-3.627a.186.186 0 0 0 .044-.24.187.187 0 0 0-.06-.062l-.303-.302a.196.196 0 0 0-.293 0l-2.88 3.04a.125.125 0 0 1-.152 0l-1.182-1.298a.195.195 0 0 0-.293 0l-.302.302a.257.257 0 0 0-.071.16.24.24 0 0 0 .07.151v.045l1.68 1.83a.178.178 0 0 0 .152.072.206.206 0 0 0 .15-.071Z"/></svg>