<svg width="1em" height="1em" viewBox="0 0 20 20" fill="#4A4A4A" xmlns="http://www.w3.org/2000/svg"><path fill-rule="evenodd" clip-rule="evenodd" d="M15.385 3c.34 0 .615.285.615.636a.626.626 0 0 1-.615.636H15.2C14.988 6.75 13.587 8.65 12.497 10c1.09 1.35 2.492 3.251 2.703 5.727h.184c.34 0 .616.285.616.637a.626.626 0 0 1-.615.636H4.615A.626.626 0 0 1 4 16.364c0-.352.275-.637.615-.637h.184C5.01 13.251 6.413 11.35 7.503 10 6.413 8.65 5.01 6.75 4.799 4.272h-.184A.626.626 0 0 1 4 3.636c0-.35.275-.636.615-.636h10.77Zm-1.693 1.274H6.308c.215 2.237 1.524 3.96 2.502 5.248l.053.068a.69.69 0 0 1 0 .82l-.053.07c-.978 1.287-2.288 3.01-2.502 5.247h7.384c-.216-2.237-1.525-3.96-2.502-5.248l-.053-.068a.69.69 0 0 1 0-.82l.052-.069c.978-1.288 2.287-3.011 2.503-5.248ZM10 11.4c.139 0 .252.115.252.257 0 .372.217.74.611 1.038.843.636 1.473 1.328 1.874 2.054a.264.264 0 0 1-.002.256.25.25 0 0 1-.217.128H7.483a.248.248 0 0 1-.217-.128.26.26 0 0 1-.003-.256c.401-.726 1.032-1.418 1.874-2.054.394-.298.61-.666.611-1.038 0-.141.113-.257.252-.257Zm1.152-4.667a.23.23 0 0 1 .19.1.238.238 0 0 1 .03.212 4.835 4.835 0 0 1-.867 1.504c-.176.21-.272.476-.272.75a.233.233 0 1 1-.465 0c0-.274-.097-.54-.272-.75a4.83 4.83 0 0 1-.867-1.504.235.235 0 0 1 .029-.213.231.231 0 0 1 .19-.099h2.304Z"/></svg>