<svg width="1em" height="1em" viewBox="0 0 21 20" fill="#4A4A4A" xmlns="http://www.w3.org/2000/svg"><g clip-path="url(#a)"><path d="m8.533 13.75 5-3.75-5-3.75v7.5ZM10.2 1.666A8.336 8.336 0 0 0 1.867 10c0 4.6 3.733 8.333 8.333 8.333S18.533 14.6 18.533 10 14.8 1.667 10.2 1.667Zm0 15A6.676 6.676 0 0 1 3.533 10 6.676 6.676 0 0 1 10.2 3.333 6.676 6.676 0 0 1 16.867 10a6.676 6.676 0 0 1-6.667 6.666Z"/></g><defs><clipPath id="a"><path transform="translate(.2)" d="M0 0h20v20H0z"/></clipPath></defs></svg>