<svg width="1em" height="1em" viewBox="0 0 20 20" fill="#1A8AFF" xmlns="http://www.w3.org/2000/svg"><path d="m15.906 6.506-7.411 8.335a.43.43 0 0 1-.145.116.405.405 0 0 1-.176.041.353.353 0 0 1-.187-.032.38.38 0 0 1-.148-.125l-3.612-4.217-.093-.1A.564.564 0 0 1 4 10.166a.533.533 0 0 1 .134-.343l.655-.715a.417.417 0 0 1 .642 0l2.582 3.031a.204.204 0 0 0 .071.063.19.19 0 0 0 .18 0 .204.204 0 0 0 .07-.063l6.207-6.976a.42.42 0 0 1 .144-.12.393.393 0 0 1 .499.12l.655.7a.453.453 0 0 1 .158.307.49.49 0 0 1-.09.336Z"/></svg>