<svg width="1em" height="1em" viewBox="0 0 100 60" fill="none" xmlns="http://www.w3.org/2000/svg"><g clip-path="url(#a)" fill-rule="evenodd" clip-rule="evenodd"><path d="M100 58V4.249l-9.094 11.629L68.432 4.713 47.96 18.5 25.292 9.328 1.848 22v36H100Z" fill="#EEE"/><path d="M89.807 11.543 100 0v5.34l-9.094 11.629L68.432 5.804 47.96 19.591 25.292 10.42 2 23.057V41.61l22.942-9.66 22.998 7.502 20.934-13.94L90.906 40.5l9.094-2v4.118l-9.094 2.26L68.432 30.5 47.96 44l-22.668-7.722L2 45.937V58h98v2H0V0h2v18.51L24.942 6.09l22.998 8.95L68.874.818l20.933 10.726Z" fill="#C4C4C4"/></g><defs><clipPath id="a"><path fill="#fff" d="M0 0h100v60H0z"/></clipPath></defs></svg>