<svg width="1em" height="1em" viewBox="0 0 689 354" xmlns="http://www.w3.org/2000/svg"><g fill="none" fill-rule="evenodd"><path fill="#D0D1D3" d="M-1 9h84v14H-1zm223 0h62v14h-62zM98 9h109v14H98z"/><path fill="#E9E9E9" d="M15 213h33v59H15zm552-89h33v107h-33zm-429 31h33v117h-33zm-63 48h33v69H75zm552-99h33v127h-33zm-429 83h33v85h-33zm184-27h33v101h-33zm-60-20h33v142h-33zm182 15h33v130h-33zm-244-1h33v128h-33zm184 14h33v117h-33z"/><path fill="#D0D1D3" d="M15 271h33v59H15zm552-58h33v117h-33zm-429 0h33v117h-33zm-63 48h33v69H75zm552-50h33v119h-33zm-429 34h33v85h-33zm184-16h33v101h-33zm-60-41h33v142h-33zm182 12h33v130h-33zm-244 3h33v127h-33zm184 10h33v117h-33z"/><path stroke="#D0D1D3" stroke-width="5" d="m15 186 77.163-21.424 61.993-40.574 60.675 28.28L276.825 132 337.5 92.315l60.675 34.95 61.994 19.364 60.675-19.364 61.993-34.95L660 78"/></g></svg>