<svg width="1em" height="1em" viewBox="0 0 691 382" xmlns="http://www.w3.org/2000/svg" fill="#D0D1D3"><path d="M12 75h90v14H12zm151 0h253v14H163zm411 0h95v14h-95zM12 21h90v14H12zm151 0h253v14H163zm411 0h95v14h-95zM12 129h90v14H12zm0 54h90v14H12zm0 54h90v14H12zm0 54h90v14H12zm0 54h90v14H12zm151-216h253v14H163zm0 54h253v14H163zm0 54h253v14H163zm0 54h253v14H163zm0 54h253v14H163zm411-216h95v14h-95zm0 54h95v14h-95zm0 54h95v14h-95zm0 54h95v14h-95zm0 54h95v14h-95zM441 21h111v14H441zm0 108h111v14H441zm0 108h111v14H441zm0-162h111v14H441zm0 108h111v14H441zm0 108h111v14H441zm0 54h111v14H441z" fill-rule="evenodd"/></svg>