<svg width="1em" height="1em" viewBox="0 0 20 20" fill="#4A4A4A" xmlns="http://www.w3.org/2000/svg"><path fill-rule="evenodd" clip-rule="evenodd" d="M8.036 17.984a.714.714 0 0 1-.539-.847l3.036-14.57a.7.7 0 0 1 .83-.551c.378.082.62.461.54.847L8.866 17.434a.7.7 0 0 1-.83.55ZM13.21 6.118a.74.74 0 0 1 1.01 0l3.572 3.401a.658.658 0 0 1 0 .962l-3.572 3.401a.74.74 0 0 1-1.01 0 .658.658 0 0 1 0-.962L16.276 10l-3.067-2.92a.658.658 0 0 1 0-.962Zm-7.428.03a.74.74 0 0 1 1.01 0 .658.658 0 0 1 0 .962l-3.067 2.92 3.067 2.92a.658.658 0 0 1 0 .962.74.74 0 0 1-1.01 0l-3.572-3.4a.658.658 0 0 1 0-.963l3.572-3.401Z"/></svg>