<svg width="1em" height="1em" viewBox="0 0 20 20" fill="#4A4A4A" xmlns="http://www.w3.org/2000/svg"><path fill-rule="evenodd" clip-rule="evenodd" d="M4.167 14.978v-1.136c.207.117.429.227.663.328 1.337.577 3.158.916 5.17.916s3.833-.34 5.17-.916c.234-.101.456-.21.663-.329v1.137c0 .095-.054.265-.297.492-.24.222-.617.456-1.137.667-1.037.422-2.554.723-4.399.723-1.845 0-3.361-.3-4.399-.723-.52-.211-.897-.445-1.137-.667-.243-.227-.297-.397-.297-.492Zm.297-2.92c-.243-.227-.297-.397-.297-.492v-1.138c.207.118.429.227.663.328 1.337.577 3.158.916 5.17.916s3.833-.339 5.17-.916c.234-.101.456-.21.663-.328v1.138c0 .095-.054.265-.297.491-.24.223-.617.457-1.137.668-1.037.422-2.554.723-4.399.723-1.845 0-3.361-.3-4.399-.723-.52-.211-.897-.445-1.137-.668Zm11.37-5.045v1.139c0 .095-.055.265-.298.492-.24.222-.617.456-1.137.667-1.037.422-2.554.723-4.399.723-1.845 0-3.361-.3-4.399-.723-.52-.211-.897-.445-1.137-.667-.243-.227-.297-.397-.297-.492V7.013c.207.118.429.228.663.329 1.337.577 3.158.916 5.17.916s3.833-.338 5.17-.915c.23-.1.453-.21.663-.33Zm-.298-1.785c.15-.139.227-.257.265-.349a1.043 1.043 0 0 0-.265-.349c-.24-.222-.617-.456-1.137-.667C13.361 3.44 11.845 3.14 10 3.14c-1.845 0-3.361.3-4.399.723-.52.211-.897.445-1.137.667-.15.14-.227.257-.265.35.038.091.116.21.265.348.24.223.617.456 1.137.668 1.038.422 2.554.722 4.399.722 1.845 0 3.361-.3 4.399-.722.52-.212.898-.445 1.137-.668Zm1.964-.206a2.22 2.22 0 0 0-.005-.142c.003-.047.005-.095.005-.144a.801.801 0 0 0-.162-.487 2.573 2.573 0 0 0-.52-.761c-.41-.426-.98-.783-1.648-1.072C13.833 1.84 12.012 1.5 10 1.5s-3.833.34-5.17.916c-.668.289-1.238.646-1.648 1.072-.22.229-.4.483-.52.76a.803.803 0 0 0-.162.488c0 .048.002.096.005.143a1.903 1.903 0 0 0-.005.143v9.956c0 .586.269 1.105.682 1.534.41.425.98.783 1.648 1.072 1.337.577 3.158.916 5.17.916s3.833-.34 5.17-.916c.668-.289 1.238-.646 1.648-1.072.413-.429.682-.948.682-1.534V5.022Z"/></svg>