<svg width="1em" height="1em" viewBox="0 0 20 20" fill="#4A4A4A" xmlns="http://www.w3.org/2000/svg"><path fill-rule="evenodd" clip-rule="evenodd" d="M7.5 2.5v3h5v-3h-5ZM7 1a1 1 0 0 0-1 1v4a1 1 0 0 0 1 1h2.4v1.692a1.4 1.4 0 0 1-1.4 1.4H7a2.6 2.6 0 0 0-2.6 2.6V13H2a1 1 0 0 0-1 1v4a1 1 0 0 0 1 1h6a1 1 0 0 0 1-1v-4a1 1 0 0 0-1-1H5.6v-.308a1.4 1.4 0 0 1 1.4-1.4h1c.804 0 1.523-.365 2-.938a2.594 2.594 0 0 0 2 .938h1a1.4 1.4 0 0 1 1.4 1.4V13H12a1 1 0 0 0-1 1v4a1 1 0 0 0 1 1h6a1 1 0 0 0 1-1v-4a1 1 0 0 0-1-1h-2.4v-.308a2.6 2.6 0 0 0-2.6-2.6h-1a1.4 1.4 0 0 1-1.4-1.4V7H13a1 1 0 0 0 1-1V2a1 1 0 0 0-1-1H7Zm5.5 13.5v3h5v-3h-5Zm-10 3v-3h5v3h-5Z"/></svg>