<svg width="1em" height="1em" viewBox="0 0 20 20" fill="#4A4A4A" xmlns="http://www.w3.org/2000/svg"><path fill-rule="evenodd" clip-rule="evenodd" d="m12.454 7.941.77-1.705 1.685-.765-1.685-.766L12.454 3l-.752 1.705L10 5.47l1.702.765.752 1.705Zm4.91-.823c-1.187 0-1.85 1.186-1.58 2.067l-2.904 2.931a1.656 1.656 0 0 0-.85 0l-2.087-2.1c.278-.88-.385-2.075-1.58-2.075-1.186 0-1.857 1.186-1.578 2.076l-3.731 3.747C2.178 13.492 1 14.159 1 15.353 1 16.259 1.736 17 2.636 17c1.187 0 1.85-1.186 1.58-2.067l3.722-3.755c.246.074.606.074.851 0l2.087 2.1c-.279.88.384 2.075 1.579 2.075 1.186 0 1.857-1.186 1.579-2.075l2.912-2.924c.876.272 2.054-.395 2.054-1.59 0-.905-.736-1.646-1.636-1.646Zm-13.91.823-.409 1.647-.409-1.647L1 7.53l1.636-.412.41-1.647.409 1.647 1.636.412-1.636.411Z"/></svg>