<svg width="1em" height="1em" viewBox="0 0 20 20" fill="#4A4A4A" xmlns="http://www.w3.org/2000/svg"><path d="M7.429 17.2c0 .44.385.8.857.8h3.428c.472 0 .857-.36.857-.8v-.8H7.43v.8ZM10 2C6.691 2 4 4.512 4 7.6c0 1.904 1.02 3.576 2.571 4.592V14c0 .44.386.8.858.8h5.142c.472 0 .858-.36.858-.8v-1.808C14.98 11.176 16 9.504 16 7.6 16 4.512 13.309 2 10 2Zm2.443 8.88-.729.48v1.84H8.286v-1.84l-.729-.48C6.4 10.128 5.714 8.904 5.714 7.6c0-2.208 1.92-4 4.286-4 2.366 0 4.286 1.792 4.286 4 0 1.304-.686 2.528-1.843 3.28Z"/></svg>