<svg width="1em" height="1em" viewBox="0 0 20 20" fill="#4A4A4A" xmlns="http://www.w3.org/2000/svg"><path fill-rule="evenodd" clip-rule="evenodd" d="M13.523 15.11C15.08 13.252 16.951 9.974 17 4.916v-.58a.255.255 0 0 0-.12-.22l-.01-.005C16.618 3.965 13.22 2 9.997 2 6.725 2 3.27 4.026 3.127 4.116a.253.253 0 0 0-.121.22c-.121 5.716 1.75 9.122 3.356 10.967 1.739 2.013 3.49 2.658 3.562 2.684a.146.146 0 0 0 .073.013.216.216 0 0 0 .096-.026l.015-.007c.18-.093 1.775-.907 3.415-2.857Zm1.975-10.036c-.085 4.56-1.773 7.458-3.124 9.071-.953 1.134-1.88 1.828-2.442 2.19-.552-.302-1.49-.918-2.435-2.012l-.003-.005C6.192 12.823 4.548 9.979 4.5 5.075c.361-.185.86-.423 1.446-.658 1.215-.487 2.69-.916 4.05-.916 1.359 0 2.834.429 4.051.917.587.235 1.087.472 1.45.657ZM9.386 16.651l.05-.025-.045.023-.005.002ZM9.13 6.853V5h1.75v1.853l-.437 4.17h-.875l-.438-4.17Zm1.75 5.559c0 .511-.392.926-.875.926s-.875-.414-.875-.926.392-.927.875-.927.875.415.875.927Z"/></svg>