<svg width="1em" height="1em" viewBox="0 0 20 20" fill="#4A4A4A" xmlns="http://www.w3.org/2000/svg"><path d="M16.705 2c-.43 0-1.032.02-1.666.077-1.27.119-2.734.332-3.643 1.24-.762.763-2.34 2.787-3.797 4.688-.289.375-.277.368-.543.717L5.99 8.664a2.47 2.47 0 0 0-2.054.91L2.64 11.162l-.64.813 1.007.194 2.035.407 2.383 2.382.407 2.035L8.045 18l.794-.64 1.589-1.297a2.469 2.469 0 0 0 .91-2.054l-.057-1.046c.36-.273.348-.267.736-.562 1.906-1.46 3.938-3.026 4.689-3.776.9-.902 1.102-2.388 1.22-3.662.119-1.273.059-2.363.059-2.363l-.02-.562-.562-.019S17.136 2 16.705 2Zm-.562 1.24c.247 0 .422.014.601.019.007.36.022.736-.058 1.589-.11 1.174-.468 2.482-.872 2.886-.552.551-2.655 2.225-4.553 3.68-1.063.817-2.129 1.63-3.197 2.441l-1.9-1.899c.255-.34 1.125-1.527 2.403-3.196 1.454-1.893 3.132-4.002 3.701-4.571.424-.424 1.718-.782 2.887-.891.328-.034.658-.053.988-.058Zm-2.829 2.188c-.692 0-1.24.567-1.24 1.26 0 .692.548 1.259 1.24 1.259a1.263 1.263 0 0 0 1.26-1.259 1.262 1.262 0 0 0-1.26-1.26ZM5.913 9.903l.232.02c-.373.494-.983 1.285-1.065 1.394l-.833-.174.639-.775a1.241 1.241 0 0 1 1.027-.465ZM4.499 13.12c-.531.53-.834 1.264-1.047 1.878a9.055 9.055 0 0 0-.31 1.124l-.193.91.911-.173s.494-.085 1.104-.291c.61-.206 1.345-.51 1.899-1.066l-.872-.871c-.276.276-.823.518-1.317.697.189-.516.465-1.101.697-1.336l-.872-.872Zm5.58.736.02.232a1.22 1.22 0 0 1-.447 1.027l-.794.64-.174-.833c.109-.081.9-.695 1.395-1.066Z"/></svg>