<svg width="1em" height="1em" viewBox="0 0 20 20" fill="#4A4A4A" xmlns="http://www.w3.org/2000/svg"><g clip-path="url(#a)"><path d="M5.636 9.273H2.727A.73.73 0 0 0 2 10c0 .4.327.727.727.727h2.91A.73.73 0 0 0 6.363 10a.73.73 0 0 0-.728-.727Zm1.797-2.866-.524-.523a.724.724 0 1 0-1.025 1.025l.516.516a.724.724 0 0 0 1.025 0 .722.722 0 0 0 .008-1.018ZM10 2a.725.725 0 0 0-.727.727v2.91c0 .4.327.727.727.727a.73.73 0 0 0 .727-.728V2.727A.73.73 0 0 0 10 2Zm4.116 3.89a.724.724 0 0 0-1.025 0l-.516.517A.724.724 0 1 0 13.6 7.433l.516-.517a.738.738 0 0 0 0-1.025Zm-.48 4.11c0 .407.328.727.728.727h2.909A.73.73 0 0 0 18 10a.73.73 0 0 0-.727-.727h-2.91a.73.73 0 0 0-.727.727ZM10 7.818A2.179 2.179 0 0 0 7.818 10 2.18 2.18 0 0 0 10 12.182 2.179 2.179 0 0 0 12.182 10 2.179 2.179 0 0 0 10 7.818Zm2.567 5.775.517.516a.724.724 0 1 0 1.025-1.025l-.516-.517a.724.724 0 0 0-1.026 0 .738.738 0 0 0 0 1.026Zm-6.683.516a.724.724 0 0 0 1.025 0l.516-.516A.724.724 0 1 0 6.4 12.567l-.516.517a.738.738 0 0 0 0 1.025ZM10 18a.725.725 0 0 0 .727-.727v-2.91a.73.73 0 0 0-.727-.727.73.73 0 0 0-.727.728v2.909c0 .4.327.727.727.727Z"/></g><defs><clipPath id="a"><path d="M0 0h20v20H0z"/></clipPath></defs></svg>