<svg width="1em" height="1em" viewBox="0 0 20 20" fill="none" xmlns="http://www.w3.org/2000/svg"><path fill-rule="evenodd" clip-rule="evenodd" d="M2.9 6.546a9.671 9.671 0 0 0-.65 3.5c0 1.205.222 2.397.65 3.5h14.2a9.695 9.695 0 0 0 .65-3.5 9.671 9.671 0 0 0-.65-3.5H2.9Z" fill="#fff"/><path fill-rule="evenodd" clip-rule="evenodd" d="M9.91 17.58a8.228 8.228 0 0 0 4.614-1.4 7.528 7.528 0 0 0 2.886-3.68h-15a7.528 7.528 0 0 0 2.886 3.68 8.228 8.228 0 0 0 4.614 1.4Z" fill="#4A4A4A"/><path fill-rule="evenodd" clip-rule="evenodd" d="M17.25 7.05c-.53-1.474-1.525-2.645-2.847-3.55-1.322-.905-2.905-1.35-4.528-1.35-1.623 0-3.053.445-4.375 1.35S3.28 5.576 2.75 7.05h14.5Z" fill="#28C78A"/><path fill-rule="evenodd" clip-rule="evenodd" d="M2 10.045c-.001 1.567.518 3.1 1.495 4.41.977 1.312 2.37 2.344 4.005 2.97V2.676c-1.635.626-3.026 1.656-4.003 2.965C2.52 6.95 1.999 8.48 2 10.045Z" fill="#FF5252"/><path d="M10 2.533a7.467 7.467 0 1 1 0 14.934 7.467 7.467 0 0 1 0-14.934ZM10 2a8 8 0 1 0 0 16 8 8 0 0 0 0-16Z" fill="#C4C4C4"/></svg>