<svg width="1em" height="1em" viewBox="0 0 20 20" fill="none" xmlns="http://www.w3.org/2000/svg"><path d="M10 18a8 8 0 1 0 0-16 8 8 0 0 0 0 16Z" fill="#28C78A"/><path d="M10 2.533a7.467 7.467 0 1 1 0 14.934 7.467 7.467 0 0 1 0-14.934ZM10 2a8 8 0 1 0 0 16 8 8 0 0 0 0-16Z" fill="#C4C4C4"/><path fill-rule="evenodd" clip-rule="evenodd" d="M9.7 5.09 3.118 9.767a.28.28 0 0 0-.087.102.296.296 0 0 0 .087.367L9.7 14.9a.508.508 0 0 0 .6 0l6.582-4.633a.28.28 0 0 0 .087-.102.296.296 0 0 0-.087-.366L10.3 5.09a.547.547 0 0 0-.6 0Z" fill="#FFF25E"/><path d="M10 13a3 3 0 1 0 0-6 3 3 0 0 0 0 6Z" fill="#1A8AFF"/><path fill-rule="evenodd" clip-rule="evenodd" d="M7.77 7.992s-.23.25-.29.382c.898-.058 2.32.069 3.16.348.84.28 1.74.716 2.36 1.278v-.205l-.02-.206a6.601 6.601 0 0 0-2.181-1.215c-.822-.272-2.149-.41-3.03-.382Z" fill="#fff"/></svg>