<svg width="1em" height="1em" viewBox="0 0 20 20" fill="none" xmlns="http://www.w3.org/2000/svg"><path d="M10 18a8 8 0 1 0 0-16 8 8 0 0 0 0 16Z" fill="#fff"/><path fill-rule="evenodd" clip-rule="evenodd" d="M2 10a7.334 7.334 0 0 0 1.084 3.835A7.143 7.143 0 0 0 6 16.5v-13a7.142 7.142 0 0 0-2.916 2.665A7.334 7.334 0 0 0 2 10Zm16 0a7.486 7.486 0 0 0-1.1-3.866A6.943 6.943 0 0 0 14 3.5v13a6.943 6.943 0 0 0 2.9-2.634A7.486 7.486 0 0 0 18 10Zm-5 .203L11.494 11l.38.797h-1.495V13h-.758v-1.203H8.126l.38-.797L7 10.203l.747-.405V9l1.506.798-.747-1.596h.747L10 7l.747 1.202h.747l-.747 1.596L12.253 9v.798l.747.405Z" fill="#FF5252"/><path d="M10 2.533a7.467 7.467 0 1 1 0 14.934 7.467 7.467 0 0 1 0-14.934ZM10 2a8 8 0 1 0 0 16 8 8 0 0 0 0-16Z" fill="#C4C4C4"/></svg>