<svg width="1em" height="1em" viewBox="0 0 20 20" fill="none" xmlns="http://www.w3.org/2000/svg"><path d="M10 18a8 8 0 1 0 0-16 8 8 0 0 0 0 16Z" fill="#FF5252"/><path d="M10 2.533a7.467 7.467 0 1 1 0 14.934 7.467 7.467 0 0 1 0-14.934ZM10 2a8 8 0 1 0 0 16 8 8 0 0 0 0-16Z" fill="#C4C4C4"/><path fill-rule="evenodd" clip-rule="evenodd" d="m7.694 6.5.64 1.983h2.064l-1.671 1.22.639 1.973-1.672-1.22-1.662 1.22.64-1.973L5 8.483h2.065l.63-1.983Zm4.602 4.957.04.784.747.198-.718.278.04.783-.483-.605-.727.278.423-.655-.492-.604.747.198.423-.655ZM15 10.506l-.777.01-.256-.744-.226.744-.767.02.63.446-.226.743.619-.466.63.446-.247-.733.62-.466Zm-1.347-2.003-.767-.11.688-.366-.128-.773.551.545.678-.367-.334.704.55.545-.766-.109-.335.694-.137-.763Z" fill="#FFF25E"/></svg>