<svg width="1em" height="1em" viewBox="0 0 20 20" fill="none" xmlns="http://www.w3.org/2000/svg"><path d="M10 18a8 8 0 1 0 0-16 8 8 0 0 0 0 16Z" fill="#fff"/><path fill-rule="evenodd" clip-rule="evenodd" d="M7.01 17.13V2.87c-1.512.683-2.777 1.708-3.66 2.965S2.15 8.532 2.15 10s.317 2.909 1.2 4.165c.883 1.257 2.148 2.282 3.66 2.965Z" fill="#1A8AFF"/><path fill-rule="evenodd" clip-rule="evenodd" d="M13.005 2.87v14.26c1.512-.683 2.778-1.708 3.66-2.965.884-1.256 1.085-2.697 1.085-4.165s-.201-2.908-1.084-4.165c-.883-1.257-2.149-2.282-3.66-2.965Z" fill="#FF5252"/><path d="M10.005 2.533a7.467 7.467 0 1 1 0 14.934 7.467 7.467 0 0 1 0-14.934Zm0-.533a8 8 0 1 0 0 16 8 8 0 0 0 0-16Z" fill="#C4C4C4"/></svg>