<svg width="1em" height="1em" viewBox="0 0 20 20" fill="none" xmlns="http://www.w3.org/2000/svg"><path d="M10 18a8 8 0 1 0 0-16 8 8 0 0 0 0 16Z" fill="#fff"/><path fill-rule="evenodd" clip-rule="evenodd" d="M3 6.51h13.74a7.495 7.495 0 0 0-2.762-3.282C12.758 2.427 11.46 2.25 10 2.25c-1.46 0-2.78.177-4 .978C4.78 4.03 3.581 5.17 3 6.51Z" fill="#FFA726"/><path fill-rule="evenodd" clip-rule="evenodd" d="M16.74 13.506H3c.581 1.34 1.78 2.48 3 3.282 1.22.801 2.54.962 4 .962s2.758-.16 3.978-.962a7.494 7.494 0 0 0 2.762-3.282Z" fill="#28C78A"/><path d="M10 2.533a7.467 7.467 0 1 1 0 14.934 7.467 7.467 0 0 1 0-14.934ZM10 2a8 8 0 1 0 0 16 8 8 0 0 0 0-16Z" fill="#C4C4C4"/><path fill-rule="evenodd" clip-rule="evenodd" d="M10 7a3 3 0 1 0 0 6 3 3 0 0 0 0-6Zm1.874 3c.004.26-.046.52-.15.759L11.161 10l.563-.759c.104.24.154.498.15.759Zm-1.3-1-.367-.85a1.85 1.85 0 0 1 1.299.747L10.575 9Zm-.78-.85-.37.85-.93-.103a1.85 1.85 0 0 1 1.298-.748ZM8.125 10a1.85 1.85 0 0 1 .15-.759l.552.759-.552.759a1.827 1.827 0 0 1-.15-.759Zm.368 1.15.931-.15.368.85a1.85 1.85 0 0 1-1.299-.747v.046Zm1.713.747.368-.897.93.103a1.848 1.848 0 0 1-1.298.748v.046Z" fill="#1A8AFF"/></svg>