<svg width="1em" height="1em" viewBox="0 0 20 20" fill="none" xmlns="http://www.w3.org/2000/svg"><path d="M10 18a8 8 0 1 0 0-16 8 8 0 0 0 0 16Z" fill="#fff"/><path d="M10.01 2.533a7.467 7.467 0 1 1 0 14.934 7.467 7.467 0 0 1 0-14.934Zm0-.533a8 8 0 1 0 .011 0h-.01Z" fill="#C4C4C4"/><path d="M10 13.13a3.13 3.13 0 1 0 0-6.26 3.13 3.13 0 0 0 0 6.26Z" fill="#FF5252"/><path d="M8.248 6.254 6.254 8.248l-.504-.493L7.755 5.75l.493.504ZM7.503 5.5 5.499 7.503l-.504-.504 2.004-2.004.504.504Zm-.756-.745L4.754 6.747l-.504-.493L6.254 4.25l.493.504Zm-.493 6.998 1.994 1.994-.493.503-2.005-2.004.504-.493Zm-.755.745.755.756-.504.493L4.995 13l.504-.504Zm1.248 1.249.756.755-.504.493-.745-.745.493-.503Zm-1.993-.493 1.993 1.993-.493.504-2.004-2.004.504-.493Zm10.492-6.506-.745-.745.504-.503.745.755-.504.493ZM13.998 5.5l-.745-.745.493-.504.755.745-.503.504Zm-.252 2.749L13 7.503l.504-.504.744.756-.503.493ZM12.497 7l-.745-.745.493-.504.756.745-.504.504Zm2.004.504L12.497 5.5l.504-.504L15.005 7l-.504.504ZM12.497 14.5l.756-.755.493.503-.745.756-.504-.504Zm1.249-1.248.755-.756.504.504-.756.745-.503-.493Zm-.493 1.993.745-.745.503.504-.755.745-.493-.504Zm1.248-1.248.745-.745.504.493-.745.755-.504-.503Zm-2.749-.252.745-.745.504.504-.756.744-.493-.503Zm1.249-1.249.745-.745.503.493-.744.756-.504-.504Z" fill="#02558F"/><path fill-rule="evenodd" clip-rule="evenodd" d="M9.997 13.15c.828 0 1.767-.39 2.353-1.034a2.95 2.95 0 0 0 .74-1.55c.085-.571.01-.985.01-.985a1.76 1.76 0 0 0-.713-.555 1.657 1.657 0 0 0-.885-.103 1.726 1.726 0 0 0-.823.372 1.968 1.968 0 0 0-.563.758c-.918 1.574-2.328.984-3.246 0 0 .92.31 1.62.88 2.186.57.567 1.479.91 2.247.911Z" fill="#1A8AFF"/></svg>