<svg width="1em" height="1em" viewBox="0 0 20 20" fill="none" xmlns="http://www.w3.org/2000/svg"><path d="M10 18a8 8 0 1 0 0-16 8 8 0 0 0 0 16Z" fill="#1A8AFF"/><path fill-rule="evenodd" clip-rule="evenodd" d="M17.75 8.467H8.978V2.25a7.324 7.324 0 0 0-2.358.753v5.464H2.428a8.823 8.823 0 0 0-.178 1.753v.667h4.37V17c.983.529 1.014.75 2.358.75v-6.863h8.772v-2.42Z" fill="#FFF25E"/><path d="M10 2.533a7.467 7.467 0 1 1 0 14.934 7.467 7.467 0 0 1 0-14.934ZM10 2a8 8 0 1 0 0 16 8 8 0 0 0 0-16Z" fill="#C4C4C4"/></svg>