<svg width="1em" height="1em" viewBox="0 0 20 20" fill="none" xmlns="http://www.w3.org/2000/svg"><path d="M10 18a8 8 0 1 0 0-16 8 8 0 0 0 0 16Z" fill="#fff"/><path fill-rule="evenodd" clip-rule="evenodd" d="M15.657 4.49C14.157 2.896 12.122 2 10 2s-4.157.896-5.657 2.49C2.843 6.084 2 8.246 2 10.5h15.9c0-2.254-.743-4.416-2.243-6.01Zm-8.94 2.17a2.833 2.833 0 0 1 .587-1.745 2.655 2.655 0 0 1 1.515-.973 2.269 2.269 0 0 0-.575-.073 2.65 2.65 0 0 0-1.787.878 2.849 2.849 0 0 0-.726 1.907c0 .708.26 1.39.726 1.907a2.65 2.65 0 0 0 1.787.878 3 3 0 0 0 .575-.06 2.667 2.667 0 0 1-1.513-.975 2.845 2.845 0 0 1-.59-1.744Zm3.747-1.609.505-.365h-.622l-.188-.61-.188.61h-.623l.505.365-.188.61.494-.378.493.378-.188-.61Zm-1.797.22.188.597h.622l-.505.378.188.61-.493-.379-.505.378.2-.61-.506-.377h.623l.188-.597Zm3.794.597h-.622l-.188-.597-.188.597h-.611l.493.378-.188.61.494-.379.505.378-.2-.61.505-.377ZM11.075 7.05l.188.61h.623l-.506.377.2.61-.505-.378-.493.378.188-.61-.494-.378h.611l.188-.609Zm-1.645.61-.188-.61-.188.61h-.622l.505.377-.2.61.505-.378.494.378-.188-.61.493-.378h-.61Z" fill="#FF5252"/><path d="M10 2.533a7.467 7.467 0 1 1 0 14.934 7.467 7.467 0 0 1 0-14.934ZM10 2a8 8 0 1 0 0 16 8 8 0 0 0 0-16Z" fill="#C4C4C4"/></svg>