<svg width="1em" height="1em" viewBox="0 0 20 20" fill="none" xmlns="http://www.w3.org/2000/svg"><path d="M10 18a8 8 0 1 0 0-16 8 8 0 0 0 0 16Z" fill="#FF5252"/><path fill-rule="evenodd" clip-rule="evenodd" d="M10 10V2.5A7.5 7.5 0 0 0 2.5 10H10Z" fill="#1A8AFF"/><path fill-rule="evenodd" clip-rule="evenodd" d="m8.52 6.39-.897-.384-.006-.02.473-.876-.983.16L7 4.26 6.28 5a1.4 1.4 0 0 1 1.337.986L7.61 6l.013.006A1.4 1.4 0 0 1 6.28 7.8a1.504 1.504 0 0 1-.492-.108A1.4 1.4 0 0 1 4.88 6.39a1.4 1.4 0 0 1 .575-1.121l.005.001v-.005A1.4 1.4 0 0 1 6.28 5l-.69-.73-.13.995-.005.004-.995-.189.484.9L4 6.39l.954.44-.434.88.953-.184.177.994.66-.69.69.69.13-1 1 .19-.48-.89.87-.43Zm-1.5 0a.74.74 0 1 1-1.48 0 .74.74 0 0 1 1.48 0Z" fill="#fff"/><path d="M10 2.533a7.467 7.467 0 1 1 0 14.934 7.467 7.467 0 0 1 0-14.934ZM10 2a8 8 0 1 0 0 16 8 8 0 0 0 0-16Z" fill="#C4C4C4"/></svg>