<svg width="1em" height="1em" viewBox="0 0 20 20" fill="none" xmlns="http://www.w3.org/2000/svg"><path d="M10 18a8 8 0 1 0 0-16 8 8 0 0 0 0 16Z" fill="#fff"/><path fill-rule="evenodd" clip-rule="evenodd" d="M16.5 5.572h-7V3.55h4.806c.147.12.31.245.478.374.63.485 1.35 1.039 1.716 1.648Zm1.25 4.178H9.5V7.583h7.974c.184.654.277 1.487.276 2.167ZM9.904 17.8a7.244 7.244 0 0 0 5.05-2.162h-10.1a7.2 7.2 0 0 0 5.05 2.162Zm6.857-4.173H3.143a7.24 7.24 0 0 1-.893-2.022h15.415a7.63 7.63 0 0 1-.904 2.022Z" fill="#FF5252"/><path d="m8.676 3.948.25.773-.663-.479-.65.479.249-.773L7.2 3.47h.814l.25-.784.26.784h.814l-.662.48Zm0 2.264.25.773-.663-.479-.65.48.249-.774-.662-.479h.814l.25-.783.26.783h.814l-.662.48Zm.25 3.037-.663-.479-.65.48.249-.74-.662-.48h.814l.25-.773.26.74h.814l-.662.512.25.74Zm-3.04-3.037.26.773-.661-.479-.663.48.261-.774-.662-.479h.847l.25-.783.249.783h.814l-.695.48Zm.26 3.037-.661-.479-.663.48.261-.74-.662-.48h.847l.25-.773.249.773h.814l-.695.48.26.74Zm-.303-5.78h.705l-.662.48.26.772-.661-.479-.663.479.218-.675a7.906 7.906 0 0 0-1.498 1.687h.228l-.424.305c-.065.109-.13.218-.184.327l.195.62-.369-.272a5.789 5.789 0 0 0-.25.599l.218.685h.814l-.673.512.25.773-.652-.479-.38.25a3.7 3.7 0 0 0-.065.697H10v-7.5a7.658 7.658 0 0 0-4.157 1.22Z" fill="#1A8AFF"/><path d="M10 2.533a7.467 7.467 0 1 1 0 14.934 7.467 7.467 0 0 1 0-14.934ZM10 2a8 8 0 1 0 0 16 8 8 0 0 0 0-16Z" fill="#C4C4C4"/></svg>