<svg width="1em" height="1em" viewBox="0 0 20 20" fill="none" xmlns="http://www.w3.org/2000/svg"><path d="M10 18a8 8 0 1 0 0-16 8 8 0 0 0 0 16Z" fill="#4A4A4A"/><path fill-rule="evenodd" clip-rule="evenodd" d="M9.93 17.997c2.14 0 4.194-.889 5.707-2.47 1.514-1.582 2.013-3.79 2.013-6.027 0-.997-2.142-.587-7.128 1.107-4.85 2.535-7.059 4.053-6.628 4.556a8.08 8.08 0 0 0 2.727 2.096c1.04.488 2.169.74 3.31.738Z" fill="#1A8AFF"/><path fill-rule="evenodd" clip-rule="evenodd" d="M17.913 9.234a8.817 8.817 0 0 0-1.9-4.275 8.04 8.04 0 0 0-3.744-2.556 7.62 7.62 0 0 0-4.45-.06 8.007 8.007 0 0 0-3.805 2.453C3.11 5.81 5.281 7.545 10.528 10c4.988-.213 7.45-.469 7.385-.766Z" fill="#FF5252"/><path fill-rule="evenodd" clip-rule="evenodd" d="m5.639 3.53 6.071 4.301h5.696l.354 2.135-.3 2.2h-5.75L5.585 16.51l-2.274-2.532L9.05 9.847l-5.739-3.9L5.639 3.53Z" fill="#fff"/><path fill-rule="evenodd" clip-rule="evenodd" d="M4.426 4.53 11.05 9l-.707.969.707.968-6.658 4.503-1.482-2.026L8.006 9.97 2.978 6.567 4.426 4.53Z" fill="#FFF25E"/><path fill-rule="evenodd" clip-rule="evenodd" d="m4.809 4.07 6.596 4.706h6.285l-.086 2.457h-6.199L4.776 15.95l-1.536-1.9L8.923 10 3.251 5.97l1.558-1.9Z" fill="#28C78A"/><path d="M10 2.533a7.467 7.467 0 1 1 0 14.934 7.467 7.467 0 0 1 0-14.934ZM10 2a8 8 0 1 0 0 16 8 8 0 0 0 0-16Z" fill="#C4C4C4"/></svg>