<svg xmlns="http://www.w3.org/2000/svg" width="1em" height="1em" viewBox="0 0 18 18"><g fill="#1A8AFF" fill-rule="evenodd"><path fill-rule="nonzero" d="M16.097 0H1.896A1.898 1.898 0 0 0 0 1.896v14.201c0 1.047.852 1.896 1.896 1.896h14.201a1.898 1.898 0 0 0 1.896-1.896V1.896A1.9 1.9 0 0 0 16.097 0zm.996 16.097a.999.999 0 0 1-.996.996H1.896a.999.999 0 0 1-.996-.996V1.896c0-.548.448-.996.996-.996h14.201a1 1 0 0 1 .996.996v14.201z"/><path fill-rule="nonzero" d="M4.276 4a1.277 1.277 0 0 0 0 2.551 1.276 1.276 0 0 0 0-2.551zm0 1.886a.61.61 0 1 1 .001-1.222.61.61 0 0 1-.001 1.222z"/><path d="M14.314 4.943H6.55a.333.333 0 0 0 0 .665h7.764a.333.333 0 0 0 0-.665zM4.276 7.439a.333.333 0 0 0 0 .665.61.61 0 1 1-.61.61.333.333 0 0 0-.666 0 1.277 1.277 0 0 0 2.551 0c0-.703-.572-1.275-1.275-1.275zm10.038.943H6.55a.333.333 0 0 0 0 .665h7.764a.333.333 0 0 0 0-.665z"/><path fill-rule="nonzero" d="M4.276 10.877a1.277 1.277 0 0 0 0 2.551 1.276 1.276 0 0 0 0-2.551zm0 1.886a.61.61 0 1 1 .001-1.222.61.61 0 0 1-.001 1.222z"/><path d="M14.304 11.844H6.539a.333.333 0 0 0 0 .665h7.765a.333.333 0 0 0 0-.665z"/></g></svg>