<svg width="1em" height="1em" viewBox="0 0 20 20" fill="#1A8AFF" xmlns="http://www.w3.org/2000/svg"><path d="M14.747 2.315a1.14 1.14 0 0 1 1.584.01l1.353 1.32c.424.45.424 1.154-.016 1.593l-1.7 1.698v7.413a.774.774 0 0 1-.668.767l-.105.007h-6.48l-2.49 2.633a.775.775 0 0 1-1.329-.418l-.007-.107-.018-2.108H2.774a.774.774 0 0 1-.767-.669L2 14.35V5.871c0-.392.291-.716.669-.767l.105-.007h9.19l1.595-1.588 1.188-1.194Zm-8.878 9.3a.774.774 0 0 1-.105-1.542l.105-.007h2.605l.088-1.243c.025-.188.1-.364.223-.532l.1-.124 1.526-1.523-6.863.001v6.93h2.09c.39 0 .713.288.767.664l.007.104.008.953 1.4-1.479a.774.774 0 0 1 .435-.232l.127-.01h6.038V8.48l-2.597 2.593a1.122 1.122 0 0 1-.672.323l-.04.001h-.002l-1.418.209h-.007l-.105.008H5.87Zm9.669-7.902-.882.888-4.568 4.547-.058.844.801-.117 5.448-5.44-.741-.722Z"/></svg>