<svg width="1em" height="1em" viewBox="0 0 20 20" fill="#1A8AFF" xmlns="http://www.w3.org/2000/svg"><path d="M14.29 3a2.71 2.71 0 0 1 2.705 2.55l.005.16v6.322a2.71 2.71 0 0 1-2.29 2.678A2.71 2.71 0 0 1 12.031 17H5.71A2.71 2.71 0 0 1 3 14.29V7.968A2.71 2.71 0 0 1 5.29 5.29a2.71 2.71 0 0 1 2.52-2.285L7.968 3h6.322Zm-2.258 4.065H5.71a.903.903 0 0 0-.904.903v6.322c0 .5.405.904.904.904h6.322a.903.903 0 0 0 .903-.904V7.968a.903.903 0 0 0-.903-.903Zm2.258-2.259H7.968a.903.903 0 0 0-.783.452h4.847a2.71 2.71 0 0 1 2.71 2.71v4.846a.904.904 0 0 0 .445-.676l.007-.106V5.71a.903.903 0 0 0-.798-.897l-.106-.007Z"/></svg>