<svg width="1em" height="1em" viewBox="0 0 20 20" fill="#4A4A4A" xmlns="http://www.w3.org/2000/svg"><path fill-rule="evenodd" clip-rule="evenodd" d="M15.964 4.628A2.345 2.345 0 0 0 13.734 3a2.34 2.34 0 0 0-2.231 1.628H3V6.03h8.503a2.345 2.345 0 0 0 2.23 1.628 2.341 2.341 0 0 0 2.231-1.628H17V4.628h-1.036ZM6.267 7.665a2.341 2.341 0 0 0-2.231 1.634H3v1.402h1.036a2.345 2.345 0 0 0 3.611 1.178c.401-.293.699-.705.85-1.178H17V9.299H8.497a2.345 2.345 0 0 0-2.23-1.634Zm6.084 5.123a2.341 2.341 0 0 1 1.382-.453 2.342 2.342 0 0 1 2.231 1.635H17v1.401h-1.036a2.345 2.345 0 0 1-3.611 1.179 2.345 2.345 0 0 1-.85-1.179H3v-1.4h8.503a2.34 2.34 0 0 1 .848-1.183Z"/></svg>