<svg width="1em" height="1em" viewBox="0 0 20 20" fill="#1A8AFF" xmlns="http://www.w3.org/2000/svg"><path d="M11.778 2c.876 0 1.595.682 1.661 1.548l.005.131v.56h2.778c.43 0 .778.35.778.783 0 .4-.297.73-.68.778l-.098.006H15.2l-.893 9.67-.018.135A1.67 1.67 0 0 1 12.647 17H7.354l-.135-.005a1.674 1.674 0 0 1-1.525-1.52l-.89-9.669H3.778A.78.78 0 0 1 3 5.022c0-.4.297-.729.68-.777l.098-.006h2.778v-.56c0-.883.676-1.607 1.536-1.674L8.222 2h3.556Zm1.858 3.806H6.367l.876 9.525.011.04a.111.111 0 0 0 .1.062h5.293l.04-.008a.112.112 0 0 0 .07-.094l.88-9.525ZM8.415 7.598a.78.78 0 0 1 .797.654l.01.098.17 4.475a.781.781 0 0 1-.747.813.78.78 0 0 1-.797-.655l-.01-.098-.17-4.474a.781.781 0 0 1 .747-.813Zm3.17 0a.78.78 0 0 1 .748.813l-.171 4.474-.01.098a.78.78 0 0 1-.797.655.781.781 0 0 1-.748-.813l.171-4.475.01-.098a.78.78 0 0 1 .797-.654Zm.193-4.03H8.222a.11.11 0 0 0-.105.076l-.006.035v.56h3.778v-.56a.112.112 0 0 0-.076-.106l-.035-.006Z"/></svg>