<svg xmlns="http://www.w3.org/2000/svg" width="1em" height="1em" viewBox="0 0 16 20" fill="#1A8AFF"><path fill-rule="evenodd" d="M12.167 7.333a.333.333 0 1 1 0 .667H3.833a.333.333 0 1 1 0-.667h8.334zm-8.334-2a.333.333 0 1 1 0-.666h3.334a.333.333 0 1 1 0 .666H3.833zM12.167 10a.333.333 0 1 1 0 .667H3.833a.333.333 0 1 1 0-.667h8.334zm0 2.667a.333.333 0 1 1 0 .666H3.833a.333.333 0 1 1 0-.666h8.334zm0 2.666a.333.333 0 1 1 0 .667H3.833a.333.333 0 1 1 0-.667h8.334zM10.97 0l4.862 4.862V20H.167V0H10.97zm.196 1.138v3.529h3.528l-3.528-3.529zM.833 19.333h14.334v-14H10.5V.667H.833v18.666z"/></svg>