<svg width="1em" height="1em" viewBox="0 0 20 20" fill="#1A8AFF" xmlns="http://www.w3.org/2000/svg"><path d="M16.033 4.5c.514 0 .931.41.931.917v9.166c0 .113-.02.222-.058.322a.672.672 0 0 1-.207.358.699.699 0 0 1-.296.16.916.916 0 0 1-.37.077H3.93a.942.942 0 0 1-.326-.057.698.698 0 0 1-.418-.184.68.68 0 0 1-.188-.71V5.417c0-.507.417-.917.932-.917h12.104Zm-4.323 6.478-1.256 1.325a.707.707 0 0 1-.95.064L9.43 12.3l-1.222-1.304-2.986 3.129h9.451l-2.963-3.147Zm3.857-4.063-2.9 3.056 2.9 3.08V6.915Zm-11.173.011v6.06L7.26 9.983 4.394 6.926ZM14.64 5.875H5.308l4.638 4.947 4.695-4.947Z"/></svg>