<svg width="1em" height="1em" viewBox="0 0 20 20" fill="#1A8AFF" xmlns="http://www.w3.org/2000/svg"><path fill-rule="evenodd" clip-rule="evenodd" d="m4.572 8 2.503 3.11-1.49.018c.112 2.31 1.819 4.022 4.212 4.022 1.735 0 3.212-.718 4.164-2.026l.146-.212 1.469 1.04C14.29 15.919 12.194 17 9.797 17c-3.374 0-5.864-2.532-5.99-5.85L2 11.17 4.572 8Zm5.631-5c3.374 0 5.864 2.532 5.99 5.85L18 8.83 15.428 12l-2.503-3.11 1.49-.018c-.111-2.31-1.819-4.022-4.212-4.022-1.735 0-3.212.717-4.164 2.026l-.146.212-1.469-1.041C5.71 4.082 7.805 3 10.203 3Z"/></svg>