<svg width="1em" height="1em" viewBox="0 0 20 20" fill="#4A4A4A" xmlns="http://www.w3.org/2000/svg"><path fill-rule="evenodd" clip-rule="evenodd" d="M17 4.867A1.867 1.867 0 0 0 15.133 3H4.867A1.867 1.867 0 0 0 3 4.867v10.266C3 16.164 3.836 17 4.867 17h10.266A1.867 1.867 0 0 0 17 15.133V4.867ZM4.867 4.633h10.266l.054.006c.103.025.18.117.18.228v10.266l-.007.054a.233.233 0 0 1-.227.18H4.867l-.054-.007a.233.233 0 0 1-.18-.227V4.867l.006-.054a.233.233 0 0 1 .228-.18ZM9 6h2v3h3v2h-3v3H9v-3H6V9h3V6Z"/></svg>