<svg width="1em" height="1em" viewBox="0 0 20 20" fill="#1A8AFF" xmlns="http://www.w3.org/2000/svg"><path fill-rule="evenodd" clip-rule="evenodd" d="M17.087 2a.908.908 0 0 1 .646.273.926.926 0 0 1-.004 1.302l-2.631 2.63c.98.856 1.909 1.976 2.764 3.325a.87.87 0 0 1 0 .939c-2.284 3.605-4.93 5.433-7.862 5.433-1.235 0-2.443-.341-3.593-1.014l-2.845 2.845a.91.91 0 0 1-1.296-.006.926.926 0 0 1 .005-1.302L16.438 2.268A.91.91 0 0 1 17.083 2h.004Zm-3.255 5.468-.968.969A3.19 3.19 0 0 1 13.278 10 3.282 3.282 0 0 1 10 13.279c-.544 0-1.071-.14-1.567-.416l-.705.705c.765.376 1.527.566 2.272.566 2.155 0 4.188-1.39 6.044-4.134-.69-1.018-1.433-1.868-2.212-2.532ZM10 4.098a6.91 6.91 0 0 1 2.41.452l.193.071-1.414 1.404-.07-.015A4.882 4.882 0 0 0 10 5.866c-2.155 0-4.189 1.39-6.044 4.134a14.89 14.89 0 0 0 1.335 1.7l.086.094-1.26 1.25-.093-.1a17.253 17.253 0 0 1-1.887-2.474.871.871 0 0 1 0-.94C4.422 5.927 7.067 4.098 10 4.098Zm0 2.623c.035 0 .069.005.102.01a.526.526 0 0 0 .056.006l.3.012-3.709 3.683-.013-.295-.006-.046A.656.656 0 0 1 6.722 10 3.282 3.282 0 0 1 10 6.721Z"/></svg>