<svg width="1em" height="1em" viewBox="0 0 20 20" fill="#1A8AFF" xmlns="http://www.w3.org/2000/svg"><path fill-rule="evenodd" clip-rule="evenodd" d="M8.354 2a.875.875 0 1 0 0 1.75h7.768c.07 0 .125.056.125.125v7.768a.875.875 0 1 0 1.75 0V3.875c0-1.036-.84-1.875-1.875-1.875H8.354ZM4.74 5.614c0-.483.392-.875.875-.875h7.768c1.036 0 1.875.84 1.875 1.875v7.768a.875.875 0 1 1-1.75 0V6.614a.125.125 0 0 0-.125-.125H5.614a.875.875 0 0 1-.875-.875ZM2 8.354c0-.483.392-.875.875-.875h8.768c.483 0 .875.392.875.875v8.768a.875.875 0 0 1-.875.875H2.875A.875.875 0 0 1 2 17.122V8.354Zm1.75.875v7.018h7.018V9.229H3.75Z"/></svg>