<svg width="1em" height="1em" viewBox="0 0 20 20" fill="red" xmlns="http://www.w3.org/2000/svg"><path d="M11.83 8.123H8.17V5.5c0-.453.193-.887.536-1.208.343-.32.809-.5 1.294-.5s.95.18 1.294.5c.343.32.536.755.536 1.208v2.623Zm-1.33 4.246v1.447a.416.416 0 0 1-.135.304.477.477 0 0 1-.325.125.477.477 0 0 1-.325-.125.415.415 0 0 1-.135-.304v-1.447a.88.88 0 0 1-.39-.415.805.805 0 0 1-.039-.55.858.858 0 0 1 .329-.46.963.963 0 0 1 .56-.177c.203 0 .4.062.56.178.16.114.276.276.329.458a.805.805 0 0 1-.04.551.88.88 0 0 1-.389.415Zm3.21-4.246V5.5a3.27 3.27 0 0 0-.274-1.335 3.463 3.463 0 0 0-.802-1.135 3.744 3.744 0 0 0-1.207-.76A3.95 3.95 0 0 0 10 2a3.853 3.853 0 0 0-2.609 1.043A3.354 3.354 0 0 0 6.331 5.5v2.623c-.245.002-.486.05-.71.14a1.86 1.86 0 0 0-.597.382 1.72 1.72 0 0 0-.394.567c-.09.212-.134.438-.13.665v4.368c-.004.228.04.454.13.665.09.212.224.405.394.568.17.163.373.293.597.383.224.09.465.137.71.139h7.339c.244-.002.485-.05.709-.14.224-.089.427-.22.597-.382a1.72 1.72 0 0 0 .393-.568c.09-.211.135-.437.13-.665V9.877a1.626 1.626 0 0 0-.13-.665 1.72 1.72 0 0 0-.393-.567 1.86 1.86 0 0 0-.597-.383 1.963 1.963 0 0 0-.71-.14h.04Z"/></svg>