<svg width="1em" height="1em" viewBox="0 0 20 20" fill="#1A8AFF" xmlns="http://www.w3.org/2000/svg"><path d="M12.777 3.497a1.831 1.831 0 0 1 2.166-.254c.69.395 1.04 1.192.867 1.958 1.049 1.068 1.92 2.933.268 5.81-1 1.744-.874 2.25-.502 3.754l.153.636a1.291 1.291 0 0 1-.492 1.342 1.34 1.34 0 0 1-.789.257c-.236 0-.472-.062-.68-.181L3.677 11.04a1.327 1.327 0 0 1-.667-1.3c.06-.52.414-.94.925-1.094l.634-.186c1.498-.432 2.001-.579 3.023-2.31 1.294-2.19 3.132-3.128 5.186-2.653Zm-6.346 9.72 3.693 2.074c-.374.676-1.117 1.094-1.936 1.094-1.202 0-2.18-.892-2.18-1.989 0-.389.126-.766.362-1.094l.061-.085Zm6.382-7.95c-1.76-.827-3.017.487-3.755 1.737C7.762 9.2 6.796 9.568 5.28 10.01l8.585 4.916c-.372-1.522-.533-2.537.736-4.748 1.036-1.806.95-3.162-.258-4.031-.36-.26-1.131-.693-1.529-.88Z"/></svg>