<svg width="1em" height="1em" viewBox="0 0 20 20" fill="#1A8AFF" xmlns="http://www.w3.org/2000/svg"><path d="M10.333 2A8.336 8.336 0 0 0 2 10.333c0 4.6 3.733 8.334 8.333 8.334s8.334-3.734 8.334-8.334S14.933 2 10.333 2ZM6.225 15.567c.358-.75 2.542-1.484 4.108-1.484 1.567 0 3.759.734 4.109 1.484A6.578 6.578 0 0 1 10.333 17a6.577 6.577 0 0 1-4.108-1.433Zm9.408-1.209c-1.191-1.45-4.083-1.941-5.3-1.941-1.216 0-4.108.491-5.3 1.941a6.625 6.625 0 0 1-1.366-4.025 6.675 6.675 0 0 1 6.666-6.666A6.676 6.676 0 0 1 17 10.333a6.625 6.625 0 0 1-1.367 4.025Zm-5.3-9.025A2.91 2.91 0 0 0 7.417 8.25a2.91 2.91 0 0 0 2.916 2.917A2.91 2.91 0 0 0 13.25 8.25a2.91 2.91 0 0 0-2.917-2.917Zm0 4.167c-.691 0-1.25-.558-1.25-1.25S9.642 7 10.333 7c.692 0 1.25.558 1.25 1.25s-.558 1.25-1.25 1.25Z"/></svg>