<svg width="1em" height="1em" viewBox="0 0 100 60" fill="#C4C4C4" xmlns="http://www.w3.org/2000/svg"><path fill-rule="evenodd" clip-rule="evenodd" d="M42.591 20.66c0 9.23 7.51 16.74 16.74 16.74 9.23 0 16.738-7.51 16.738-16.74 0-9.23-7.509-16.738-16.739-16.738S42.591 11.43 42.591 20.66Zm-3.93.01C38.66 9.271 47.933 0 59.33 0S80 9.272 80 20.67c0 11.397-9.272 20.669-20.67 20.669a20.56 20.56 0 0 1-12.49-4.213l-4.188 4.187a.902.902 0 0 1-.083.074c.072.343.11.695.11 1.053a5.084 5.084 0 0 1-1.5 3.62L28.74 58.5a5.088 5.088 0 0 1-3.62 1.5 5.088 5.088 0 0 1-3.62-1.5 5.085 5.085 0 0 1-1.5-3.619c0-1.367.532-2.653 1.5-3.62l12.44-12.44a5.086 5.086 0 0 1 3.62-1.5c.357 0 .71.038 1.052.11a.906.906 0 0 1 .074-.084l4.187-4.187a20.564 20.564 0 0 1-4.212-12.49Zm23.927-.71c-1.117 1.205-2.21 2.384-2.01 4.181h-3.6c-.352-2.373 1.038-3.918 2.242-5.258.844-.938 1.597-1.775 1.597-2.724 0-1.24-.84-1.989-2.16-1.989-1.139 0-2.009.576-2.848 1.383l-2.25-1.988C54.94 12.066 56.86 11 59.167 11c3.21 0 5.579 1.556 5.579 4.87 0 1.761-1.09 2.937-2.158 4.09Zm-1.291 8.504c0 1.44-1.08 2.536-2.52 2.536-1.439 0-2.519-1.095-2.519-2.536 0-1.44 1.08-2.536 2.52-2.536s2.519 1.095 2.519 2.536Z"/></svg>