<svg width="1em" height="1em" viewBox="0 0 20 20" fill="#1A8AFF" xmlns="http://www.w3.org/2000/svg"><path d="M17 4.335c0-.09-.048-.18-.12-.219C16.721 4.026 13.268 2 9.996 2S3.27 4.026 3.127 4.116a.253.253 0 0 0-.121.22c-.121 5.716 1.75 9.122 3.356 10.967 1.739 2.013 3.49 2.658 3.562 2.684a.146.146 0 0 0 .073.013.216.216 0 0 0 .096-.026c.073-.038 1.727-.838 3.43-2.864C15.08 13.252 16.951 9.974 17 4.916v-.58Zm-7.595.671h1.183v2.388c0 .71-.024 1.354-.072 1.935-.048.58-.109 1.161-.181 1.73h-.688a41.96 41.96 0 0 1-.182-1.73 23.505 23.505 0 0 1-.072-1.935c.012 0 .012-2.388.012-2.388Zm1.171 8.697a.732.732 0 0 1-.58.258.732.732 0 0 1-.579-.258.871.871 0 0 1-.217-.593.87.87 0 0 1 .217-.594.733.733 0 0 1 .58-.258c.241 0 .434.09.58.258a.871.871 0 0 1 .217.594.871.871 0 0 1-.218.593Z"/></svg>