<svg width="1em" height="1em" viewBox="0 0 20 20" fill="#1A8AFF" xmlns="http://www.w3.org/2000/svg"><path fill-rule="evenodd" clip-rule="evenodd" d="M10 4.087 5.259 6.418l-1.205 5.357L7.337 16h5.293l3.316-4.227-1.205-5.355L10 4.088Zm6.627 1.601 1.332 5.923c.106.395 0 .825-.245 1.148l-3.717 4.738c-.28.323-.63.503-1.052.503H7.02c-.421 0-.807-.18-1.052-.503L2.286 12.76c-.245-.323-.35-.753-.245-1.148l1.332-5.923c.105-.43.386-.754.736-.933l5.33-2.62c.35-.18.771-.18 1.122 0l5.33 2.62c.385.18.63.538.736.933Z"/></svg>