<svg width="1em" height="1em" viewBox="0 0 20 20" fill="#1A8AFF" xmlns="http://www.w3.org/2000/svg"><path fill-rule="evenodd" clip-rule="evenodd" d="m16.925 9.229-1.381-.234a.429.429 0 0 1-.355-.327 5.442 5.442 0 0 0-.578-1.384.44.44 0 0 1 0-.477l.812-1.15a.094.094 0 0 0 0-.113l-.962-.982a.084.084 0 0 0-.065 0h-.047l-1.138.814a.457.457 0 0 1-.486 0 5.416 5.416 0 0 0-1.418-.57.43.43 0 0 1-.327-.356l-.233-1.375a.077.077 0 0 0-.025-.056.075.075 0 0 0-.06-.018h-1.38a.074.074 0 0 0-.085.074L8.955 4.47a.459.459 0 0 1-.355.402 5.594 5.594 0 0 0-1.372.58.457.457 0 0 1-.495 0l-1.101-.88h-.056a.075.075 0 0 0-.056 0l-.99 1.001a.094.094 0 0 0 0 .113l.813 1.15a.459.459 0 0 1 0 .486A5.28 5.28 0 0 0 4.8 8.705a.43.43 0 0 1-.354.327l-1.372.234A.084.084 0 0 0 3 9.35v1.394a.084.084 0 0 0 .075.084l1.39.234a.457.457 0 0 1 .402.355c.13.485.324.95.578 1.384a.44.44 0 0 1 0 .486l-.812 1.141a.094.094 0 0 0 0 .112l.99.936a.102.102 0 0 0 .056 0h.056l1.148-.823a.438.438 0 0 1 .485-.019c.421.243.873.429 1.344.552a.428.428 0 0 1 .327.355l.233 1.384a.084.084 0 0 0 .084.075h1.335a.084.084 0 0 0 .084-.075l.233-1.384a.44.44 0 0 1 .327-.355 5.28 5.28 0 0 0 1.381-.58.456.456 0 0 1 .485 0l1.139.814a.103.103 0 0 0 .065 0l.98-.982a.074.074 0 0 0 .019-.087.075.075 0 0 0-.019-.026l-.812-1.15a.46.46 0 0 1 0-.486c.258-.432.453-.898.579-1.384a.43.43 0 0 1 .355-.328l1.381-.233a.084.084 0 0 0 .112-.038V9.322a.094.094 0 0 0-.075-.093ZM10 12.529a2.516 2.516 0 0 1-2.336-1.553A2.53 2.53 0 0 1 8.21 8.22a2.518 2.518 0 0 1 4.302 1.794 2.528 2.528 0 0 1-.738 1.776 2.518 2.518 0 0 1-1.773.74Z"/></svg>