<svg xmlns="http://www.w3.org/2000/svg" width="1em" height="1em" viewBox="0 0 20 20" fill="#1A8AFF"><path d="M6.5 15c-.827 0-1.5-.673-1.5-1.5S5.673 12 6.5 12s1.5.673 1.5 1.5S7.327 15 6.5 15zm0-2.25a.75.75 0 1 0 .002 1.502.75.75 0 0 0-.002-1.502zm8-8.75c.827 0 1.5.673 1.5 1.5S15.327 7 14.5 7 13 6.327 13 5.5 13.673 4 14.5 4zm0 2.25a.75.75 0 1 0-.002-1.502.75.75 0 0 0 .002 1.502zM6.5 16A2.503 2.503 0 0 1 4 13.5C4 12.122 5.122 11 6.5 11S9 12.122 9 13.5 7.878 16 6.5 16zm0-4.375c-1.034 0-1.875.84-1.875 1.875 0 1.034.84 1.875 1.875 1.875 1.034 0 1.875-.84 1.875-1.875 0-1.034-.84-1.875-1.875-1.875zm13.229.68-.008.034c-.097.404-.218.8-.363 1.184-.001.003 0 .007-.002.01-.034.089-.07.175-.106.263l-.045.11a9.951 9.951 0 0 1-1.762 2.77c-.004.006-.012.008-.017.013-.15.166-.306.327-.467.483l-.04.037a9.731 9.731 0 0 1-.736.642l-.147.116a9.737 9.737 0 0 1-.27.196c-.057.04-.113.083-.171.122a9.644 9.644 0 0 1-.415.267c-.074.044-.15.086-.224.128-.08.046-.159.092-.24.136-.024.012-.047.027-.071.04l-.028.01A9.938 9.938 0 0 1 10 20a9.954 9.954 0 0 1-2.868-.421c-.004-.001-.008 0-.012-.002l-.035-.012a9.964 9.964 0 0 1-.532-.178c-.068-.024-.134-.053-.201-.079-.098-.039-.196-.077-.293-.119a9.587 9.587 0 0 1-.315-.142l-.135-.065a9.951 9.951 0 0 1-4.589-4.587l-.068-.143a9.934 9.934 0 0 1-.265-.616l-.074-.187a9.776 9.776 0 0 1-.18-.538l-.01-.031v-.007A9.962 9.962 0 0 1 0 10c0-2.419.864-4.64 2.299-6.37.005-.008.008-.017.014-.024a10.02 10.02 0 0 1 1.506-1.462l.002-.002.012-.009c.12-.094.242-.186.367-.275l.023-.017c.058-.041.117-.08.177-.12.011-.009.023-.016.034-.024.114-.076.228-.15.344-.22l.085-.052.165-.099c.047-.027.095-.052.143-.078l.122-.067.139-.074.059-.032.014-.004.048-.024.173-.085c.071-.034.143-.065.215-.097.074-.033.147-.067.221-.098L6.3.713A9.907 9.907 0 0 1 7.845.237L7.867.23A9.97 9.97 0 0 1 8.27.153l.028-.006h.003a9.938 9.938 0 0 1 5.58.637l.016.004a9.96 9.96 0 0 1 2.539 1.567 10.09 10.09 0 0 1 2.776 3.748l.004.017a9.946 9.946 0 0 1 .626 5.64v.006l-.006.027a9.653 9.653 0 0 1-.107.511zm-3.382 4.53.036-.035a9.15 9.15 0 0 0 .364-.364 2.15 2.15 0 0 1-.414-1.27 2.17 2.17 0 0 1 2.492-2.142c.136-.392.247-.794.328-1.204a1.543 1.543 0 0 1-.379-.805l-.054-.348h-.592l-.097.506c-.1.52-.453.953-.942 1.155a1.567 1.567 0 0 1-1.483-.15l-.427-.29-.419.42.209.284c.32.437.393.999.195 1.503a1.565 1.565 0 0 1-1.166.97l-.331.063v.592l.348.054c.536.083.985.428 1.202.925.136.312.166.65.094.97l.153-.109c.054-.04.108-.078.162-.119.054-.04.107-.083.16-.126.07-.055.14-.11.207-.167l.098-.085a9.21 9.21 0 0 0 .256-.228zm2.095-2.867.018-.039c.04-.086.078-.173.115-.26a1.502 1.502 0 0 0-1.372 2.251 9.447 9.447 0 0 0 1.239-1.952zm-3.775-4.635a4.017 4.017 0 0 0 3.888-3.06 9.34 9.34 0 0 0-1.054-1.82l-.028-.038a9.416 9.416 0 0 0-.209-.266l-.071-.09c-.054-.065-.11-.128-.166-.191-.043-.05-.085-.1-.129-.148l-.055-.059a9.448 9.448 0 0 0-.49-.49l-.073-.07-.143-.124-.196-.17-.087-.068a9.19 9.19 0 0 0-.27-.212c-.01-.009-.022-.016-.033-.025a9.35 9.35 0 0 0-1.823-1.056 4.016 4.016 0 0 0-3.061 3.887c0 2.206 1.794 4 4 4zM7.743.945c-.223.055-.442.12-.659.19l-.065.023c-.21.07-.417.148-.621.233.371.308.602.767.602 1.276 0 .919-.748 1.666-1.667 1.666A1.665 1.665 0 0 1 3.73 3.097l-.135.123a9.56 9.56 0 0 0-.542.555l-.1.115a1.3 1.3 0 0 1-.17 1.114l-.12.178.256.256.182-.133c.368-.27.841-.332 1.266-.165.425.167.73.534.816.983l.041.21h.362l.011-.073c.07-.46.37-.843.802-1.021.431-.179.913-.12 1.29.155l.058.044.256-.256-.12-.178a1.316 1.316 0 0 1-.117-1.272c.182-.418.56-.71 1.012-.779L9 2.92v-.362l-.21-.04a1.318 1.318 0 0 1-.983-.816 1.319 1.319 0 0 1-.064-.756zM4.337 2.59a1.001 1.001 0 1 0 1.997.076.993.993 0 0 0-.656-.935c-.064.033-.127.071-.19.107-.146.08-.29.161-.432.25l-.026.016c-.068.043-.134.09-.202.135a9.762 9.762 0 0 0-.411.288c-.028.02-.053.042-.08.063zm.035 6.114a5.297 5.297 0 0 0-3.289 4.055v.002c.052.165.108.327.168.487.027.075.058.149.087.222a9.146 9.146 0 0 0 .28.63 9.395 9.395 0 0 0 4.28 4.28l.106.052a9.39 9.39 0 0 0 .524.228c.074.03.147.06.222.088.16.06.322.116.486.167h.003a5.298 5.298 0 0 0 3.96-3.062c.003-.007.002-.015.005-.022l.011-.016A5.34 5.34 0 0 0 4.432 8.68c-.01.006-.019.015-.03.02-.01.004-.02.002-.03.005zm4.202 10.52c.465.071.941.108 1.426.108a9.28 9.28 0 0 0 4.184-.994l.342-.504a.9.9 0 0 0 .08-.87.901.901 0 0 0-.692-.532l-.631-.097a.333.333 0 0 1-.283-.33v-1.153c0-.16.113-.298.27-.328l.602-.115a.9.9 0 0 0 .672-.558.9.9 0 0 0-.113-.866l-.378-.515a.334.334 0 0 1 .034-.433l.815-.816a.334.334 0 0 1 .423-.04l.655.444a.89.89 0 0 0 .854.087.891.891 0 0 0 .542-.665l.15-.777a.333.333 0 0 1 .327-.271h1.153a.33.33 0 0 1 .32.257c.003-.086.007-.171.007-.257 0-.959-.145-1.884-.415-2.755-.189.417-.434.8-.729 1.14l.249.248a.333.333 0 1 1-.472.471l-.25-.25A4.668 4.668 0 0 1 15 9.985v.348a.333.333 0 1 1-.667 0v-.35a4.64 4.64 0 0 1-2.718-1.127l-.248.248a.332.332 0 0 1-.471 0 .333.333 0 0 1 0-.471l.248-.249a4.64 4.64 0 0 1-1.127-2.718h-.35a.333.333 0 1 1 0-.666h.348a4.668 4.668 0 0 1 1.131-2.716l-.25-.25a.333.333 0 1 1 .471-.472l.248.248c.34-.295.723-.54 1.14-.728A9.303 9.303 0 0 0 8.544.781l-.035.047a.645.645 0 0 0-.082.629.645.645 0 0 0 .488.405l.481.092c.157.03.27.168.27.328v.923c0 .164-.12.304-.283.33l-.505.077a.645.645 0 0 0-.502.386.647.647 0 0 0 .058.632l.275.406c.09.133.073.31-.04.423l-.653.652a.333.333 0 0 1-.432.034l-.29-.213a.65.65 0 0 0-.64-.077.65.65 0 0 0-.398.507l-.055.355a.333.333 0 0 1-.33.283H4.95a.334.334 0 0 1-.328-.27l-.092-.481a.646.646 0 0 0-.406-.488.645.645 0 0 0-.628.082l-.412.302a.333.333 0 0 1-.433-.034l-.653-.652a.32.32 0 0 1-.075-.126A9.272 9.272 0 0 0 .667 10c0 .485.037.961.109 1.426A5.943 5.943 0 0 1 3.85 8.202l-.162-.414a.333.333 0 1 1 .622-.242l.162.418a6.04 6.04 0 0 1 1.86-.297c.75 0 1.464.144 2.126.396l.236-.532a.334.334 0 0 1 .61.271l-.236.531a6.032 6.032 0 0 1 2.721 2.854l.423-.164a.333.333 0 0 1 .241.621l-.42.163a5.97 5.97 0 0 1 .3 1.86c0 .749-.137 1.467-.386 2.13l.521.232a.333.333 0 1 1-.271.609l-.524-.233a5.941 5.941 0 0 1-3.1 2.82z"/></svg>