<svg width="1em" height="1em" viewBox="0 0 20 20" fill="#1A8AFF" xmlns="http://www.w3.org/2000/svg"><path fill-rule="evenodd" clip-rule="evenodd" d="M10 4c2.932 0 5.578 1.858 7.862 5.522a.896.896 0 0 1 0 .955C15.578 14.142 12.932 16 10 16c-2.933 0-5.578-1.858-7.863-5.522a.896.896 0 0 1 0-.955C4.422 5.858 7.067 4 10 4Zm0 1.797c-2.155 0-4.189 1.414-6.043 4.203C5.81 12.79 7.845 14.203 10 14.203c2.155 0 4.188-1.414 6.044-4.203C14.188 7.21 12.155 5.797 10 5.797Zm0 .87c1.808 0 3.279 1.495 3.279 3.333s-1.47 3.333-3.278 3.333S6.722 11.838 6.722 10s1.47-3.333 3.279-3.333Z"/></svg>