<svg width="1em" height="1em" viewBox="0 0 20 20" fill="#1A8AFF" xmlns="http://www.w3.org/2000/svg"><path fill-rule="evenodd" clip-rule="evenodd" d="M4.215 4.07a.146.146 0 0 0-.146.145v9.528c0 .08.066.146.146.146h1.507V6.938c0-.672.544-1.216 1.216-1.216h6.95V4.215a.146.146 0 0 0-.145-.146H4.215Zm0 10.888h1.507v.827c0 .67.544 1.215 1.216 1.215h8.847c.67 0 1.215-.544 1.215-1.215V6.938c0-.672-.544-1.216-1.215-1.216h-.827V4.215c0-.67-.544-1.215-1.215-1.215H4.215C3.545 3 3 3.544 3 4.215v9.528c0 .671.544 1.215 1.215 1.215Zm2.723-8.166a.146.146 0 0 0-.146.146v8.847c0 .08.065.146.146.146h8.847c.08 0 .146-.066.146-.146V6.938a.146.146 0 0 0-.146-.146H6.938Zm1.7 1.653a.535.535 0 0 0 0 1.069h5.445a.535.535 0 1 0 0-1.07H8.64Zm-.534 4.958c0-.296.24-.535.535-.535h3.403a.535.535 0 0 1 0 1.07H8.639a.535.535 0 0 1-.535-.535Zm.535-2.747a.535.535 0 1 0 0 1.07h5.444a.535.535 0 1 0 0-1.07H8.64Z"/></svg>