<svg width="1em" height="1em" viewBox="0 0 20 20" fill="#4A4A4A" xmlns="http://www.w3.org/2000/svg"><path fill-rule="evenodd" clip-rule="evenodd" d="M17.702 2.307A1.02 1.02 0 0 0 16.975 2h-.004c-.274 0-.532.107-.727.302L2.304 16.239a1.04 1.04 0 0 0-.005 1.464c.187.19.443.29.701.297h8.162c0-1-.826-1.808-1.846-1.808H7.917v-2.645l4.141-4.14.814-.326L17 7.429l-2.116-.847 2.813-2.812a1.042 1.042 0 0 0 .005-1.463ZM6.244 15.22l-.971.971h.97v-.971Zm2.5-11.098L11.5 5.227 8.745 7.982V4.123Zm-.826-1.305v5.99l-1.674 1.674V2.818c0-.453.376-.818.837-.818.462 0 .837.366.837.818Z"/></svg>