<svg width="1em" height="1em" viewBox="0 0 20 20" fill="#1A8AFF" xmlns="http://www.w3.org/2000/svg"><path fill-rule="evenodd" clip-rule="evenodd" d="m12.366 3.283-2.361 2.376-2.37-2.376a.951.951 0 0 0-1.354 0 .967.967 0 0 0 0 1.362l3.042 3.072a.951.951 0 0 0 1.354 0l3.042-3.072a.967.967 0 0 0 0-1.362.951.951 0 0 0-1.353 0Zm0 13.434-2.361-2.376-2.37 2.376a.951.951 0 0 1-1.354 0 .967.967 0 0 1 0-1.362l3.042-3.072a.951.951 0 0 1 1.354 0l3.042 3.072a.967.967 0 0 1 0 1.362.951.951 0 0 1-1.353 0Z"/></svg>