<svg width="1em" height="1em" viewBox="0 0 20 20" fill="#4A4A4A" xmlns="http://www.w3.org/2000/svg"><path fill-rule="evenodd" clip-rule="evenodd" d="M12.257 3.823a2.637 2.637 0 0 0-2.64 2.633 2.637 2.637 0 0 0 2.64 2.633 2.637 2.637 0 0 0 2.64-2.633 2.637 2.637 0 0 0-2.64-2.633ZM7.79 6.456C7.79 3.995 9.79 2 12.258 2a4.462 4.462 0 0 1 4.469 4.456c0 1.101-.4 2.109-1.065 2.887 1.497 1.528 2.588 4.247 2.588 7.745a.913.913 0 0 1-.914.912H7.18a.913.913 0 0 1-.914-.912c0-3.465 1.205-6.13 2.666-7.657A4.432 4.432 0 0 1 7.79 6.456Zm4.468 4.455a4.46 4.46 0 0 0 1.944-.442c1.015.937 2.014 2.867 2.192 5.708H8.126c.197-2.761 1.273-4.686 2.298-5.657a4.45 4.45 0 0 0 1.833.392ZM5.173 7.29c.022-1.45 1.016-2.041 1.468-2.048.446-.007.814-.402.821-.881.007-.48-.35-.862-.796-.855-1.344.022-3.074 1.402-3.11 3.81-.018 1.218.522 2.13 1.096 2.748-1.147.896-1.838 2.162-2.247 3.237a11.385 11.385 0 0 0-.644 2.608l-.005.048-.002.015v.007a.892.892 0 0 0 .2.652.759.759 0 0 0 .585.272l2.215-.022c.447-.003.817-.395.828-.874.01-.48-.343-.865-.79-.861l-1.267.014a9.38 9.38 0 0 1 .374-1.245c.454-1.191 1.22-2.396 2.498-2.944a.898.898 0 0 0 .526-.751.857.857 0 0 0-.391-.813c-.55-.332-1.374-1.076-1.359-2.117Z"/></svg>