<svg width="1em" height="1em" viewBox="0 0 20 20" fill="#1A8AFF" xmlns="http://www.w3.org/2000/svg"><path fill-rule="evenodd" clip-rule="evenodd" d="m5.8 4.211-.737 1.106.737 1.106h6.586V4.211H5.8ZM4.068 5.25a.471.471 0 0 1 .068-.182l.57-.856H4.24l-.737 1.106.736 1.106h.469l-.57-.854a.477.477 0 0 1-.066-.164.504.504 0 0 1-.003-.105h-.001a.219.219 0 0 1 0-.05ZM15.2 11.106 15.937 10l-.738-1.106H7.573v2.212H15.2Zm1.662-.854-.569.854h.467L17.498 10l-.737-1.106h-.468l.569.855a.45.45 0 0 1 .067.167l.004.134a.461.461 0 0 1-.07.202Zm-6.297-2.268h-.13v-.65h.13v.65Zm0 4.683h-.13v-.651h.13v.65ZM5.8 15.789h6.586v-2.212H5.8l-.737 1.106.737 1.106Zm-1.664-1.356.57-.856H4.24l-.737 1.106.736 1.106h.469l-.57-.854a.477.477 0 0 1-.066-.164l-.004-.138a.472.472 0 0 1 .07-.2Zm6.429-11.132v-.325c0-.072-.13-.072-.13 0V3.3h.13Zm0 13.788h-.13v-.39h.13v.39Zm6.817-8.901 1.041 1.56a.454.454 0 0 1 .001.504l-1.042 1.562a.455.455 0 0 1-.378.202h-5.528v.65h1.365c.25 0 .455.205.455.456v3.122c0 .25-.204.455-.455.455h-1.365v.846c0 .25-.205.455-.455.455H9.979a.456.456 0 0 1-.455-.455v-.846H3.997a.458.458 0 0 1-.38-.201l-1.04-1.562a.457.457 0 0 1 0-.505l1.04-1.561a.456.456 0 0 1 .38-.203h5.527v-.651H7.118a.456.456 0 0 1-.455-.455V8.439c0-.25.204-.455.455-.455h2.406v-.65H3.997a.458.458 0 0 1-.38-.202L2.577 5.57a.457.457 0 0 1 0-.505l1.04-1.561a.456.456 0 0 1 .38-.203h5.527v-.325a.976.976 0 0 1 1.952 0V3.3h1.365c.25 0 .455.205.455.455v3.122c0 .25-.204.455-.455.455h-1.365v.651h5.528a.45.45 0 0 1 .378.204Zm-5.75 6.392c0-.28-.203-.508-.453-.508H6.283c-.25 0-.453.228-.453.508s.203.506.453.506h4.896c.25 0 .453-.227.453-.506ZM15.586 10c0-.28-.205-.507-.455-.507h-.52c-.251 0-.456.227-.456.507s.205.508.455.508h.52c.251 0 .456-.228.456-.508Zm-1.457 0c0-.28-.203-.507-.452-.507H8.78c-.25 0-.454.227-.454.507s.203.508.454.508h4.896c.25 0 .452-.228.452-.508Zm-2.497-4.786c0-.28-.203-.508-.453-.508H6.283c-.25 0-.453.228-.453.508s.203.506.453.506h4.896c.25 0 .453-.227.453-.506Z"/></svg>