<svg width="1em" height="1em" viewBox="0 0 20 20" fill="none" xmlns="http://www.w3.org/2000/svg"><path fill-rule="evenodd" clip-rule="evenodd" d="M17.119 9.051c.285-.507 1.185-2.339 0-3.849-1.185-1.509-3.283-1.341-4.182-.855-.41-1.143-1.73-2.989-4.937-2.838-1.47.069-2.73.603-3.77 1.81-1.043 1.206-1.563 2.663-1.563 4.368 0 .121.007.294.02.52-.805.434-1.454 1.091-1.947 1.972-.493.881-.74 1.853-.74 2.915C0 14.582.355 18.5 5.473 18.5h9.147c4.312 0 5.38-2.823 5.38-4.958 0-2.79-1.172-4.208-2.881-4.49Z" fill="#1A8AFF"/><path d="M6.5 14.5h1.336v-3.295c.344-.332.59-.507.973-.507.452 0 .649.243.649.965V14.5h1.346v-3.003c0-1.209-.452-1.94-1.504-1.94-.668 0-1.14.341-1.523.692l.06-.897V7.646H6.5V14.5Zm6.243-5.577c.443 0 .757-.292.757-.711 0-.42-.314-.712-.757-.712-.442 0-.756.292-.756.712 0 .419.314.711.756.711Zm-.668 5.577V9.674h1.337V14.5h-1.337Z" fill="#fff"/></svg>