<svg width="1em" height="1em" viewBox="0 0 20 20" fill="#A9D8FC" xmlns="http://www.w3.org/2000/svg"><path fill-rule="evenodd" clip-rule="evenodd" d="M4.912 6.306C6.252 3.754 8.915 2 12.01 2 16.411 2 20 5.573 20 10.006a7.984 7.984 0 0 1-7.99 7.99 7.962 7.962 0 0 1-6.666-3.588h2.839a.926.926 0 0 0 0-1.85H4.439a7.09 7.09 0 0 0 .888 1.834H.925a.926.926 0 0 1 0-1.85h3.503c-.14-.41-.25-.835-.313-1.26h4.067a.926.926 0 0 0 0-1.85H4.035a5.94 5.94 0 0 0-.016.287c-.004.092-.008.188-.016.287 0 .431.048.862.112 1.276H.925a.926.926 0 0 1 0-1.85h3.11c.031-.44.094-.85.188-1.26H.925a.926.926 0 0 1 0-1.85h3.987a8.303 8.303 0 0 0-.682 1.834h3.952a.926.926 0 0 0 0-1.85h-3.27Z"/></svg>