<svg width="1em" height="1em" viewBox="0 0 94 25" fill="none" xmlns="http://www.w3.org/2000/svg"><path fill-rule="evenodd" clip-rule="evenodd" d="M29.248 10.629c-.047-.027-.093-.056-.14-.081a6.509 6.509 0 0 0-1.735-.628 11.547 11.547 0 0 1 .108 1.544c0 4.21-2.27 7.887-5.65 9.88.16.134.325.263.497.38.084.058.17.11.257.164 1 .62 2.178.983 3.443.983a6.546 6.546 0 0 0 6.546-6.546 6.54 6.54 0 0 0-3.326-5.696Z" fill="#FF00CE"/><path fill-rule="evenodd" clip-rule="evenodd" d="M26.028 9.778c.461 0 .91.05 1.345.142C26.618 4.32 21.823 0 16.016 0c-4 0-7.522 2.05-9.573 5.155C2.716 6.276 0 9.733 0 13.825c0 5 4.053 9.07 9.054 9.07.33 0 6.44.05 6.962.05 1.703 0 3.317-.392 4.77-1.057.078-.037.159-.07.237-.108.276-.134.545-.28.808-.436a6.53 6.53 0 0 1-2.35-5.02 6.546 6.546 0 0 1 6.547-6.546Z" fill="#0086FF"/><path fill-rule="evenodd" clip-rule="evenodd" d="M27.48 11.464a11.504 11.504 0 0 0-.107-1.544 6.546 6.546 0 0 0-7.891 6.405c0 2.017.914 3.819 2.35 5.02a11.457 11.457 0 0 0 5.648-9.88Z" fill="#1E1E9A"/><path fill-rule="evenodd" clip-rule="evenodd" d="m42.685 10.48 1.379.558c1.373.57 2.39 1.193 3.024 1.856.642.672.967 1.54.967 2.58 0 1.415-.527 2.533-1.566 3.322-1.03.783-2.333 1.18-3.873 1.18-2.465 0-4.445-.95-5.885-2.825l-.056-.073 1.898-2.088.082.085c1.28 1.337 2.612 2.016 3.96 2.016.64 0 1.177-.133 1.597-.393.408-.254.607-.617.607-1.108 0-.395-.144-.692-.438-.906-.314-.228-.824-.49-1.515-.778l-1.464-.615c-1.276-.53-2.24-1.12-2.862-1.752-.633-.643-.954-1.497-.954-2.537 0-1.318.498-2.372 1.478-3.132.971-.754 2.216-1.136 3.698-1.136 2.094 0 3.797.762 5.062 2.264l.061.073-1.81 2.065-.083-.087c-.911-.949-2.018-1.43-3.288-1.43-1.246 0-1.852.414-1.852 1.266 0 .34.126.615.386.839.272.234.759.489 1.447.756Zm38.28-2.503V4.744h12.75v3.233H89.06v11.79h-3.463V7.978h-4.632Zm-20.838 7.684c-.813.851-1.84 1.283-3.053 1.283-1.156 0-2.16-.398-2.984-1.184a3.737 3.737 0 0 1-.932-1.457v-3.94c.206-.573.52-1.058.931-1.441.824-.768 1.829-1.157 2.985-1.157 1.212 0 2.24.432 3.053 1.284.816.853 1.229 1.97 1.229 3.32 0 1.331-.413 2.438-1.229 3.292ZM57.571 4.734c-1.065 0-2.056.215-2.946.64a5.559 5.559 0 0 0-1.95 1.515V5.056h-3.09v19.868h3.295v-6.817c1.153 1.24 2.73 1.869 4.691 1.869 2.073 0 3.804-.731 5.147-2.173 1.34-1.44 2.02-3.278 2.02-5.463 0-2.166-.68-3.994-2.02-5.434-1.343-1.441-3.074-2.172-5.147-2.172Zm15.815 12.181c1.232 0 2.279-.437 3.112-1.299.835-.862 1.257-1.955 1.257-3.247 0-1.311-.418-2.413-1.242-3.276-.825-.862-1.867-1.309-3.1-1.328-1.248.02-2.3.466-3.125 1.328-.825.863-1.243 1.965-1.243 3.276 0 1.293.413 2.386 1.229 3.248.814.861 1.86 1.298 3.112 1.298Zm-5.465-9.982c1.478-1.46 3.317-2.2 5.465-2.2 2.128 0 3.971.74 5.479 2.199 1.509 1.459 2.273 3.279 2.273 5.408 0 2.13-.764 3.954-2.273 5.423-1.508 1.468-3.351 2.213-5.479 2.213-2.148-.02-3.987-.77-5.465-2.228-1.48-1.46-2.23-3.279-2.23-5.408 0-2.13.75-3.948 2.23-5.407Z" fill="#fff"/></svg>