<svg width="1em" height="1em" viewBox="0 0 20 20" fill="#8D52FF" xmlns="http://www.w3.org/2000/svg"><path fill-rule="evenodd" clip-rule="evenodd" d="M6.5 3.89a7.74 7.74 0 0 1 11.184 0c3.088 3.186 3.088 8.352 0 11.538-2.592 2.674-6.535 3.104-9.561 1.288l3.368-3.457a.966.966 0 0 0 .004-1.334.895.895 0 0 0-1.292-.003l-3.556 3.651c.456.451.952.831 1.476 1.143l-1.47 1.509a.904.904 0 0 1-.644.275.897.897 0 0 1-.65-.279.962.962 0 0 1 .006-1.332l1.28-1.316a8.062 8.062 0 0 1-1.32-1.69l-3.762 3.94a.898.898 0 0 1-1.291.01.964.964 0 0 1-.01-1.332l4.263-4.465c.188.64.454 1.26.8 1.846l5.312-5.564a.961.961 0 0 0-.01-1.333.894.894 0 0 0-1.29.01l-4.812 5.041C3.705 9.247 4.364 6.094 6.5 3.89Z"/></svg>