<svg width="1em" height="1em" viewBox="0 0 20 20" fill="red" xmlns="http://www.w3.org/2000/svg"><path fill-rule="evenodd" clip-rule="evenodd" d="M11.902 2a8.158 8.158 0 0 0-3.196.648A8.074 8.074 0 0 0 6.034 4.49a7.35 7.35 0 0 1-.744-.417C3.547 5.226 1.418 5.527 0 5.583v5.289c0 1.776 1.398 3.41 2.578 4.463a11.83 11.83 0 0 0 2.712 1.858c.548-.266 1.071-.58 1.562-.94a8.136 8.136 0 0 1-1.324-1.329 7.501 7.501 0 0 1-.228.15 11.216 11.216 0 0 1-1.456-1.105c-1.248-1.118-1.963-2.247-1.963-3.095v-3.63a12.465 12.465 0 0 0 2.752-.754 7.913 7.913 0 0 0 .895 8.434c.43-.29.84-.61 1.226-.955 1.248-1.118 1.965-2.247 1.965-3.095v-3.63A11.995 11.995 0 0 1 5.3 6.194c-.152.075-.304.14-.457.205l-.21.091a8.052 8.052 0 0 1 1.405-1.993c1.574.787 3.322 1.029 4.54 1.076v5.299c0 1.776-1.397 3.41-2.576 4.463-.366.327-.75.634-1.15.919a8.144 8.144 0 0 0 3.469 1.592 8.195 8.195 0 0 0 3.822-.158 8.124 8.124 0 0 0 3.322-1.874 7.991 7.991 0 0 0 2.08-3.171 7.908 7.908 0 0 0 .376-3.76 7.945 7.945 0 0 0-1.414-3.512 8.07 8.07 0 0 0-2.888-2.478A8.178 8.178 0 0 0 11.903 2Z"/></svg>