<svg width="1em" height="1em" viewBox="0 0 20 20" fill="#1073FF" xmlns="http://www.w3.org/2000/svg"><path fill-rule="evenodd" clip-rule="evenodd" d="M1 10c0-5.133 3.888-9 9.064-9 1.932 0 3.51.378 4.954 1.222a.474.474 0 0 1 .089.734l-2.288 2.288c-.156.134-.356.178-.534.09a5.138 5.138 0 0 0-2.221-.49c-2.733 0-4.776 2.2-4.776 5.134v.044c0 2.956 2.066 5.178 4.776 5.178 1.488 0 2.377-.356 3.399-1.156a.5.5 0 0 1 .622.045l2.043 2.044a.464.464 0 0 1-.022.667C14.33 18.378 12.507 19 9.93 19 4.844 19 1 15.156 1 10.044V10Zm7.709 1.889L7.376 9.244c-.311-.733.489-1.355 1.088-.755l1.533 1.533 7.487-7.489c.777-.778 1.977.267 1.333 1.134l-6.887 8.6c-.889 1.222-2.621 1.022-3.221-.378Z"/></svg>