<svg width="1em" height="1em" viewBox="0 0 20 20" fill="#FF9E00" xmlns="http://www.w3.org/2000/svg"><path fill-rule="evenodd" clip-rule="evenodd" d="M12.118 17.155c4.352 0 7.882-3.56 7.882-7.952 0-4.393-3.53-7.953-7.882-7.953-4.354 0-7.883 3.56-7.883 7.953 0 1.886.651 3.62 1.74 4.983l5.059-6.252a.906.906 0 0 1 1.28-.13c.39.32.45.9.131 1.292L7.278 15.48a7.944 7.944 0 0 1-1.303-1.294l-1.846 2.28-2.577-2.581a.904.904 0 0 0-1.287.005.925.925 0 0 0 .003 1.298l3.29 3.295a.905.905 0 0 0 .642.267l.047-.001a.904.904 0 0 0 .658-.337l2.373-2.932a7.809 7.809 0 0 0 4.84 1.675Z"/></svg>