<svg width="1em" height="1em" viewBox="0 0 20 20" fill="none" xmlns="http://www.w3.org/2000/svg"><path d="m9.282 1.167-5.89 2.896a1.684 1.684 0 0 0-.896 1.147l-1.455 6.506a1.718 1.718 0 0 0 .32 1.43l4.076 5.218c.314.402.79.636 1.294.636h6.538c.504 0 .98-.234 1.294-.636l4.076-5.218c.314-.402.432-.929.32-1.43L17.503 5.21a1.685 1.685 0 0 0-.896-1.147l-5.89-2.896a1.624 1.624 0 0 0-1.436 0Z" fill="#00C6B7"/><path fill-rule="evenodd" clip-rule="evenodd" d="M18.22 8.413C15.577 5.117 11.468 3 6.853 3c-.486 0-.966.023-1.44.07l-2.021.993c-.266.131-.49.33-.652.574a13.675 13.675 0 0 1 4.113-.628c5.26 0 9.813 2.962 12.009 7.275l-.642-2.871Zm-.352 5.72c-1.853-4.74-6.548-8.107-12.046-8.107-1.257 0-2.472.176-3.62.504l-.255 1.138a12.086 12.086 0 0 1 3.875-.634c5.287 0 9.766 3.384 11.297 8.058l.749-.959Zm-2.776 3.553c-.25-4.831-4.562-8.634-9.786-8.634a10.44 10.44 0 0 0-3.83.72l-.273 1.224a9.332 9.332 0 0 1 4.103-.936c4.87 0 8.766 3.64 8.766 8.069 0 .227-.01.453-.03.675.199-.107.377-.256.521-.44l.53-.678ZM11.946 19a5.96 5.96 0 0 0 .064-.871c0-3.342-2.77-6.052-6.188-6.052a6.245 6.245 0 0 0-4.106 1.524l.629.804a5.203 5.203 0 0 1 3.477-1.319c2.848 0 5.156 2.258 5.156 5.043 0 .297-.026.588-.076.871h1.044Zm-7.98-2.52a2.61 2.61 0 0 1 1.34-.368c.902 0 1.696.453 2.156 1.14.314.222.57.272.77.15.152-.094.23-.25.236-.472a3.622 3.622 0 0 0-3.162-1.827c-.727 0-1.403.21-1.97.571l.63.805Z" fill="#fff"/></svg>