<svg width="1em" height="1em" viewBox="0 0 20 20" fill="#00B9B6" xmlns="http://www.w3.org/2000/svg"><path fill-rule="evenodd" clip-rule="evenodd" d="M4.98 6.168A8.008 8.008 0 0 1 12.003 2 7.992 7.992 0 0 1 20 10c0 4.423-3.575 8-7.997 8a7.97 7.97 0 0 1-6.8-3.8 4.84 4.84 0 0 0 1.373-.575.933.933 0 0 0 .304-1.278.932.932 0 0 0-1.277-.303 2.857 2.857 0 0 1-1.209.43c.192.602.461 1.171.794 1.71a4.78 4.78 0 0 1-1.07.127A4.129 4.129 0 0 1 0 10.191a4.129 4.129 0 0 1 4.118-4.12c.303 0 .59.033.862.097a7.742 7.742 0 0 0-.702 1.772c-.048-.016-.096-.016-.144-.016a2.282 2.282 0 1 0 0 4.567c.078 0 .172-.015.251-.031A8.442 8.442 0 0 1 4.006 10c0-.719.096-1.405.272-2.06 1.42.096 2.394 1.485 2.841 2.81.782 2.316 2.426 3.641 4.533 3.641h.016a4.345 4.345 0 0 0 3.113-1.325 3.946 3.946 0 0 0 1.1-2.874c-.063-2.156-1.915-4.088-3.957-4.136-1.246-.032-2.155.479-2.714.91a.917.917 0 0 0-.16 1.293c.304.4.894.48 1.293.16.32-.24.83-.527 1.533-.51 1.085.031 2.138 1.165 2.17 2.346a2.013 2.013 0 0 1-.59 1.533 2.565 2.565 0 0 1-1.788.75h-.016c-1.724 0-2.49-1.484-2.793-2.378-.734-2.172-2.171-3.625-3.879-3.992Z"/></svg>