<svg width="1em" height="1em" viewBox="0 0 20 15" fill="none" xmlns="http://www.w3.org/2000/svg"><ellipse cx="15.789" cy="10.714" rx="4.211" ry="4.286" fill="#FF00CE"/><path d="M12.632 0c-1.493 0-3.1.312-4.211 1.169C7.311.312 5.703 0 4.211 0 2.718 0 1.11.312 0 1.169v11.415c0 .507.559.351.574.351 1.034-.506 2.526-.857 3.637-.857 1.492 0 3.1.312 4.21 1.169 1.034-.663 2.91-1.17 4.21-1.17 1.264 0 2.565.235 3.637.82.314.163.574-.149.574-.351V1.168C15.702.296 14.063 0 12.632 0Zm2.679 10.91c-.842-.274-1.76-.39-2.68-.39-1.3 0-3.176.506-4.21 1.168v-8.96c1.034-.663 2.91-1.17 4.21-1.17.92 0 1.838.117 2.68.39v8.961Z" fill="#006FE6"/><path fill-rule="evenodd" clip-rule="evenodd" d="M16.842 6.564a4.148 4.148 0 0 0-1.531-.108v4.453c-.842-.273-1.76-.39-2.68-.39-.322 0-.68.032-1.05.088-.002.036-.002.072-.002.107 0 .498.083.975.236 1.42a6.45 6.45 0 0 1 .817-.056c1.263 0 2.564.234 3.636.818.314.164.574-.148.574-.35V6.564Z" fill="#1E1E9A"/></svg>