<svg width="1em" height="1em" viewBox="0 0 21 20" fill="#1A8AFF" xmlns="http://www.w3.org/2000/svg"><path fill-rule="evenodd" clip-rule="evenodd" d="M12.446 17.059c4.419 0 8-3.371 8-7.53 0-4.158-3.581-7.529-8-7.529-2.433 0-4.613 1.023-6.08 2.637-1.522.026-2.839.96-3.5 2.32C1.255 7.141 0 8.606 0 10.381v.086C0 12.417 1.477 14 3.296 14h2.713c1.457 1.855 3.798 3.059 6.437 3.059Zm-7.268-4.38c.23.468.508.91.83 1.321h4.254c1.523 0 2.76-1.325 2.76-2.959 0-1.54-1.1-2.792-2.506-2.93-.395-1.989-2.037-3.475-4.005-3.475h-.146a7.543 7.543 0 0 0-.982 1.354c-.863.353-1.53 1.129-1.787 2.093h.02c.268-.934.913-1.69 1.747-2.056-.047.084-.093.17-.137.256-.71.383-1.25 1.073-1.473 1.91l-.016.062h-.441c-1.14 0-2.064.99-2.064 2.212 0 1.221.923 2.21 2.062 2.212h1.884Zm0 0a7.136 7.136 0 0 1 .049-6.396 2.694 2.694 0 0 1 1.284-.325c1.584 0 2.867 1.374 2.867 3.073v.373h.884c.832 0 1.506.709 1.527 1.595-.022.933-.732 1.68-1.608 1.68H5.178Zm.185-6.652c.342-.15.715-.236 1.107-.241h-.04c-.369 0-.722.072-1.047.204a7.135 7.135 0 0 0-.02.037Zm4.899 7.8h-.08c1.465 0 2.657-1.263 2.678-2.828v.042c0 1.538-1.164 2.787-2.598 2.787Zm-9.19-3.446v.043c.022-1.297 1.008-2.34 2.224-2.34h-.08c-1.185 0-2.144 1.027-2.144 2.297Z"/></svg>