<svg width="1em" height="1em" viewBox="0 0 20 20" fill="#FF00CE" xmlns="http://www.w3.org/2000/svg"><path fill-rule="evenodd" clip-rule="evenodd" d="M15.506 7.593c-.628 0-1.138.515-1.138 1.148 0 .635.51 1.15 1.138 1.15.628 0 1.138-.515 1.138-1.15 0-.633-.51-1.148-1.138-1.148ZM1.929 18.472a1.03 1.03 0 0 1-1.406.392 1.047 1.047 0 0 1-.388-1.42l2.611-4.647a8.952 8.952 0 0 0 1.094 2.211l3.543-6.266 2.856 5.308a1.617 1.617 0 0 0 2.722.238l1.76-2.443a1.043 1.043 0 0 0-.226-1.443 1.016 1.016 0 0 0-1.429.228l-1.338 1.859-2.752-5.114-.117-.234a1.655 1.655 0 0 0-1.39-.9A1.65 1.65 0 0 0 6 7.005L4.48 9.712l-1.737 3.073a9.013 9.013 0 0 1-.458-2.84C2.284 5.005 6.25 1 11.142 1S20 5.005 20 9.945s-3.966 8.945-8.858 8.945c-3.02 0-5.683-1.525-7.283-3.854l-1.93 3.436Z"/></svg>