<svg width="1em" height="1em" viewBox="0 0 31 23" fill="#1A8AFF" xmlns="http://www.w3.org/2000/svg"><path fill-rule="evenodd" clip-rule="evenodd" d="M18.67 22.588c6.627 0 12-5.056 12-11.294C30.67 5.057 25.297 0 18.67 0c-3.651 0-6.921 1.534-9.122 3.955-2.282.04-4.257 1.442-5.248 3.48C1.88 7.712 0 9.91 0 12.572a5.644 5.644 0 0 0 0 .13C0 15.624 2.216 18 4.943 18h4.07c2.185 2.783 5.697 4.588 9.657 4.588Zm-10.903-6.57c.344.703.762 1.366 1.246 1.982h6.38c2.285 0 4.14-1.988 4.14-4.438 0-2.31-1.65-4.189-3.759-4.395-.592-2.984-3.055-5.212-6.008-5.212a5.807 5.807 0 0 0-.12 0h-.098a11.315 11.315 0 0 0-1.473 2.03c-1.295.53-2.296 1.693-2.682 3.14h.031c.402-1.402 1.37-2.535 2.62-3.085-.07.127-.139.255-.205.384-1.064.574-1.875 1.61-2.209 2.865l-.025.094h-.662c-1.71 0-3.094 1.485-3.094 3.318 0 1.832 1.383 3.316 3.092 3.317h2.826Zm0 0a10.699 10.699 0 0 1-1.097-4.724c0-1.744.42-3.395 1.17-4.87a4.042 4.042 0 0 1 1.926-.488c2.377 0 4.3 2.062 4.3 4.61v.56h1.327c1.247 0 2.258 1.063 2.29 2.393-.032 1.4-1.097 2.52-2.41 2.52H7.766Zm.278-9.978a4.258 4.258 0 0 1 1.6-.362c-.553 0-1.082.109-1.57.308l-.03.054Zm7.348 11.701h-.12c2.197 0 3.985-1.894 4.018-4.243v.064c0 2.307-1.746 4.18-3.898 4.18Zm-13.785-5.17v.064c.033-1.945 1.513-3.51 3.335-3.51h-.12c-1.777 0-3.215 1.542-3.215 3.446Z"/></svg>