<svg width="1em" height="1em" viewBox="0 0 20 20" fill="#014372" xmlns="http://www.w3.org/2000/svg"><path d="M9.999 2C7.88 2 6.24 4.817 5.946 8.731c.38.363.826.723 1.32 1.075.006-.41.033-.799.07-1.18a21.07 21.07 0 0 1 1.294-.758c1.82-.945 3.694-1.568 5.275-1.752a7.36 7.36 0 0 1 .866-.053c.888 0 1.516.192 1.748.552.209.327.115.847-.235 1.455.358.298.698.6 1 .906.77-1.146.928-2.188.42-2.976-.604-.94-2.013-1.334-3.972-1.106-1.757.204-3.81.883-5.786 1.91-.125.064-.242.136-.366.206.492-2.278 1.492-3.78 2.42-3.78.433 0 .883.333 1.289.91.465-.13.924-.243 1.371-.328C11.951 2.671 11.03 2 10 2Zm-4.64 2.839C3.873 4.815 2.798 5.214 2.293 6c-.55.855-.32 2.005.626 3.267.085.118.179.243.297.38 1.074 1.264 2.753 2.524 4.729 3.55.126.065.256.123.385.188-.784.243-1.543.418-2.24.5-1.335.156-2.31-.031-2.61-.5-.211-.327-.117-.846.233-1.454-.349-.288-.683-.59-1.002-.904-.768 1.144-.926 2.184-.418 2.973.492.767 1.519 1.17 2.94 1.17.325 0 .672-.021 1.033-.064.209-.025.417-.056.631-.094l.15-.029a14.866 14.866 0 0 0 1.254-.3l.451-.126a19.4 19.4 0 0 0 2.045-.764c.15-.447.284-.968.385-1.569-.396.199-.794.38-1.19.548a18.031 18.031 0 0 1-1.363-.64c-1.823-.947-3.36-2.093-4.325-3.231-.819-.964-1.126-1.817-.823-2.286.205-.321.75-.504 1.502-.538.107-.435.23-.849.374-1.238Zm7.885 2.637c-.54.113-1.112.28-1.697.488.387.206.756.428 1.115.649.042.447.074.904.074 1.387 0 3.63-1.27 6.399-2.49 6.733a.885.885 0 0 1-.247.036c-.433 0-.883-.329-1.289-.91-.465.131-.924.244-1.371.329C8.047 17.329 8.968 18 9.999 18c.137 0 .267-.012.396-.036 2.141-.365 3.71-3.664 3.71-7.964 0-.132-.01-.26-.013-.392.626.488 1.177.99 1.604 1.49.816.965 1.122 1.818.823 2.287-.21.324-.748.512-1.505.546-.107.43-.227.846-.371 1.233.037 0 .082.007.12.007 1.422 0 2.449-.404 2.94-1.171.605-.94.279-2.236-.922-3.647-.85-1-2.082-1.995-3.537-2.877ZM10 8.769C9.243 8.77 8.63 9.32 8.63 10s.613 1.23 1.369 1.23 1.369-.55 1.369-1.23c0-.68-.613-1.23-1.37-1.23Z"/></svg>