<svg width="1em" height="1em" viewBox="0 0 20 20" fill="#0068FF" xmlns="http://www.w3.org/2000/svg"><path fill-rule="evenodd" clip-rule="evenodd" d="M13.708 6.817a1.494 1.494 0 0 1 1.137 1.8 1.515 1.515 0 0 1-1.247 1.168c-.016 0-.048 0-.064.016-.631.08-1.105.3-1.358.663-.22.3-.316.727-.268 1.169v.016c.095.742.426 1.342 1.01 1.769.411.3.916.505 1.5.631a6.024 6.024 0 0 0 2.006.063 7.39 7.39 0 0 0 2.89-.979 7.904 7.904 0 0 0-1.626-8.812c-3.095-3.095-8.102-3.095-11.181 0a7.919 7.919 0 0 0-2.258 4.88c1.895-1.563 4.532-3.49 9.46-2.384ZM4.248 9.2c-.094.08-.189.158-.268.221-1.326 1.106-1.863 1.453-2.7 1.074a.908.908 0 1 0-.742 1.658c1.563.695 2.779.08 3.837-.726A7.462 7.462 0 0 1 4.249 9.2Zm9.823 6.633a7.297 7.297 0 0 0 2.59.079c.253-.016.49-.063.727-.11-3.111 2.778-7.88 2.684-10.865-.301a7.883 7.883 0 0 1-2.164-4.043c.269-.205.522-.41.774-.616l.027-.022c1.604-1.32 3.403-2.802 6.764-2.457-.585.3-.964.68-1.2 1.01-.49.68-.711 1.548-.6 2.464v.032c.141 1.232.757 2.274 1.736 3.016a5.73 5.73 0 0 0 2.211.948Z"/></svg>