<svg width="1em" height="1em" viewBox="0 0 20 20" fill="#0047BA" xmlns="http://www.w3.org/2000/svg"><path fill-rule="evenodd" clip-rule="evenodd" d="M19 10a9 9 0 1 1-18 0 9 9 0 0 1 18 0Zm-8.626-5.984-.11-.009a5.055 5.055 0 0 0-.532 0l-.128.011A1.633 1.633 0 0 0 8.219 5.33l-.095.519-.06.027a4.524 4.524 0 0 0-.634.364l-.066.047-.511-.18c-.655-.25-1.424-.017-1.85.583-.137.21-.24.387-.332.57l-.054.126a1.643 1.643 0 0 0 .487 1.877l.366.308-.005.05c-.02.246-.02.496 0 .745l.005.046-.386.326-.014.03a1.64 1.64 0 0 0-.416 1.937c.11.217.212.394.323.565l.082.109c.457.557 1.18.75 1.822.504l.479-.17.064.046c.202.139.414.26.635.365l.06.026.092.503a1.635 1.635 0 0 0 1.54 1.342c.158.008.335.008.512-.001l.129-.011a1.633 1.633 0 0 0 1.385-1.311l.094-.52.061-.026a4.57 4.57 0 0 0 .633-.364l.066-.048.512.182c.653.252 1.427.017 1.852-.589a5.74 5.74 0 0 0 .33-.564l.053-.128c.245-.64.085-1.34-.388-1.79l-.466-.406.007-.056c.02-.246.02-.495-.001-.744l-.006-.045.389-.329c.556-.44.751-1.253.437-1.94a5.714 5.714 0 0 0-.327-.573l-.088-.115c-.46-.551-1.175-.741-1.811-.5l-.488.173-.064-.046a4.55 4.55 0 0 0-.635-.366l-.06-.027-.092-.504-.032-.134a1.635 1.635 0 0 0-1.38-1.196Zm-1 1.549a.447.447 0 0 1 .42-.36c.135-.007.272-.007.408 0a.447.447 0 0 1 .424.36l.164.897a.48.48 0 0 0 .315.366c.4.14.771.352 1.092.628a.483.483 0 0 0 .482.09l.857-.305a.432.432 0 0 1 .505.153c.088.135.168.274.24.417a.426.426 0 0 1-.122.51l-.69.586a.478.478 0 0 0-.164.455c.083.416.083.845 0 1.261a.48.48 0 0 0 .163.456l.691.599a.426.426 0 0 1 .118.513 4.487 4.487 0 0 1-.24.417.43.43 0 0 1-.506.154l-.857-.305a.483.483 0 0 0-.481.089 3.379 3.379 0 0 1-1.093.628.48.48 0 0 0-.315.367l-.164.894a.447.447 0 0 1-.419.36 3.877 3.877 0 0 1-.409 0 .447.447 0 0 1-.423-.363l-.164-.894a.48.48 0 0 0-.315-.367 3.371 3.371 0 0 1-1.093-.627.482.482 0 0 0-.477-.09l-.856.305a.43.43 0 0 1-.506-.153 4.485 4.485 0 0 1-.24-.417.426.426 0 0 1 .117-.511v-.017l.694-.585a.478.478 0 0 0 .16-.455 3.207 3.207 0 0 1 0-1.261.478.478 0 0 0-.16-.456l-.694-.582a.426.426 0 0 1-.117-.513c.072-.143.153-.283.24-.417a.432.432 0 0 1 .506-.154l.856.305c.165.06.35.026.482-.089.321-.276.692-.49 1.092-.628a.48.48 0 0 0 .316-.367l.163-.894ZM11.964 10c0-1.105-.88-2-1.965-2s-1.964.895-1.964 2c0 1.104.88 2 1.964 2 1.085 0 1.964-.896 1.964-2Zm-2.75 0c0-.442.351-.8.785-.8.434 0 .786.358.786.8 0 .442-.352.8-.786.8a.793.793 0 0 1-.786-.8Z"/></svg>